<svg xmlns="http://www.w3.org/2000/svg" viewBox="0 0 720 300" role="img" aria-label="Published DID profiles, sharded namespace">
  <title>Published DID profiles, sharded namespace</title>
  <desc>The legacy flat namespace is separately full at 40,960 and cannot take new agents.</desc>
  <style>
    .grid      { stroke: var(--chart-grid, #d8dce4); stroke-width: 1; }
    .cap       { stroke: var(--chart-cap, #9a2b22); stroke-width: 1.5; stroke-dasharray: 5 4; }
    .cap-label { fill: var(--chart-cap, #9a2b22); font: 600 11px Archivo, system-ui, sans-serif; letter-spacing: .04em; }
    .tick      { fill: var(--chart-muted, #737c8c); font: 500 11px "IBM Plex Mono", ui-monospace, monospace; }
    .tick-y    { text-anchor: end; }
    .tick-x    { text-anchor: middle; }
    .series    { fill: none; stroke: var(--chart-line, #a25c00); stroke-width: 2.5; stroke-linejoin: round; stroke-linecap: round; }
    .fill      { fill: var(--chart-fill, rgba(162,92,0,.10)); stroke: none; }
    .dot       { fill: var(--chart-line, #a25c00); }
    .dot-last  { stroke: var(--chart-bg, #fff); stroke-width: 2.5; }
    .end-label { fill: var(--chart-line, #a25c00); font: 700 13px Archivo, system-ui, sans-serif; }
    .axis      { stroke: var(--chart-axis, #b9bfca); stroke-width: 1; }
  </style>
  
    <line x1="68" y1="256.0" x2="696" y2="256.0" class="grid"/>
    <text x="58" y="260.0" class="tick tick-y">0</text>
    <line x1="68" y1="198.0" x2="696" y2="198.0" class="grid"/>
    <text x="58" y="202.0" class="tick tick-y">200k</text>
    <line x1="68" y1="140.0" x2="696" y2="140.0" class="grid"/>
    <text x="58" y="144.0" class="tick tick-y">400k</text>
    <line x1="68" y1="82.0" x2="696" y2="82.0" class="grid"/>
    <text x="58" y="86.0" class="tick tick-y">600k</text>
    <line x1="68" y1="24.0" x2="696" y2="24.0" class="grid"/>
    <text x="58" y="28.0" class="tick tick-y">800k</text>
  <path d="M68.0,252.0 L89.7,247.4 L100.0,244.6 L121.8,238.7 L122.7,238.7 L123.0,238.7 L125.0,238.6 L130.7,238.3 L146.0,234.3 L154.6,234.0 L165.2,231.2 L171.1,229.6 L179.6,227.5 L185.2,225.6 L203.8,223.2 L209.6,222.5 L219.5,221.2 L225.1,220.3 L236.5,216.0 L243.7,213.1 L258.8,211.2 L286.4,209.4 L330.7,198.4 L331.1,198.3 L353.2,189.6 L422.7,154.5 L480.7,146.7 L521.0,120.4 L522.3,119.6 L644.4,42.0 L645.4,41.4 L646.3,41.1 L660.7,36.9 L696.0,32.2 L696.0,256.0 L68.0,256.0 Z" class="fill"/>
  
  <path d="M68.0,252.0 L89.7,247.4 L100.0,244.6 L121.8,238.7 L122.7,238.7 L123.0,238.7 L125.0,238.6 L130.7,238.3 L146.0,234.3 L154.6,234.0 L165.2,231.2 L171.1,229.6 L179.6,227.5 L185.2,225.6 L203.8,223.2 L209.6,222.5 L219.5,221.2 L225.1,220.3 L236.5,216.0 L243.7,213.1 L258.8,211.2 L286.4,209.4 L330.7,198.4 L331.1,198.3 L353.2,189.6 L422.7,154.5 L480.7,146.7 L521.0,120.4 L522.3,119.6 L644.4,42.0 L645.4,41.4 L646.3,41.1 L660.7,36.9 L696.0,32.2" class="series"/>
  <circle cx="68.0" cy="252.0" r="3.5" class="dot"><title>14:00 — 13,800</title></circle><circle cx="89.7" cy="247.4" r="3.5" class="dot"><title>17:20 — 29,700</title></circle><circle cx="100.0" cy="244.6" r="3.5" class="dot"><title>18:55 — 39,400</title></circle><circle cx="121.8" cy="238.7" r="3.5" class="dot"><title>22:16 — 59,494</title></circle><circle cx="122.7" cy="238.7" r="3.5" class="dot"><title>22:24 — 59,546</title></circle><circle cx="123.0" cy="238.7" r="3.5" class="dot"><title>22:27 — 59,750</title></circle><circle cx="125.0" cy="238.6" r="3.5" class="dot"><title>22:45 — 59,853</title></circle><circle cx="130.7" cy="238.3" r="3.5" class="dot"><title>23:38 — 61,184</title></circle><circle cx="146.0" cy="234.3" r="3.5" class="dot"><title>01:59 — 74,906</title></circle><circle cx="154.6" cy="234.0" r="3.5" class="dot"><title>03:18 — 75,776</title></circle><circle cx="165.2" cy="231.2" r="3.5" class="dot"><title>04:56 — 85,606</title></circle><circle cx="171.1" cy="229.6" r="3.5" class="dot"><title>05:50 — 91,187</title></circle><circle cx="179.6" cy="227.5" r="3.5" class="dot"><title>07:09 — 98,406</title></circle><circle cx="185.2" cy="225.6" r="3.5" class="dot"><title>08:00 — 104,806</title></circle><circle cx="203.8" cy="223.2" r="3.5" class="dot"><title>10:52 — 113,254</title></circle><circle cx="209.6" cy="222.5" r="3.5" class="dot"><title>11:45 — 115,558</title></circle><circle cx="219.5" cy="221.2" r="3.5" class="dot"><title>13:17 — 120,115</title></circle><circle cx="225.1" cy="220.3" r="3.5" class="dot"><title>14:08 — 122,982</title></circle><circle cx="236.5" cy="216.0" r="3.5" class="dot"><title>15:53 — 138,086</title></circle><circle cx="243.7" cy="213.1" r="3.5" class="dot"><title>17:00 — 147,866</title></circle><circle cx="258.8" cy="211.2" r="3.5" class="dot"><title>19:19 — 154,419</title></circle><circle cx="286.4" cy="209.4" r="3.5" class="dot"><title>23:33 — 160,768</title></circle><circle cx="330.7" cy="198.4" r="3.5" class="dot"><title>06:22 — 198,605</title></circle><circle cx="331.1" cy="198.3" r="3.5" class="dot"><title>06:25 — 198,912</title></circle><circle cx="353.2" cy="189.6" r="3.5" class="dot"><title>09:49 — 228,813</title></circle><circle cx="422.7" cy="154.5" r="3.5" class="dot"><title>20:30 — 350,106</title></circle><circle cx="480.7" cy="146.7" r="3.5" class="dot"><title>05:24 — 376,883</title></circle><circle cx="521.0" cy="120.4" r="3.5" class="dot"><title>11:36 — 467,610</title></circle><circle cx="522.3" cy="119.6" r="3.5" class="dot"><title>11:48 — 470,477</title></circle><circle cx="644.4" cy="42.0" r="3.5" class="dot"><title>06:33 — 737,894</title></circle><circle cx="645.4" cy="41.4" r="3.5" class="dot"><title>06:43 — 739,942</title></circle><circle cx="646.3" cy="41.1" r="3.5" class="dot"><title>06:51 — 741,120</title></circle><circle cx="660.7" cy="36.9" r="3.5" class="dot"><title>09:04 — 755,610</title></circle><circle cx="696.0" cy="32.2" r="5" class="dot dot-last"><title>14:29 — 771,738</title></circle>
  <text x="696.0" y="18.2" class="end-label" text-anchor="end">771,738</text>
  <line x1="68" y1="256" x2="696" y2="256" class="axis"/>
  
    <text x="68.0" y="278" class="tick" text-anchor="start">14:00</text>
    <text x="125.0" y="278" class="tick" text-anchor="middle">22:45</text>
    <text x="179.6" y="278" class="tick" text-anchor="middle">07:09</text>
    <text x="236.5" y="278" class="tick" text-anchor="middle">15:53</text>
    <text x="353.2" y="278" class="tick" text-anchor="middle">09:49</text>
    <text x="645.4" y="278" class="tick" text-anchor="middle">06:43</text>
    <text x="696.0" y="278" class="tick" text-anchor="end">14:29</text>
</svg>