<svg xmlns="http://www.w3.org/2000/svg" viewBox="0 0 720 300" role="img" aria-label="Published DID profiles, sharded namespace">
  <title>Published DID profiles, sharded namespace</title>
  <desc>The legacy flat namespace is separately at 63,535 of its 300,000 cap and cannot take new agents once it is full.</desc>
  <style>
    .grid      { stroke: var(--chart-grid, #d8dce4); stroke-width: 1; }
    .cap       { stroke: var(--chart-cap, #9a2b22); stroke-width: 1.5; stroke-dasharray: 5 4; }
    .cap-label { fill: var(--chart-cap, #9a2b22); font: 600 11px Archivo, system-ui, sans-serif; letter-spacing: .04em; }
    .tick      { fill: var(--chart-muted, #737c8c); font: 500 11px "IBM Plex Mono", ui-monospace, monospace; }
    .tick-y    { text-anchor: end; }
    .tick-x    { text-anchor: middle; }
    .series    { fill: none; stroke: var(--chart-line, #a25c00); stroke-width: 2.5; stroke-linejoin: round; stroke-linecap: round; }
    .fill      { fill: var(--chart-fill, rgba(162,92,0,.10)); stroke: none; }
    .dot       { fill: var(--chart-line, #a25c00); }
    .dot-last  { stroke: var(--chart-bg, #fff); stroke-width: 2.5; }
    .end-label { fill: var(--chart-line, #a25c00); font: 700 13px Archivo, system-ui, sans-serif; }
    .axis      { stroke: var(--chart-axis, #b9bfca); stroke-width: 1; }
  </style>
  
    <line x1="68" y1="256.0" x2="696" y2="256.0" class="grid"/>
    <text x="58" y="260.0" class="tick tick-y">0</text>
    <line x1="68" y1="198.0" x2="696" y2="198.0" class="grid"/>
    <text x="58" y="202.0" class="tick tick-y">1000k</text>
    <line x1="68" y1="140.0" x2="696" y2="140.0" class="grid"/>
    <text x="58" y="144.0" class="tick tick-y">2000k</text>
    <line x1="68" y1="82.0" x2="696" y2="82.0" class="grid"/>
    <text x="58" y="86.0" class="tick tick-y">3000k</text>
    <line x1="68" y1="24.0" x2="696" y2="24.0" class="grid"/>
    <text x="58" y="28.0" class="tick tick-y">4000k</text>
  <path d="M68.0,255.2 L70.1,254.3 L71.1,253.7 L73.2,252.5 L73.3,252.5 L73.3,252.5 L73.5,252.5 L74.0,252.5 L75.5,251.7 L76.3,251.6 L77.3,251.0 L77.9,250.7 L78.7,250.3 L79.3,249.9 L81.0,249.4 L81.6,249.3 L82.6,249.0 L83.1,248.9 L84.2,248.0 L84.9,247.4 L86.3,247.0 L89.0,246.7 L93.2,244.5 L93.3,244.5 L95.4,242.7 L102.1,235.7 L107.6,234.1 L111.5,228.9 L111.6,228.7 L123.4,213.2 L123.5,213.1 L123.6,213.0 L124.9,212.2 L128.3,211.2 L130.8,210.9 L132.9,210.8 L138.5,209.9 L139.1,209.9 L145.2,208.3 L149.0,203.9 L152.8,196.5 L158.0,181.4 L164.2,172.3 L167.5,171.2 L177.9,160.9 L182.2,160.8 L185.3,161.5 L188.4,162.1 L191.0,163.0 L193.0,163.0 L194.5,162.9 L197.2,162.2 L200.5,157.2 L207.9,147.5 L209.4,145.6 L212.2,141.9 L218.3,144.2 L220.8,145.4 L222.8,144.8 L224.4,144.4 L227.1,144.1 L230.0,144.0 L232.3,142.9 L234.4,142.0 L235.8,141.2 L237.6,139.5 L238.7,138.6 L239.9,137.7 L243.1,136.0 L246.2,133.5 L248.2,131.9 L250.0,130.5 L251.3,130.5 L254.3,131.7 L257.3,135.3 L260.8,142.6 L264.6,154.6 L267.2,156.7 L269.0,156.9 L272.2,156.9 L275.4,158.7 L278.4,165.0 L281.0,165.7 L283.0,166.5 L284.5,166.8 L287.4,167.6 L290.5,168.8 L293.5,168.8 L296.0,168.5 L297.9,167.8 L299.5,167.3 L302.4,167.5 L305.5,169.5 L308.4,172.6 L310.9,174.4 L312.9,175.9 L314.5,177.2 L317.3,178.4 L320.4,179.0 L323.4,178.9 L333.0,179.6 L336.1,177.8 L338.2,174.5 L340.1,174.6 L341.5,174.9 L343.3,175.0 L345.0,174.9 L348.2,171.7 L351.8,169.0 L354.6,167.0 L356.5,165.3 L358.4,164.1 L360.1,162.8 L363.3,160.2 L368.2,157.0 L371.5,154.4 L373.9,152.1 L375.3,150.6 L379.2,147.3 L382.9,145.9 L385.8,144.3 L387.8,143.8 L389.6,143.8 L393.2,143.8 L396.7,142.9 L400.0,141.0 L402.0,140.2 L403.8,139.6 L409.2,137.9 L412.8,136.9 L415.8,136.5 L417.8,136.2 L419.6,135.9 L423.1,136.1 L426.5,133.5 L428.8,130.9 L431.0,130.2 L433.0,130.1 L434.7,130.0 L438.1,132.0 L441.3,135.0 L445.7,140.5 L448.9,142.7 L450.2,143.4 L453.4,146.0 L457.2,148.3 L459.9,149.5 L461.6,150.2 L463.5,150.9 L476.6,160.0 L479.0,162.6 L482.6,166.3 L485.7,167.8 L491.3,170.7 L493.3,170.5 L494.8,170.8 L498.2,171.2 L501.7,171.3 L505.1,171.7 L507.2,170.2 L509.3,169.1 L512.5,168.4 L515.7,168.3 L518.9,166.5 L520.9,164.7 L521.5,164.0 L523.5,160.8 L525.4,157.3 L529.4,149.1 L533.1,133.8 L536.1,129.5 L538.5,128.5 L540.5,127.0 L544.3,118.9 L547.7,108.7 L550.2,100.6 L551.9,95.5 L553.8,90.2 L555.4,86.5 L559.6,79.9 L563.2,77.5 L566.0,74.9 L568.4,72.2 L570.0,71.7 L573.8,70.1 L579.2,66.9 L583.3,64.3 L585.7,62.7 L589.8,60.1 L594.4,58.5 L597.5,57.8 L599.8,56.8 L603.7,55.4 L608.1,54.3 L611.6,54.6 L614.4,56.3 L618.2,58.4 L622.8,61.0 L626.4,64.3 L629.0,68.9 L630.9,72.6 L634.9,80.9 L639.4,95.5 L642.5,97.6 L644.8,99.3 L648.6,103.9 L652.4,110.7 L655.3,115.6 L657.8,119.6 L659.4,121.8 L663.2,126.3 L667.3,125.9 L670.5,124.7 L672.9,124.3 L675.1,124.3 L679.0,124.0 L684.6,124.3 L688.7,124.2 L691.4,124.3 L696.0,123.9 L696.0,256.0 L68.0,256.0 Z" class="fill"/>
  
  <path d="M68.0,255.2 L70.1,254.3 L71.1,253.7 L73.2,252.5 L73.3,252.5 L73.3,252.5 L73.5,252.5 L74.0,252.5 L75.5,251.7 L76.3,251.6 L77.3,251.0 L77.9,250.7 L78.7,250.3 L79.3,249.9 L81.0,249.4 L81.6,249.3 L82.6,249.0 L83.1,248.9 L84.2,248.0 L84.9,247.4 L86.3,247.0 L89.0,246.7 L93.2,244.5 L93.3,244.5 L95.4,242.7 L102.1,235.7 L107.6,234.1 L111.5,228.9 L111.6,228.7 L123.4,213.2 L123.5,213.1 L123.6,213.0 L124.9,212.2 L128.3,211.2 L130.8,210.9 L132.9,210.8 L138.5,209.9 L139.1,209.9 L145.2,208.3 L149.0,203.9 L152.8,196.5 L158.0,181.4 L164.2,172.3 L167.5,171.2 L177.9,160.9 L182.2,160.8 L185.3,161.5 L188.4,162.1 L191.0,163.0 L193.0,163.0 L194.5,162.9 L197.2,162.2 L200.5,157.2 L207.9,147.5 L209.4,145.6 L212.2,141.9 L218.3,144.2 L220.8,145.4 L222.8,144.8 L224.4,144.4 L227.1,144.1 L230.0,144.0 L232.3,142.9 L234.4,142.0 L235.8,141.2 L237.6,139.5 L238.7,138.6 L239.9,137.7 L243.1,136.0 L246.2,133.5 L248.2,131.9 L250.0,130.5 L251.3,130.5 L254.3,131.7 L257.3,135.3 L260.8,142.6 L264.6,154.6 L267.2,156.7 L269.0,156.9 L272.2,156.9 L275.4,158.7 L278.4,165.0 L281.0,165.7 L283.0,166.5 L284.5,166.8 L287.4,167.6 L290.5,168.8 L293.5,168.8 L296.0,168.5 L297.9,167.8 L299.5,167.3 L302.4,167.5 L305.5,169.5 L308.4,172.6 L310.9,174.4 L312.9,175.9 L314.5,177.2 L317.3,178.4 L320.4,179.0 L323.4,178.9 L333.0,179.6 L336.1,177.8 L338.2,174.5 L340.1,174.6 L341.5,174.9 L343.3,175.0 L345.0,174.9 L348.2,171.7 L351.8,169.0 L354.6,167.0 L356.5,165.3 L358.4,164.1 L360.1,162.8 L363.3,160.2 L368.2,157.0 L371.5,154.4 L373.9,152.1 L375.3,150.6 L379.2,147.3 L382.9,145.9 L385.8,144.3 L387.8,143.8 L389.6,143.8 L393.2,143.8 L396.7,142.9 L400.0,141.0 L402.0,140.2 L403.8,139.6 L409.2,137.9 L412.8,136.9 L415.8,136.5 L417.8,136.2 L419.6,135.9 L423.1,136.1 L426.5,133.5 L428.8,130.9 L431.0,130.2 L433.0,130.1 L434.7,130.0 L438.1,132.0 L441.3,135.0 L445.7,140.5 L448.9,142.7 L450.2,143.4 L453.4,146.0 L457.2,148.3 L459.9,149.5 L461.6,150.2 L463.5,150.9 L476.6,160.0 L479.0,162.6 L482.6,166.3 L485.7,167.8 L491.3,170.7 L493.3,170.5 L494.8,170.8 L498.2,171.2 L501.7,171.3 L505.1,171.7 L507.2,170.2 L509.3,169.1 L512.5,168.4 L515.7,168.3 L518.9,166.5 L520.9,164.7 L521.5,164.0 L523.5,160.8 L525.4,157.3 L529.4,149.1 L533.1,133.8 L536.1,129.5 L538.5,128.5 L540.5,127.0 L544.3,118.9 L547.7,108.7 L550.2,100.6 L551.9,95.5 L553.8,90.2 L555.4,86.5 L559.6,79.9 L563.2,77.5 L566.0,74.9 L568.4,72.2 L570.0,71.7 L573.8,70.1 L579.2,66.9 L583.3,64.3 L585.7,62.7 L589.8,60.1 L594.4,58.5 L597.5,57.8 L599.8,56.8 L603.7,55.4 L608.1,54.3 L611.6,54.6 L614.4,56.3 L618.2,58.4 L622.8,61.0 L626.4,64.3 L629.0,68.9 L630.9,72.6 L634.9,80.9 L639.4,95.5 L642.5,97.6 L644.8,99.3 L648.6,103.9 L652.4,110.7 L655.3,115.6 L657.8,119.6 L659.4,121.8 L663.2,126.3 L667.3,125.9 L670.5,124.7 L672.9,124.3 L675.1,124.3 L679.0,124.0 L684.6,124.3 L688.7,124.2 L691.4,124.3 L696.0,123.9" class="series"/>
  <circle cx="68.0" cy="255.2" r="3.5" class="dot"><title>14:00 — 13,800</title></circle><circle cx="70.1" cy="254.3" r="3.5" class="dot"><title>17:20 — 29,700</title></circle><circle cx="71.1" cy="253.7" r="3.5" class="dot"><title>18:55 — 39,400</title></circle><circle cx="73.2" cy="252.5" r="3.5" class="dot"><title>22:16 — 59,494</title></circle><circle cx="73.3" cy="252.5" r="3.5" class="dot"><title>22:24 — 59,546</title></circle><circle cx="73.3" cy="252.5" r="3.5" class="dot"><title>22:27 — 59,750</title></circle><circle cx="73.5" cy="252.5" r="3.5" class="dot"><title>22:45 — 59,853</title></circle><circle cx="74.0" cy="252.5" r="3.5" class="dot"><title>23:38 — 61,184</title></circle><circle cx="75.5" cy="251.7" r="3.5" class="dot"><title>01:59 — 74,906</title></circle><circle cx="76.3" cy="251.6" r="3.5" class="dot"><title>03:18 — 75,776</title></circle><circle cx="77.3" cy="251.0" r="3.5" class="dot"><title>04:56 — 85,606</title></circle><circle cx="77.9" cy="250.7" r="3.5" class="dot"><title>05:50 — 91,187</title></circle><circle cx="78.7" cy="250.3" r="3.5" class="dot"><title>07:09 — 98,406</title></circle><circle cx="79.3" cy="249.9" r="3.5" class="dot"><title>08:00 — 104,806</title></circle><circle cx="81.0" cy="249.4" r="3.5" class="dot"><title>10:52 — 113,254</title></circle><circle cx="81.6" cy="249.3" r="3.5" class="dot"><title>11:45 — 115,558</title></circle><circle cx="82.6" cy="249.0" r="3.5" class="dot"><title>13:17 — 120,115</title></circle><circle cx="83.1" cy="248.9" r="3.5" class="dot"><title>14:08 — 122,982</title></circle><circle cx="84.2" cy="248.0" r="3.5" class="dot"><title>15:53 — 138,086</title></circle><circle cx="84.9" cy="247.4" r="3.5" class="dot"><title>17:00 — 147,866</title></circle><circle cx="86.3" cy="247.0" r="3.5" class="dot"><title>19:19 — 154,419</title></circle><circle cx="89.0" cy="246.7" r="3.5" class="dot"><title>23:33 — 160,768</title></circle><circle cx="93.2" cy="244.5" r="3.5" class="dot"><title>06:22 — 198,605</title></circle><circle cx="93.3" cy="244.5" r="3.5" class="dot"><title>06:25 — 198,912</title></circle><circle cx="95.4" cy="242.7" r="3.5" class="dot"><title>09:49 — 228,813</title></circle><circle cx="102.1" cy="235.7" r="3.5" class="dot"><title>20:30 — 350,106</title></circle><circle cx="107.6" cy="234.1" r="3.5" class="dot"><title>05:24 — 376,883</title></circle><circle cx="111.5" cy="228.9" r="3.5" class="dot"><title>11:36 — 467,610</title></circle><circle cx="111.6" cy="228.7" r="3.5" class="dot"><title>11:48 — 470,477</title></circle><circle cx="123.4" cy="213.2" r="3.5" class="dot"><title>06:33 — 737,894</title></circle><circle cx="123.5" cy="213.1" r="3.5" class="dot"><title>06:43 — 739,942</title></circle><circle cx="123.6" cy="213.0" r="3.5" class="dot"><title>06:51 — 741,120</title></circle><circle cx="124.9" cy="212.2" r="3.5" class="dot"><title>09:04 — 755,610</title></circle><circle cx="128.3" cy="211.2" r="3.5" class="dot"><title>14:29 — 771,738</title></circle><circle cx="130.8" cy="210.9" r="3.5" class="dot"><title>18:30 — 777,728</title></circle><circle cx="132.9" cy="210.8" r="3.5" class="dot"><title>21:45 — 779,520</title></circle><circle cx="138.5" cy="209.9" r="3.5" class="dot"><title>06:40 — 794,112</title></circle><circle cx="139.1" cy="209.9" r="3.5" class="dot"><title>07:40 — 795,290</title></circle><circle cx="145.2" cy="208.3" r="3.5" class="dot"><title>17:30 — 822,835</title></circle><circle cx="149.0" cy="203.9" r="3.5" class="dot"><title>23:30 — 897,434</title></circle><circle cx="152.8" cy="196.5" r="3.5" class="dot"><title>05:36 — 1,025,536</title></circle><circle cx="158.0" cy="181.4" r="3.5" class="dot"><title>13:52 — 1,286,554</title></circle><circle cx="164.2" cy="172.3" r="3.5" class="dot"><title>23:51 — 1,443,430</title></circle><circle cx="167.5" cy="171.2" r="3.5" class="dot"><title>05:09 — 1,461,402</title></circle><circle cx="177.9" cy="160.9" r="3.5" class="dot"><title>21:47 — 1,638,810</title></circle><circle cx="182.2" cy="160.8" r="3.5" class="dot"><title>04:42 — 1,641,114</title></circle><circle cx="185.3" cy="161.5" r="3.5" class="dot"><title>09:38 — 1,628,570</title></circle><circle cx="188.4" cy="162.1" r="3.5" class="dot"><title>14:32 — 1,619,046</title></circle><circle cx="191.0" cy="163.0" r="3.5" class="dot"><title>18:43 — 1,603,226</title></circle><circle cx="193.0" cy="163.0" r="3.5" class="dot"><title>21:50 — 1,603,533</title></circle><circle cx="194.5" cy="162.9" r="3.5" class="dot"><title>00:16 — 1,605,939</title></circle><circle cx="197.2" cy="162.2" r="3.5" class="dot"><title>04:39 — 1,616,589</title></circle><circle cx="200.5" cy="157.2" r="3.5" class="dot"><title>09:51 — 1,702,912</title></circle><circle cx="207.9" cy="147.5" r="3.5" class="dot"><title>21:43 — 1,871,309</title></circle><circle cx="209.4" cy="145.6" r="3.5" class="dot"><title>00:06 — 1,903,872</title></circle><circle cx="212.2" cy="141.9" r="3.5" class="dot"><title>04:34 — 1,966,848</title></circle><circle cx="218.3" cy="144.2" r="3.5" class="dot"><title>14:22 — 1,928,397</title></circle><circle cx="220.8" cy="145.4" r="3.5" class="dot"><title>18:24 — 1,907,558</title></circle><circle cx="222.8" cy="144.8" r="3.5" class="dot"><title>21:29 — 1,917,030</title></circle><circle cx="224.4" cy="144.4" r="3.5" class="dot"><title>00:07 — 1,923,840</title></circle><circle cx="227.1" cy="144.1" r="3.5" class="dot"><title>04:30 — 1,929,216</title></circle><circle cx="230.0" cy="144.0" r="3.5" class="dot"><title>09:05 — 1,930,291</title></circle><circle cx="232.3" cy="142.9" r="3.5" class="dot"><title>12:43 — 1,949,235</title></circle><circle cx="234.4" cy="142.0" r="3.5" class="dot"><title>16:05 — 1,966,285</title></circle><circle cx="235.8" cy="141.2" r="3.5" class="dot"><title>18:19 — 1,979,494</title></circle><circle cx="237.6" cy="139.5" r="3.5" class="dot"><title>21:15 — 2,008,064</title></circle><circle cx="238.7" cy="138.6" r="3.5" class="dot"><title>22:57 — 2,023,475</title></circle><circle cx="239.9" cy="137.7" r="3.5" class="dot"><title>00:58 — 2,040,166</title></circle><circle cx="243.1" cy="136.0" r="3.5" class="dot"><title>05:58 — 2,069,197</title></circle><circle cx="246.2" cy="133.5" r="3.5" class="dot"><title>10:57 — 2,112,154</title></circle><circle cx="248.2" cy="131.9" r="3.5" class="dot"><title>14:11 — 2,138,982</title></circle><circle cx="250.0" cy="130.5" r="3.5" class="dot"><title>17:03 — 2,163,149</title></circle><circle cx="251.3" cy="130.5" r="3.5" class="dot"><title>19:11 — 2,164,582</title></circle><circle cx="254.3" cy="131.7" r="3.5" class="dot"><title>23:55 — 2,142,464</title></circle><circle cx="257.3" cy="135.3" r="3.5" class="dot"><title>04:42 — 2,081,382</title></circle><circle cx="260.8" cy="142.6" r="3.5" class="dot"><title>10:19 — 1,955,430</title></circle><circle cx="264.6" cy="154.6" r="3.5" class="dot"><title>16:27 — 1,747,712</title></circle><circle cx="267.2" cy="156.7" r="3.5" class="dot"><title>20:34 — 1,712,691</title></circle><circle cx="269.0" cy="156.9" r="3.5" class="dot"><title>23:30 — 1,707,776</title></circle><circle cx="272.2" cy="156.9" r="3.5" class="dot"><title>04:37 — 1,708,134</title></circle><circle cx="275.4" cy="158.7" r="3.5" class="dot"><title>09:41 — 1,677,414</title></circle><circle cx="278.4" cy="165.0" r="3.5" class="dot"><title>14:33 — 1,569,024</title></circle><circle cx="281.0" cy="165.7" r="3.5" class="dot"><title>18:41 — 1,556,224</title></circle><circle cx="283.0" cy="166.5" r="3.5" class="dot"><title>21:51 — 1,543,219</title></circle><circle cx="284.5" cy="166.8" r="3.5" class="dot"><title>00:15 — 1,537,229</title></circle><circle cx="287.4" cy="167.6" r="3.5" class="dot"><title>04:48 — 1,524,992</title></circle><circle cx="290.5" cy="168.8" r="3.5" class="dot"><title>09:46 — 1,504,205</title></circle><circle cx="293.5" cy="168.8" r="3.5" class="dot"><title>14:36 — 1,503,027</title></circle><circle cx="296.0" cy="168.5" r="3.5" class="dot"><title>18:37 — 1,509,427</title></circle><circle cx="297.9" cy="167.8" r="3.5" class="dot"><title>21:42 — 1,521,203</title></circle><circle cx="299.5" cy="167.3" r="3.5" class="dot"><title>00:15 — 1,529,651</title></circle><circle cx="302.4" cy="167.5" r="3.5" class="dot"><title>04:50 — 1,526,682</title></circle><circle cx="305.5" cy="169.5" r="3.5" class="dot"><title>09:45 — 1,490,842</title></circle><circle cx="308.4" cy="172.6" r="3.5" class="dot"><title>14:27 — 1,438,259</title></circle><circle cx="310.9" cy="174.4" r="3.5" class="dot"><title>18:29 — 1,407,283</title></circle><circle cx="312.9" cy="175.9" r="3.5" class="dot"><title>21:38 — 1,380,198</title></circle><circle cx="314.5" cy="177.2" r="3.5" class="dot"><title>00:11 — 1,359,462</title></circle><circle cx="317.3" cy="178.4" r="3.5" class="dot"><title>04:41 — 1,337,344</title></circle><circle cx="320.4" cy="179.0" r="3.5" class="dot"><title>09:42 — 1,327,309</title></circle><circle cx="323.4" cy="178.9" r="3.5" class="dot"><title>14:26 — 1,328,794</title></circle><circle cx="333.0" cy="179.6" r="3.5" class="dot"><title>05:48 — 1,316,710</title></circle><circle cx="336.1" cy="177.8" r="3.5" class="dot"><title>10:47 — 1,347,533</title></circle><circle cx="338.2" cy="174.5" r="3.5" class="dot"><title>14:08 — 1,405,747</title></circle><circle cx="340.1" cy="174.6" r="3.5" class="dot"><title>17:11 — 1,402,624</title></circle><circle cx="341.5" cy="174.9" r="3.5" class="dot"><title>19:22 — 1,398,989</title></circle><circle cx="343.3" cy="175.0" r="3.5" class="dot"><title>22:18 — 1,396,838</title></circle><circle cx="345.0" cy="174.9" r="3.5" class="dot"><title>01:01 — 1,398,221</title></circle><circle cx="348.2" cy="171.7" r="3.5" class="dot"><title>06:10 — 1,453,363</title></circle><circle cx="351.8" cy="169.0" r="3.5" class="dot"><title>11:53 — 1,499,648</title></circle><circle cx="354.6" cy="167.0" r="3.5" class="dot"><title>16:18 — 1,535,232</title></circle><circle cx="356.5" cy="165.3" r="3.5" class="dot"><title>19:27 — 1,563,290</title></circle><circle cx="358.4" cy="164.1" r="3.5" class="dot"><title>22:25 — 1,585,050</title></circle><circle cx="360.1" cy="162.8" r="3.5" class="dot"><title>01:05 — 1,607,322</title></circle><circle cx="363.3" cy="160.2" r="3.5" class="dot"><title>06:18 — 1,651,610</title></circle><circle cx="368.2" cy="157.0" r="3.5" class="dot"><title>14:03 — 1,707,469</title></circle><circle cx="371.5" cy="154.4" r="3.5" class="dot"><title>19:22 — 1,751,706</title></circle><circle cx="373.9" cy="152.1" r="3.5" class="dot"><title>23:08 — 1,792,051</title></circle><circle cx="375.3" cy="150.6" r="3.5" class="dot"><title>01:28 — 1,816,422</title></circle><circle cx="379.2" cy="147.3" r="3.5" class="dot"><title>07:45 — 1,874,176</title></circle><circle cx="382.9" cy="145.9" r="3.5" class="dot"><title>13:34 — 1,897,830</title></circle><circle cx="385.8" cy="144.3" r="3.5" class="dot"><title>18:12 — 1,926,298</title></circle><circle cx="387.8" cy="143.8" r="3.5" class="dot"><title>21:22 — 1,934,234</title></circle><circle cx="389.6" cy="143.8" r="3.5" class="dot"><title>00:21 — 1,934,490</title></circle><circle cx="393.2" cy="143.8" r="3.5" class="dot"><title>06:02 — 1,933,722</title></circle><circle cx="396.7" cy="142.9" r="3.5" class="dot"><title>11:35 — 1,950,822</title></circle><circle cx="400.0" cy="141.0" r="3.5" class="dot"><title>16:56 — 1,983,181</title></circle><circle cx="402.0" cy="140.2" r="3.5" class="dot"><title>20:08 — 1,996,954</title></circle><circle cx="403.8" cy="139.6" r="3.5" class="dot"><title>22:56 — 2,006,989</title></circle><circle cx="409.2" cy="137.9" r="3.5" class="dot"><title>07:40 — 2,036,685</title></circle><circle cx="412.8" cy="136.9" r="3.5" class="dot"><title>13:28 — 2,054,093</title></circle><circle cx="415.8" cy="136.5" r="3.5" class="dot"><title>18:14 — 2,060,800</title></circle><circle cx="417.8" cy="136.2" r="3.5" class="dot"><title>21:25 — 2,065,869</title></circle><circle cx="419.6" cy="135.9" r="3.5" class="dot"><title>00:20 — 2,069,914</title></circle><circle cx="423.1" cy="136.1" r="3.5" class="dot"><title>05:55 — 2,067,558</title></circle><circle cx="426.5" cy="133.5" r="3.5" class="dot"><title>11:15 — 2,111,232</title></circle><circle cx="428.8" cy="130.9" r="3.5" class="dot"><title>15:01 — 2,157,517</title></circle><circle cx="431.0" cy="130.2" r="3.5" class="dot"><title>18:29 — 2,168,781</title></circle><circle cx="433.0" cy="130.1" r="3.5" class="dot"><title>21:41 — 2,169,958</title></circle><circle cx="434.7" cy="130.0" r="3.5" class="dot"><title>00:21 — 2,171,699</title></circle><circle cx="438.1" cy="132.0" r="3.5" class="dot"><title>05:54 — 2,137,600</title></circle><circle cx="441.3" cy="135.0" r="3.5" class="dot"><title>11:00 — 2,085,990</title></circle><circle cx="445.7" cy="140.5" r="3.5" class="dot"><title>18:02 — 1,991,526</title></circle><circle cx="448.9" cy="142.7" r="3.5" class="dot"><title>23:06 — 1,953,178</title></circle><circle cx="450.2" cy="143.4" r="3.5" class="dot"><title>01:10 — 1,940,531</title></circle><circle cx="453.4" cy="146.0" r="3.5" class="dot"><title>06:18 — 1,895,936</title></circle><circle cx="457.2" cy="148.3" r="3.5" class="dot"><title>12:22 — 1,856,768</title></circle><circle cx="459.9" cy="149.5" r="3.5" class="dot"><title>16:48 — 1,835,520</title></circle><circle cx="461.6" cy="150.2" r="3.5" class="dot"><title>19:27 — 1,823,642</title></circle><circle cx="463.5" cy="150.9" r="3.5" class="dot"><title>22:26 — 1,812,685</title></circle><circle cx="476.6" cy="160.0" r="3.5" class="dot"><title>19:28 — 1,654,989</title></circle><circle cx="479.0" cy="162.6" r="3.5" class="dot"><title>23:17 — 1,610,445</title></circle><circle cx="482.6" cy="166.3" r="3.5" class="dot"><title>04:57 — 1,546,547</title></circle><circle cx="485.7" cy="167.8" r="3.5" class="dot"><title>09:57 — 1,520,333</title></circle><circle cx="491.3" cy="170.7" r="3.5" class="dot"><title>18:55 — 1,471,539</title></circle><circle cx="493.3" cy="170.5" r="3.5" class="dot"><title>22:11 — 1,474,099</title></circle><circle cx="494.8" cy="170.8" r="3.5" class="dot"><title>00:33 — 1,468,621</title></circle><circle cx="498.2" cy="171.2" r="3.5" class="dot"><title>05:59 — 1,461,709</title></circle><circle cx="501.7" cy="171.3" r="3.5" class="dot"><title>11:37 — 1,460,224</title></circle><circle cx="505.1" cy="171.7" r="3.5" class="dot"><title>16:59 — 1,453,466</title></circle><circle cx="507.2" cy="170.2" r="3.5" class="dot"><title>20:22 — 1,479,014</title></circle><circle cx="509.3" cy="169.1" r="3.5" class="dot"><title>23:42 — 1,498,112</title></circle><circle cx="512.5" cy="168.4" r="3.5" class="dot"><title>04:51 — 1,510,298</title></circle><circle cx="515.7" cy="168.3" r="3.5" class="dot"><title>10:01 — 1,512,038</title></circle><circle cx="518.9" cy="166.5" r="3.5" class="dot"><title>15:07 — 1,542,554</title></circle><circle cx="520.9" cy="164.7" r="3.5" class="dot"><title>18:21 — 1,574,246</title></circle><circle cx="521.5" cy="164.0" r="3.5" class="dot"><title>19:10 — 1,586,278</title></circle><circle cx="523.5" cy="160.8" r="3.5" class="dot"><title>22:24 — 1,641,574</title></circle><circle cx="525.4" cy="157.3" r="3.5" class="dot"><title>01:31 — 1,701,990</title></circle><circle cx="529.4" cy="149.1" r="3.5" class="dot"><title>07:49 — 1,842,637</title></circle><circle cx="533.1" cy="133.8" r="3.5" class="dot"><title>13:48 — 2,106,778</title></circle><circle cx="536.1" cy="129.5" r="3.5" class="dot"><title>18:37 — 2,180,557</title></circle><circle cx="538.5" cy="128.5" r="3.5" class="dot"><title>22:21 — 2,198,426</title></circle><circle cx="540.5" cy="127.0" r="3.5" class="dot"><title>01:34 — 2,223,514</title></circle><circle cx="544.3" cy="118.9" r="3.5" class="dot"><title>07:42 — 2,363,136</title></circle><circle cx="547.7" cy="108.7" r="3.5" class="dot"><title>13:06 — 2,540,339</title></circle><circle cx="550.2" cy="100.6" r="3.5" class="dot"><title>17:11 — 2,679,347</title></circle><circle cx="551.9" cy="95.5" r="3.5" class="dot"><title>19:52 — 2,766,950</title></circle><circle cx="553.8" cy="90.2" r="3.5" class="dot"><title>22:52 — 2,857,779</title></circle><circle cx="555.4" cy="86.5" r="3.5" class="dot"><title>01:28 — 2,923,008</title></circle><circle cx="559.6" cy="79.9" r="3.5" class="dot"><title>08:11 — 3,036,928</title></circle><circle cx="563.2" cy="77.5" r="3.5" class="dot"><title>13:59 — 3,077,018</title></circle><circle cx="566.0" cy="74.9" r="3.5" class="dot"><title>18:24 — 3,122,688</title></circle><circle cx="568.4" cy="72.2" r="3.5" class="dot"><title>22:11 — 3,169,536</title></circle><circle cx="570.0" cy="71.7" r="3.5" class="dot"><title>00:47 — 3,176,909</title></circle><circle cx="573.8" cy="70.1" r="3.5" class="dot"><title>06:55 — 3,204,454</title></circle><circle cx="579.2" cy="66.9" r="3.5" class="dot"><title>15:28 — 3,260,723</title></circle><circle cx="583.3" cy="64.3" r="3.5" class="dot"><title>22:01 — 3,305,318</title></circle><circle cx="585.7" cy="62.7" r="3.5" class="dot"><title>01:57 — 3,333,427</title></circle><circle cx="589.8" cy="60.1" r="3.5" class="dot"><title>08:31 — 3,378,278</title></circle><circle cx="594.4" cy="58.5" r="3.5" class="dot"><title>15:52 — 3,405,056</title></circle><circle cx="597.5" cy="57.8" r="3.5" class="dot"><title>20:47 — 3,417,958</title></circle><circle cx="599.8" cy="56.8" r="3.5" class="dot"><title>00:27 — 3,433,830</title></circle><circle cx="603.7" cy="55.4" r="3.5" class="dot"><title>06:43 — 3,458,714</title></circle><circle cx="608.1" cy="54.3" r="3.5" class="dot"><title>13:44 — 3,476,890</title></circle><circle cx="611.6" cy="54.6" r="3.5" class="dot"><title>19:20 — 3,472,538</title></circle><circle cx="614.4" cy="56.3" r="3.5" class="dot"><title>23:50 — 3,443,558</title></circle><circle cx="618.2" cy="58.4" r="3.5" class="dot"><title>05:54 — 3,406,490</title></circle><circle cx="622.8" cy="61.0" r="3.5" class="dot"><title>13:16 — 3,361,434</title></circle><circle cx="626.4" cy="64.3" r="3.5" class="dot"><title>18:55 — 3,304,346</title></circle><circle cx="629.0" cy="68.9" r="3.5" class="dot"><title>23:12 — 3,225,754</title></circle><circle cx="630.9" cy="72.6" r="3.5" class="dot"><title>02:16 — 3,162,624</title></circle><circle cx="634.9" cy="80.9" r="3.5" class="dot"><title>08:38 — 3,018,189</title></circle><circle cx="639.4" cy="95.5" r="3.5" class="dot"><title>15:49 — 2,766,438</title></circle><circle cx="642.5" cy="97.6" r="3.5" class="dot"><title>20:45 — 2,730,650</title></circle><circle cx="644.8" cy="99.3" r="3.5" class="dot"><title>00:30 — 2,701,107</title></circle><circle cx="648.6" cy="103.9" r="3.5" class="dot"><title>06:33 — 2,621,594</title></circle><circle cx="652.4" cy="110.7" r="3.5" class="dot"><title>12:34 — 2,505,574</title></circle><circle cx="655.3" cy="115.6" r="3.5" class="dot"><title>17:17 — 2,421,504</title></circle><circle cx="657.8" cy="119.6" r="3.5" class="dot"><title>21:14 — 2,351,667</title></circle><circle cx="659.4" cy="121.8" r="3.5" class="dot"><title>23:47 — 2,314,291</title></circle><circle cx="663.2" cy="126.3" r="3.5" class="dot"><title>05:54 — 2,235,802</title></circle><circle cx="667.3" cy="125.9" r="3.5" class="dot"><title>12:22 — 2,243,686</title></circle><circle cx="670.5" cy="124.7" r="3.5" class="dot"><title>17:34 — 2,262,938</title></circle><circle cx="672.9" cy="124.3" r="3.5" class="dot"><title>21:25 — 2,270,515</title></circle><circle cx="675.1" cy="124.3" r="3.5" class="dot"><title>00:55 — 2,271,334</title></circle><circle cx="679.0" cy="124.0" r="3.5" class="dot"><title>07:03 — 2,276,403</title></circle><circle cx="684.6" cy="124.3" r="3.5" class="dot"><title>16:01 — 2,271,488</title></circle><circle cx="688.7" cy="124.2" r="3.5" class="dot"><title>22:37 — 2,271,949</title></circle><circle cx="691.4" cy="124.3" r="3.5" class="dot"><title>02:58 — 2,270,566</title></circle><circle cx="696.0" cy="123.9" r="5" class="dot dot-last"><title>10:18 — 2,277,837</title></circle>
  <text x="696.0" y="109.9" class="end-label" text-anchor="end">2,277,837</text>
  <line x1="68" y1="256" x2="696" y2="256" class="axis"/>
  
    <text x="68.0" y="278" class="tick" text-anchor="start">14:00</text>
    <text x="139.1" y="278" class="tick" text-anchor="middle">07:40</text>
    <text x="257.3" y="278" class="tick" text-anchor="middle">04:42</text>
    <text x="358.4" y="278" class="tick" text-anchor="middle">22:25</text>
    <text x="463.5" y="278" class="tick" text-anchor="middle">22:26</text>
    <text x="579.2" y="278" class="tick" text-anchor="middle">15:28</text>
    <text x="696.0" y="278" class="tick" text-anchor="end">10:18</text>
</svg>