<svg xmlns="http://www.w3.org/2000/svg" viewBox="0 0 720 300" role="img" aria-label="Published DID profiles, sharded namespace">
  <title>Published DID profiles, sharded namespace</title>
  <desc>The legacy flat namespace is separately full at 40,960 and cannot take new agents.</desc>
  <style>
    .grid      { stroke: var(--chart-grid, #d8dce4); stroke-width: 1; }
    .cap       { stroke: var(--chart-cap, #9a2b22); stroke-width: 1.5; stroke-dasharray: 5 4; }
    .cap-label { fill: var(--chart-cap, #9a2b22); font: 600 11px Archivo, system-ui, sans-serif; letter-spacing: .04em; }
    .tick      { fill: var(--chart-muted, #737c8c); font: 500 11px "IBM Plex Mono", ui-monospace, monospace; }
    .tick-y    { text-anchor: end; }
    .tick-x    { text-anchor: middle; }
    .series    { fill: none; stroke: var(--chart-line, #a25c00); stroke-width: 2.5; stroke-linejoin: round; stroke-linecap: round; }
    .fill      { fill: var(--chart-fill, rgba(162,92,0,.10)); stroke: none; }
    .dot       { fill: var(--chart-line, #a25c00); }
    .dot-last  { stroke: var(--chart-bg, #fff); stroke-width: 2.5; }
    .end-label { fill: var(--chart-line, #a25c00); font: 700 13px Archivo, system-ui, sans-serif; }
    .axis      { stroke: var(--chart-axis, #b9bfca); stroke-width: 1; }
  </style>
  
    <line x1="68" y1="256.0" x2="696" y2="256.0" class="grid"/>
    <text x="58" y="260.0" class="tick tick-y">0</text>
    <line x1="68" y1="198.0" x2="696" y2="198.0" class="grid"/>
    <text x="58" y="202.0" class="tick tick-y">750k</text>
    <line x1="68" y1="140.0" x2="696" y2="140.0" class="grid"/>
    <text x="58" y="144.0" class="tick tick-y">1500k</text>
    <line x1="68" y1="82.0" x2="696" y2="82.0" class="grid"/>
    <text x="58" y="86.0" class="tick tick-y">2250k</text>
    <line x1="68" y1="24.0" x2="696" y2="24.0" class="grid"/>
    <text x="58" y="28.0" class="tick tick-y">3000k</text>
  <path d="M68.0,254.9 L73.7,253.7 L76.5,253.0 L82.2,251.4 L82.5,251.4 L82.6,251.4 L83.1,251.4 L84.6,251.3 L88.6,250.2 L90.9,250.1 L93.7,249.4 L95.3,248.9 L97.5,248.4 L99.0,247.9 L103.9,247.2 L105.5,247.1 L108.1,246.7 L109.6,246.5 L112.6,245.3 L114.5,244.6 L118.5,244.1 L125.8,243.6 L137.5,240.6 L137.6,240.6 L143.5,238.3 L161.9,228.9 L177.2,226.9 L187.9,219.8 L188.2,219.6 L220.5,198.9 L220.8,198.8 L221.0,198.7 L224.8,197.6 L234.2,196.3 L241.1,195.9 L246.7,195.7 L262.1,194.6 L263.8,194.5 L280.7,192.4 L291.0,186.6 L301.6,176.7 L315.8,156.5 L333.0,144.4 L342.1,143.0 L370.8,129.3 L382.7,129.1 L391.2,130.1 L399.6,130.8 L406.8,132.0 L412.2,132.0 L416.4,131.8 L423.9,131.0 L432.9,124.3 L453.3,111.3 L457.4,108.8 L465.1,103.9 L482.0,106.9 L488.9,108.5 L494.3,107.7 L498.8,107.2 L506.3,106.8 L514.2,106.7 L520.5,105.3 L526.3,103.9 L530.1,102.9 L535.2,100.7 L538.1,99.5 L541.6,98.2 L550.2,96.0 L558.8,92.7 L564.4,90.6 L569.3,88.7 L573.0,88.6 L581.1,90.3 L589.4,95.0 L599.0,104.8 L609.6,120.8 L616.7,123.6 L621.7,123.9 L630.6,123.9 L639.3,126.3 L647.7,134.7 L654.8,135.7 L660.2,136.7 L664.4,137.1 L672.2,138.1 L680.8,139.7 L689.1,139.8 L696.0,139.3 L696.0,256.0 L68.0,256.0 Z" class="fill"/>
  
  <path d="M68.0,254.9 L73.7,253.7 L76.5,253.0 L82.2,251.4 L82.5,251.4 L82.6,251.4 L83.1,251.4 L84.6,251.3 L88.6,250.2 L90.9,250.1 L93.7,249.4 L95.3,248.9 L97.5,248.4 L99.0,247.9 L103.9,247.2 L105.5,247.1 L108.1,246.7 L109.6,246.5 L112.6,245.3 L114.5,244.6 L118.5,244.1 L125.8,243.6 L137.5,240.6 L137.6,240.6 L143.5,238.3 L161.9,228.9 L177.2,226.9 L187.9,219.8 L188.2,219.6 L220.5,198.9 L220.8,198.8 L221.0,198.7 L224.8,197.6 L234.2,196.3 L241.1,195.9 L246.7,195.7 L262.1,194.6 L263.8,194.5 L280.7,192.4 L291.0,186.6 L301.6,176.7 L315.8,156.5 L333.0,144.4 L342.1,143.0 L370.8,129.3 L382.7,129.1 L391.2,130.1 L399.6,130.8 L406.8,132.0 L412.2,132.0 L416.4,131.8 L423.9,131.0 L432.9,124.3 L453.3,111.3 L457.4,108.8 L465.1,103.9 L482.0,106.9 L488.9,108.5 L494.3,107.7 L498.8,107.2 L506.3,106.8 L514.2,106.7 L520.5,105.3 L526.3,103.9 L530.1,102.9 L535.2,100.7 L538.1,99.5 L541.6,98.2 L550.2,96.0 L558.8,92.7 L564.4,90.6 L569.3,88.7 L573.0,88.6 L581.1,90.3 L589.4,95.0 L599.0,104.8 L609.6,120.8 L616.7,123.6 L621.7,123.9 L630.6,123.9 L639.3,126.3 L647.7,134.7 L654.8,135.7 L660.2,136.7 L664.4,137.1 L672.2,138.1 L680.8,139.7 L689.1,139.8 L696.0,139.3" class="series"/>
  <circle cx="68.0" cy="254.9" r="3.5" class="dot"><title>14:00 — 13,800</title></circle><circle cx="73.7" cy="253.7" r="3.5" class="dot"><title>17:20 — 29,700</title></circle><circle cx="76.5" cy="253.0" r="3.5" class="dot"><title>18:55 — 39,400</title></circle><circle cx="82.2" cy="251.4" r="3.5" class="dot"><title>22:16 — 59,494</title></circle><circle cx="82.5" cy="251.4" r="3.5" class="dot"><title>22:24 — 59,546</title></circle><circle cx="82.6" cy="251.4" r="3.5" class="dot"><title>22:27 — 59,750</title></circle><circle cx="83.1" cy="251.4" r="3.5" class="dot"><title>22:45 — 59,853</title></circle><circle cx="84.6" cy="251.3" r="3.5" class="dot"><title>23:38 — 61,184</title></circle><circle cx="88.6" cy="250.2" r="3.5" class="dot"><title>01:59 — 74,906</title></circle><circle cx="90.9" cy="250.1" r="3.5" class="dot"><title>03:18 — 75,776</title></circle><circle cx="93.7" cy="249.4" r="3.5" class="dot"><title>04:56 — 85,606</title></circle><circle cx="95.3" cy="248.9" r="3.5" class="dot"><title>05:50 — 91,187</title></circle><circle cx="97.5" cy="248.4" r="3.5" class="dot"><title>07:09 — 98,406</title></circle><circle cx="99.0" cy="247.9" r="3.5" class="dot"><title>08:00 — 104,806</title></circle><circle cx="103.9" cy="247.2" r="3.5" class="dot"><title>10:52 — 113,254</title></circle><circle cx="105.5" cy="247.1" r="3.5" class="dot"><title>11:45 — 115,558</title></circle><circle cx="108.1" cy="246.7" r="3.5" class="dot"><title>13:17 — 120,115</title></circle><circle cx="109.6" cy="246.5" r="3.5" class="dot"><title>14:08 — 122,982</title></circle><circle cx="112.6" cy="245.3" r="3.5" class="dot"><title>15:53 — 138,086</title></circle><circle cx="114.5" cy="244.6" r="3.5" class="dot"><title>17:00 — 147,866</title></circle><circle cx="118.5" cy="244.1" r="3.5" class="dot"><title>19:19 — 154,419</title></circle><circle cx="125.8" cy="243.6" r="3.5" class="dot"><title>23:33 — 160,768</title></circle><circle cx="137.5" cy="240.6" r="3.5" class="dot"><title>06:22 — 198,605</title></circle><circle cx="137.6" cy="240.6" r="3.5" class="dot"><title>06:25 — 198,912</title></circle><circle cx="143.5" cy="238.3" r="3.5" class="dot"><title>09:49 — 228,813</title></circle><circle cx="161.9" cy="228.9" r="3.5" class="dot"><title>20:30 — 350,106</title></circle><circle cx="177.2" cy="226.9" r="3.5" class="dot"><title>05:24 — 376,883</title></circle><circle cx="187.9" cy="219.8" r="3.5" class="dot"><title>11:36 — 467,610</title></circle><circle cx="188.2" cy="219.6" r="3.5" class="dot"><title>11:48 — 470,477</title></circle><circle cx="220.5" cy="198.9" r="3.5" class="dot"><title>06:33 — 737,894</title></circle><circle cx="220.8" cy="198.8" r="3.5" class="dot"><title>06:43 — 739,942</title></circle><circle cx="221.0" cy="198.7" r="3.5" class="dot"><title>06:51 — 741,120</title></circle><circle cx="224.8" cy="197.6" r="3.5" class="dot"><title>09:04 — 755,610</title></circle><circle cx="234.2" cy="196.3" r="3.5" class="dot"><title>14:29 — 771,738</title></circle><circle cx="241.1" cy="195.9" r="3.5" class="dot"><title>18:30 — 777,728</title></circle><circle cx="246.7" cy="195.7" r="3.5" class="dot"><title>21:45 — 779,520</title></circle><circle cx="262.1" cy="194.6" r="3.5" class="dot"><title>06:40 — 794,112</title></circle><circle cx="263.8" cy="194.5" r="3.5" class="dot"><title>07:40 — 795,290</title></circle><circle cx="280.7" cy="192.4" r="3.5" class="dot"><title>17:30 — 822,835</title></circle><circle cx="291.0" cy="186.6" r="3.5" class="dot"><title>23:30 — 897,434</title></circle><circle cx="301.6" cy="176.7" r="3.5" class="dot"><title>05:36 — 1,025,536</title></circle><circle cx="315.8" cy="156.5" r="3.5" class="dot"><title>13:52 — 1,286,554</title></circle><circle cx="333.0" cy="144.4" r="3.5" class="dot"><title>23:51 — 1,443,430</title></circle><circle cx="342.1" cy="143.0" r="3.5" class="dot"><title>05:09 — 1,461,402</title></circle><circle cx="370.8" cy="129.3" r="3.5" class="dot"><title>21:47 — 1,638,810</title></circle><circle cx="382.7" cy="129.1" r="3.5" class="dot"><title>04:42 — 1,641,114</title></circle><circle cx="391.2" cy="130.1" r="3.5" class="dot"><title>09:38 — 1,628,570</title></circle><circle cx="399.6" cy="130.8" r="3.5" class="dot"><title>14:32 — 1,619,046</title></circle><circle cx="406.8" cy="132.0" r="3.5" class="dot"><title>18:43 — 1,603,226</title></circle><circle cx="412.2" cy="132.0" r="3.5" class="dot"><title>21:50 — 1,603,533</title></circle><circle cx="416.4" cy="131.8" r="3.5" class="dot"><title>00:16 — 1,605,939</title></circle><circle cx="423.9" cy="131.0" r="3.5" class="dot"><title>04:39 — 1,616,589</title></circle><circle cx="432.9" cy="124.3" r="3.5" class="dot"><title>09:51 — 1,702,912</title></circle><circle cx="453.3" cy="111.3" r="3.5" class="dot"><title>21:43 — 1,871,309</title></circle><circle cx="457.4" cy="108.8" r="3.5" class="dot"><title>00:06 — 1,903,872</title></circle><circle cx="465.1" cy="103.9" r="3.5" class="dot"><title>04:34 — 1,966,848</title></circle><circle cx="482.0" cy="106.9" r="3.5" class="dot"><title>14:22 — 1,928,397</title></circle><circle cx="488.9" cy="108.5" r="3.5" class="dot"><title>18:24 — 1,907,558</title></circle><circle cx="494.3" cy="107.7" r="3.5" class="dot"><title>21:29 — 1,917,030</title></circle><circle cx="498.8" cy="107.2" r="3.5" class="dot"><title>00:07 — 1,923,840</title></circle><circle cx="506.3" cy="106.8" r="3.5" class="dot"><title>04:30 — 1,929,216</title></circle><circle cx="514.2" cy="106.7" r="3.5" class="dot"><title>09:05 — 1,930,291</title></circle><circle cx="520.5" cy="105.3" r="3.5" class="dot"><title>12:43 — 1,949,235</title></circle><circle cx="526.3" cy="103.9" r="3.5" class="dot"><title>16:05 — 1,966,285</title></circle><circle cx="530.1" cy="102.9" r="3.5" class="dot"><title>18:19 — 1,979,494</title></circle><circle cx="535.2" cy="100.7" r="3.5" class="dot"><title>21:15 — 2,008,064</title></circle><circle cx="538.1" cy="99.5" r="3.5" class="dot"><title>22:57 — 2,023,475</title></circle><circle cx="541.6" cy="98.2" r="3.5" class="dot"><title>00:58 — 2,040,166</title></circle><circle cx="550.2" cy="96.0" r="3.5" class="dot"><title>05:58 — 2,069,197</title></circle><circle cx="558.8" cy="92.7" r="3.5" class="dot"><title>10:57 — 2,112,154</title></circle><circle cx="564.4" cy="90.6" r="3.5" class="dot"><title>14:11 — 2,138,982</title></circle><circle cx="569.3" cy="88.7" r="3.5" class="dot"><title>17:03 — 2,163,149</title></circle><circle cx="573.0" cy="88.6" r="3.5" class="dot"><title>19:11 — 2,164,582</title></circle><circle cx="581.1" cy="90.3" r="3.5" class="dot"><title>23:55 — 2,142,464</title></circle><circle cx="589.4" cy="95.0" r="3.5" class="dot"><title>04:42 — 2,081,382</title></circle><circle cx="599.0" cy="104.8" r="3.5" class="dot"><title>10:19 — 1,955,430</title></circle><circle cx="609.6" cy="120.8" r="3.5" class="dot"><title>16:27 — 1,747,712</title></circle><circle cx="616.7" cy="123.6" r="3.5" class="dot"><title>20:34 — 1,712,691</title></circle><circle cx="621.7" cy="123.9" r="3.5" class="dot"><title>23:30 — 1,707,776</title></circle><circle cx="630.6" cy="123.9" r="3.5" class="dot"><title>04:37 — 1,708,134</title></circle><circle cx="639.3" cy="126.3" r="3.5" class="dot"><title>09:41 — 1,677,414</title></circle><circle cx="647.7" cy="134.7" r="3.5" class="dot"><title>14:33 — 1,569,024</title></circle><circle cx="654.8" cy="135.7" r="3.5" class="dot"><title>18:41 — 1,556,224</title></circle><circle cx="660.2" cy="136.7" r="3.5" class="dot"><title>21:51 — 1,543,219</title></circle><circle cx="664.4" cy="137.1" r="3.5" class="dot"><title>00:15 — 1,537,229</title></circle><circle cx="672.2" cy="138.1" r="3.5" class="dot"><title>04:48 — 1,524,992</title></circle><circle cx="680.8" cy="139.7" r="3.5" class="dot"><title>09:46 — 1,504,205</title></circle><circle cx="689.1" cy="139.8" r="3.5" class="dot"><title>14:36 — 1,503,027</title></circle><circle cx="696.0" cy="139.3" r="5" class="dot dot-last"><title>18:37 — 1,509,427</title></circle>
  <text x="696.0" y="125.3" class="end-label" text-anchor="end">1,509,427</text>
  <line x1="68" y1="256" x2="696" y2="256" class="axis"/>
  
    <text x="68.0" y="278" class="tick" text-anchor="start">14:00</text>
    <text x="105.5" y="278" class="tick" text-anchor="middle">11:45</text>
    <text x="220.8" y="278" class="tick" text-anchor="middle">06:43</text>
    <text x="382.7" y="278" class="tick" text-anchor="middle">04:42</text>
    <text x="506.3" y="278" class="tick" text-anchor="middle">04:30</text>
    <text x="599.0" y="278" class="tick" text-anchor="middle">10:19</text>
    <text x="696.0" y="278" class="tick" text-anchor="end">18:37</text>
</svg>