<svg xmlns="http://www.w3.org/2000/svg" viewBox="0 0 720 300" role="img" aria-label="/r/lobby messages per minute">
  <title>/r/lobby messages per minute</title>
  <desc>Instantaneous rate over a 20-second window. Up 17% over the last quarter of the window, 1,154/min at the last reading.</desc>
  <style>
    .grid      { stroke: var(--chart-grid, #d8dce4); stroke-width: 1; }
    .cap       { stroke: var(--chart-cap, #9a2b22); stroke-width: 1.5; stroke-dasharray: 5 4; }
    .cap-label { fill: var(--chart-cap, #9a2b22); font: 600 11px Archivo, system-ui, sans-serif; letter-spacing: .04em; }
    .tick      { fill: var(--chart-muted, #737c8c); font: 500 11px "IBM Plex Mono", ui-monospace, monospace; }
    .tick-y    { text-anchor: end; }
    .tick-x    { text-anchor: middle; }
    .series    { fill: none; stroke: var(--chart-line, #a25c00); stroke-width: 2.5; stroke-linejoin: round; stroke-linecap: round; }
    .fill      { fill: var(--chart-fill, rgba(162,92,0,.10)); stroke: none; }
    .dot       { fill: var(--chart-line, #a25c00); }
    .dot-last  { stroke: var(--chart-bg, #fff); stroke-width: 2.5; }
    .end-label { fill: var(--chart-line, #a25c00); font: 700 13px Archivo, system-ui, sans-serif; }
    .axis      { stroke: var(--chart-axis, #b9bfca); stroke-width: 1; }
  </style>
  
    <line x1="68" y1="256.0" x2="696" y2="256.0" class="grid"/>
    <text x="58" y="260.0" class="tick tick-y">0</text>
    <line x1="68" y1="198.0" x2="696" y2="198.0" class="grid"/>
    <text x="58" y="202.0" class="tick tick-y">1.3k</text>
    <line x1="68" y1="140.0" x2="696" y2="140.0" class="grid"/>
    <text x="58" y="144.0" class="tick tick-y">2.5k</text>
    <line x1="68" y1="82.0" x2="696" y2="82.0" class="grid"/>
    <text x="58" y="86.0" class="tick tick-y">3.8k</text>
    <line x1="68" y1="24.0" x2="696" y2="24.0" class="grid"/>
    <text x="58" y="28.0" class="tick tick-y">5.0k</text>
  <path d="M68.0,216.1 L70.4,193.4 L73.9,232.1 L74.0,237.2 L74.1,231.6 L74.3,232.6 L74.9,229.9 L76.6,205.8 L77.6,199.9 L78.7,197.1 L79.4,202.9 L80.3,197.0 L80.9,180.8 L83.0,200.7 L83.6,194.5 L84.7,174.7 L85.3,170.9 L86.6,196.4 L87.4,166.8 L89.1,174.1 L92.1,179.8 L97.0,133.0 L97.0,128.1 L99.5,121.5 L107.2,204.5 L113.6,198.0 L118.0,192.1 L118.2,190.3 L131.6,180.8 L131.8,187.6 L131.9,176.8 L133.4,179.8 L137.3,192.2 L140.2,205.7 L142.6,172.7 L149.0,128.2 L149.7,94.9 L156.8,116.1 L165.5,110.4 L171.4,133.0 L178.6,162.2 L182.4,167.5 L194.3,147.9 L199.3,209.9 L202.8,135.5 L206.4,181.4 L209.4,86.2 L211.6,200.1 L213.4,181.8 L216.5,208.7 L220.3,143.3 L228.8,200.7 L230.5,222.0 L233.7,162.8 L240.7,164.5 L243.6,126.9 L245.9,165.6 L247.8,134.0 L250.9,139.8 L254.2,111.3 L256.8,149.6 L259.2,236.0 L260.8,91.9 L262.9,131.1 L264.2,116.5 L265.6,158.8 L269.2,157.5 L272.8,53.9 L275.1,55.1 L277.2,87.9 L278.7,114.2 L282.1,174.8 L285.5,185.3 L289.6,143.7 L294.0,137.7 L296.9,206.7 L299.1,211.6 L302.7,179.2 L306.4,194.5 L309.9,198.5 L312.8,209.4 L315.1,215.4 L316.8,216.8 L320.1,187.3 L323.7,198.2 L327.2,154.2 L330.0,169.0 L332.3,178.4 L334.1,177.6 L337.4,164.2 L340.9,174.2 L344.3,143.2 L347.2,103.5 L349.5,160.2 L351.3,154.2 L354.5,209.9 L358.1,168.2 L361.5,187.4 L372.6,194.2 L376.2,174.5 L378.6,207.8 L380.8,205.6 L382.3,189.8 L384.4,207.3 L386.4,227.6 L390.1,209.2 L394.2,198.9 L397.4,205.6 L399.6,239.2 L401.8,207.4 L403.7,210.1 L407.4,188.9 L413.0,216.2 L416.8,208.0 L419.5,199.3 L421.2,203.6 L425.7,216.7 L429.9,203.6 L433.2,204.2 L435.5,214.4 L437.6,166.6 L441.7,220.4 L445.7,205.0 L449.6,188.8 L451.9,193.7 L453.9,205.9 L460.2,201.9 L464.3,180.1 L467.7,208.7 L470.0,209.5 L472.1,212.4 L476.1,213.5 L480.0,217.3 L482.7,217.1 L485.2,214.7 L487.5,221.1 L489.4,224.2 L493.4,165.7 L497.0,207.3 L505.7,196.6 L510.9,221.5 L515.3,205.8 L518.5,216.0 L520.4,210.2 L522.5,229.1 L537.6,202.5 L540.4,222.0 L544.4,201.9 L548.0,221.1 L554.5,182.5 L556.8,233.9 L558.5,231.2 L562.4,177.6 L566.5,215.8 L570.3,210.7 L572.8,220.6 L575.2,209.8 L578.9,208.7 L582.6,210.6 L586.2,186.9 L588.6,209.3 L589.2,196.6 L591.5,190.1 L593.7,194.6 L598.2,184.2 L602.5,182.9 L606.0,206.4 L608.7,212.6 L611.0,197.9 L615.4,195.4 L619.3,176.5 L622.2,180.3 L624.2,189.1 L626.3,193.4 L628.2,196.1 L633.0,192.1 L637.2,205.8 L640.4,211.8 L643.1,178.4 L644.9,200.6 L649.3,180.2 L655.5,159.5 L660.2,187.5 L663.0,194.4 L667.7,201.9 L673.0,202.0 L676.6,193.3 L679.2,216.2 L683.7,191.9 L688.7,200.5 L692.8,209.0 L696.0,202.5 L696.0,256.0 L68.0,256.0 Z" class="fill"/>
  
  <path d="M68.0,216.1 L70.4,193.4 L73.9,232.1 L74.0,237.2 L74.1,231.6 L74.3,232.6 L74.9,229.9 L76.6,205.8 L77.6,199.9 L78.7,197.1 L79.4,202.9 L80.3,197.0 L80.9,180.8 L83.0,200.7 L83.6,194.5 L84.7,174.7 L85.3,170.9 L86.6,196.4 L87.4,166.8 L89.1,174.1 L92.1,179.8 L97.0,133.0 L97.0,128.1 L99.5,121.5 L107.2,204.5 L113.6,198.0 L118.0,192.1 L118.2,190.3 L131.6,180.8 L131.8,187.6 L131.9,176.8 L133.4,179.8 L137.3,192.2 L140.2,205.7 L142.6,172.7 L149.0,128.2 L149.7,94.9 L156.8,116.1 L165.5,110.4 L171.4,133.0 L178.6,162.2 L182.4,167.5 L194.3,147.9 L199.3,209.9 L202.8,135.5 L206.4,181.4 L209.4,86.2 L211.6,200.1 L213.4,181.8 L216.5,208.7 L220.3,143.3 L228.8,200.7 L230.5,222.0 L233.7,162.8 L240.7,164.5 L243.6,126.9 L245.9,165.6 L247.8,134.0 L250.9,139.8 L254.2,111.3 L256.8,149.6 L259.2,236.0 L260.8,91.9 L262.9,131.1 L264.2,116.5 L265.6,158.8 L269.2,157.5 L272.8,53.9 L275.1,55.1 L277.2,87.9 L278.7,114.2 L282.1,174.8 L285.5,185.3 L289.6,143.7 L294.0,137.7 L296.9,206.7 L299.1,211.6 L302.7,179.2 L306.4,194.5 L309.9,198.5 L312.8,209.4 L315.1,215.4 L316.8,216.8 L320.1,187.3 L323.7,198.2 L327.2,154.2 L330.0,169.0 L332.3,178.4 L334.1,177.6 L337.4,164.2 L340.9,174.2 L344.3,143.2 L347.2,103.5 L349.5,160.2 L351.3,154.2 L354.5,209.9 L358.1,168.2 L361.5,187.4 L372.6,194.2 L376.2,174.5 L378.6,207.8 L380.8,205.6 L382.3,189.8 L384.4,207.3 L386.4,227.6 L390.1,209.2 L394.2,198.9 L397.4,205.6 L399.6,239.2 L401.8,207.4 L403.7,210.1 L407.4,188.9 L413.0,216.2 L416.8,208.0 L419.5,199.3 L421.2,203.6 L425.7,216.7 L429.9,203.6 L433.2,204.2 L435.5,214.4 L437.6,166.6 L441.7,220.4 L445.7,205.0 L449.6,188.8 L451.9,193.7 L453.9,205.9 L460.2,201.9 L464.3,180.1 L467.7,208.7 L470.0,209.5 L472.1,212.4 L476.1,213.5 L480.0,217.3 L482.7,217.1 L485.2,214.7 L487.5,221.1 L489.4,224.2 L493.4,165.7 L497.0,207.3 L505.7,196.6 L510.9,221.5 L515.3,205.8 L518.5,216.0 L520.4,210.2 L522.5,229.1 L537.6,202.5 L540.4,222.0 L544.4,201.9 L548.0,221.1 L554.5,182.5 L556.8,233.9 L558.5,231.2 L562.4,177.6 L566.5,215.8 L570.3,210.7 L572.8,220.6 L575.2,209.8 L578.9,208.7 L582.6,210.6 L586.2,186.9 L588.6,209.3 L589.2,196.6 L591.5,190.1 L593.7,194.6 L598.2,184.2 L602.5,182.9 L606.0,206.4 L608.7,212.6 L611.0,197.9 L615.4,195.4 L619.3,176.5 L622.2,180.3 L624.2,189.1 L626.3,193.4 L628.2,196.1 L633.0,192.1 L637.2,205.8 L640.4,211.8 L643.1,178.4 L644.9,200.6 L649.3,180.2 L655.5,159.5 L660.2,187.5 L663.0,194.4 L667.7,201.9 L673.0,202.0 L676.6,193.3 L679.2,216.2 L683.7,191.9 L688.7,200.5 L692.8,209.0 L696.0,202.5" class="series"/>
  <circle cx="68.0" cy="216.1" r="3.5" class="dot"><title>14:00 — 860/min</title></circle><circle cx="70.4" cy="193.4" r="3.5" class="dot"><title>17:20 — 1,350/min</title></circle><circle cx="73.9" cy="232.1" r="3.5" class="dot"><title>22:16 — 515/min</title></circle><circle cx="74.0" cy="237.2" r="3.5" class="dot"><title>22:24 — 405/min</title></circle><circle cx="74.1" cy="231.6" r="3.5" class="dot"><title>22:27 — 526/min</title></circle><circle cx="74.3" cy="232.6" r="3.5" class="dot"><title>22:45 — 505/min</title></circle><circle cx="74.9" cy="229.9" r="3.5" class="dot"><title>23:38 — 562/min</title></circle><circle cx="76.6" cy="205.8" r="3.5" class="dot"><title>01:59 — 1,081/min</title></circle><circle cx="77.6" cy="199.9" r="3.5" class="dot"><title>03:18 — 1,210/min</title></circle><circle cx="78.7" cy="197.1" r="3.5" class="dot"><title>04:56 — 1,270/min</title></circle><circle cx="79.4" cy="202.9" r="3.5" class="dot"><title>05:50 — 1,145/min</title></circle><circle cx="80.3" cy="197.0" r="3.5" class="dot"><title>07:09 — 1,271/min</title></circle><circle cx="80.9" cy="180.8" r="3.5" class="dot"><title>08:00 — 1,620/min</title></circle><circle cx="83.0" cy="200.7" r="3.5" class="dot"><title>10:52 — 1,191/min</title></circle><circle cx="83.6" cy="194.5" r="3.5" class="dot"><title>11:45 — 1,325/min</title></circle><circle cx="84.7" cy="174.7" r="3.5" class="dot"><title>13:17 — 1,753/min</title></circle><circle cx="85.3" cy="170.9" r="3.5" class="dot"><title>14:08 — 1,834/min</title></circle><circle cx="86.6" cy="196.4" r="3.5" class="dot"><title>15:53 — 1,285/min</title></circle><circle cx="87.4" cy="166.8" r="3.5" class="dot"><title>17:00 — 1,923/min</title></circle><circle cx="89.1" cy="174.1" r="3.5" class="dot"><title>19:19 — 1,766/min</title></circle><circle cx="92.1" cy="179.8" r="3.5" class="dot"><title>23:33 — 1,642/min</title></circle><circle cx="97.0" cy="133.0" r="3.5" class="dot"><title>06:22 — 2,650/min</title></circle><circle cx="97.0" cy="128.1" r="3.5" class="dot"><title>06:25 — 2,756/min</title></circle><circle cx="99.5" cy="121.5" r="3.5" class="dot"><title>09:49 — 2,899/min</title></circle><circle cx="107.2" cy="204.5" r="3.5" class="dot"><title>20:30 — 1,109/min</title></circle><circle cx="113.6" cy="198.0" r="3.5" class="dot"><title>05:24 — 1,250/min</title></circle><circle cx="118.0" cy="192.1" r="3.5" class="dot"><title>11:36 — 1,378/min</title></circle><circle cx="118.2" cy="190.3" r="3.5" class="dot"><title>11:48 — 1,417/min</title></circle><circle cx="131.6" cy="180.8" r="3.5" class="dot"><title>06:33 — 1,620/min</title></circle><circle cx="131.8" cy="187.6" r="3.5" class="dot"><title>06:43 — 1,474/min</title></circle><circle cx="131.9" cy="176.8" r="3.5" class="dot"><title>06:51 — 1,706/min</title></circle><circle cx="133.4" cy="179.8" r="3.5" class="dot"><title>09:04 — 1,643/min</title></circle><circle cx="137.3" cy="192.2" r="3.5" class="dot"><title>14:29 — 1,376/min</title></circle><circle cx="140.2" cy="205.7" r="3.5" class="dot"><title>18:30 — 1,085/min</title></circle><circle cx="142.6" cy="172.7" r="3.5" class="dot"><title>21:45 — 1,796/min</title></circle><circle cx="149.0" cy="128.2" r="3.5" class="dot"><title>06:40 — 2,755/min</title></circle><circle cx="149.7" cy="94.9" r="3.5" class="dot"><title>07:40 — 3,473/min</title></circle><circle cx="156.8" cy="116.1" r="3.5" class="dot"><title>17:30 — 3,015/min</title></circle><circle cx="165.5" cy="110.4" r="3.5" class="dot"><title>05:36 — 3,137/min</title></circle><circle cx="171.4" cy="133.0" r="3.5" class="dot"><title>13:52 — 2,651/min</title></circle><circle cx="178.6" cy="162.2" r="3.5" class="dot"><title>23:51 — 2,022/min</title></circle><circle cx="182.4" cy="167.5" r="3.5" class="dot"><title>05:09 — 1,908/min</title></circle><circle cx="194.3" cy="147.9" r="3.5" class="dot"><title>21:47 — 2,329/min</title></circle><circle cx="199.3" cy="209.9" r="3.5" class="dot"><title>04:42 — 993/min</title></circle><circle cx="202.8" cy="135.5" r="3.5" class="dot"><title>09:38 — 2,597/min</title></circle><circle cx="206.4" cy="181.4" r="3.5" class="dot"><title>14:32 — 1,607/min</title></circle><circle cx="209.4" cy="86.2" r="3.5" class="dot"><title>18:43 — 3,660/min</title></circle><circle cx="211.6" cy="200.1" r="3.5" class="dot"><title>21:50 — 1,204/min</title></circle><circle cx="213.4" cy="181.8" r="3.5" class="dot"><title>00:16 — 1,600/min</title></circle><circle cx="216.5" cy="208.7" r="3.5" class="dot"><title>04:39 — 1,020/min</title></circle><circle cx="220.3" cy="143.3" r="3.5" class="dot"><title>09:51 — 2,429/min</title></circle><circle cx="228.8" cy="200.7" r="3.5" class="dot"><title>21:43 — 1,191/min</title></circle><circle cx="230.5" cy="222.0" r="3.5" class="dot"><title>00:06 — 733/min</title></circle><circle cx="233.7" cy="162.8" r="3.5" class="dot"><title>04:34 — 2,009/min</title></circle><circle cx="240.7" cy="164.5" r="3.5" class="dot"><title>14:22 — 1,973/min</title></circle><circle cx="243.6" cy="126.9" r="3.5" class="dot"><title>18:24 — 2,783/min</title></circle><circle cx="245.9" cy="165.6" r="3.5" class="dot"><title>21:29 — 1,949/min</title></circle><circle cx="247.8" cy="134.0" r="3.5" class="dot"><title>00:07 — 2,629/min</title></circle><circle cx="250.9" cy="139.8" r="3.5" class="dot"><title>04:30 — 2,505/min</title></circle><circle cx="254.2" cy="111.3" r="3.5" class="dot"><title>09:05 — 3,118/min</title></circle><circle cx="256.8" cy="149.6" r="3.5" class="dot"><title>12:43 — 2,294/min</title></circle><circle cx="259.2" cy="236.0" r="3.5" class="dot"><title>16:05 — 430/min</title></circle><circle cx="260.8" cy="91.9" r="3.5" class="dot"><title>18:19 — 3,536/min</title></circle><circle cx="262.9" cy="131.1" r="3.5" class="dot"><title>21:15 — 2,692/min</title></circle><circle cx="264.2" cy="116.5" r="3.5" class="dot"><title>22:57 — 3,007/min</title></circle><circle cx="265.6" cy="158.8" r="3.5" class="dot"><title>00:58 — 2,094/min</title></circle><circle cx="269.2" cy="157.5" r="3.5" class="dot"><title>05:58 — 2,123/min</title></circle><circle cx="272.8" cy="53.9" r="3.5" class="dot"><title>10:57 — 4,356/min</title></circle><circle cx="275.1" cy="55.1" r="3.5" class="dot"><title>14:11 — 4,330/min</title></circle><circle cx="277.2" cy="87.9" r="3.5" class="dot"><title>17:03 — 3,622/min</title></circle><circle cx="278.7" cy="114.2" r="3.5" class="dot"><title>19:11 — 3,055/min</title></circle><circle cx="282.1" cy="174.8" r="3.5" class="dot"><title>23:55 — 1,751/min</title></circle><circle cx="285.5" cy="185.3" r="3.5" class="dot"><title>04:42 — 1,523/min</title></circle><circle cx="289.6" cy="143.7" r="3.5" class="dot"><title>10:19 — 2,421/min</title></circle><circle cx="294.0" cy="137.7" r="3.5" class="dot"><title>16:27 — 2,550/min</title></circle><circle cx="296.9" cy="206.7" r="3.5" class="dot"><title>20:34 — 1,063/min</title></circle><circle cx="299.1" cy="211.6" r="3.5" class="dot"><title>23:30 — 957/min</title></circle><circle cx="302.7" cy="179.2" r="3.5" class="dot"><title>04:37 — 1,656/min</title></circle><circle cx="306.4" cy="194.5" r="3.5" class="dot"><title>09:41 — 1,326/min</title></circle><circle cx="309.9" cy="198.5" r="3.5" class="dot"><title>14:33 — 1,240/min</title></circle><circle cx="312.8" cy="209.4" r="3.5" class="dot"><title>18:41 — 1,005/min</title></circle><circle cx="315.1" cy="215.4" r="3.5" class="dot"><title>21:51 — 874/min</title></circle><circle cx="316.8" cy="216.8" r="3.5" class="dot"><title>00:15 — 845/min</title></circle><circle cx="320.1" cy="187.3" r="3.5" class="dot"><title>04:48 — 1,480/min</title></circle><circle cx="323.7" cy="198.2" r="3.5" class="dot"><title>09:46 — 1,246/min</title></circle><circle cx="327.2" cy="154.2" r="3.5" class="dot"><title>14:36 — 2,193/min</title></circle><circle cx="330.0" cy="169.0" r="3.5" class="dot"><title>18:37 — 1,876/min</title></circle><circle cx="332.3" cy="178.4" r="3.5" class="dot"><title>21:42 — 1,672/min</title></circle><circle cx="334.1" cy="177.6" r="3.5" class="dot"><title>00:15 — 1,690/min</title></circle><circle cx="337.4" cy="164.2" r="3.5" class="dot"><title>04:50 — 1,978/min</title></circle><circle cx="340.9" cy="174.2" r="3.5" class="dot"><title>09:45 — 1,762/min</title></circle><circle cx="344.3" cy="143.2" r="3.5" class="dot"><title>14:27 — 2,431/min</title></circle><circle cx="347.2" cy="103.5" r="3.5" class="dot"><title>18:29 — 3,286/min</title></circle><circle cx="349.5" cy="160.2" r="3.5" class="dot"><title>21:38 — 2,064/min</title></circle><circle cx="351.3" cy="154.2" r="3.5" class="dot"><title>00:11 — 2,194/min</title></circle><circle cx="354.5" cy="209.9" r="3.5" class="dot"><title>04:41 — 994/min</title></circle><circle cx="358.1" cy="168.2" r="3.5" class="dot"><title>09:42 — 1,893/min</title></circle><circle cx="361.5" cy="187.4" r="3.5" class="dot"><title>14:26 — 1,478/min</title></circle><circle cx="372.6" cy="194.2" r="3.5" class="dot"><title>05:48 — 1,331/min</title></circle><circle cx="376.2" cy="174.5" r="3.5" class="dot"><title>10:47 — 1,757/min</title></circle><circle cx="378.6" cy="207.8" r="3.5" class="dot"><title>14:08 — 1,039/min</title></circle><circle cx="380.8" cy="205.6" r="3.5" class="dot"><title>17:11 — 1,087/min</title></circle><circle cx="382.3" cy="189.8" r="3.5" class="dot"><title>19:22 — 1,427/min</title></circle><circle cx="384.4" cy="207.3" r="3.5" class="dot"><title>22:18 — 1,050/min</title></circle><circle cx="386.4" cy="227.6" r="3.5" class="dot"><title>01:01 — 612/min</title></circle><circle cx="390.1" cy="209.2" r="3.5" class="dot"><title>06:10 — 1,008/min</title></circle><circle cx="394.2" cy="198.9" r="3.5" class="dot"><title>11:53 — 1,230/min</title></circle><circle cx="397.4" cy="205.6" r="3.5" class="dot"><title>16:18 — 1,086/min</title></circle><circle cx="399.6" cy="239.2" r="3.5" class="dot"><title>19:27 — 361/min</title></circle><circle cx="401.8" cy="207.4" r="3.5" class="dot"><title>22:25 — 1,047/min</title></circle><circle cx="403.7" cy="210.1" r="3.5" class="dot"><title>01:05 — 989/min</title></circle><circle cx="407.4" cy="188.9" r="3.5" class="dot"><title>06:18 — 1,446/min</title></circle><circle cx="413.0" cy="216.2" r="3.5" class="dot"><title>14:03 — 857/min</title></circle><circle cx="416.8" cy="208.0" r="3.5" class="dot"><title>19:22 — 1,035/min</title></circle><circle cx="419.5" cy="199.3" r="3.5" class="dot"><title>23:08 — 1,222/min</title></circle><circle cx="421.2" cy="203.6" r="3.5" class="dot"><title>01:28 — 1,129/min</title></circle><circle cx="425.7" cy="216.7" r="3.5" class="dot"><title>07:45 — 846/min</title></circle><circle cx="429.9" cy="203.6" r="3.5" class="dot"><title>13:34 — 1,129/min</title></circle><circle cx="433.2" cy="204.2" r="3.5" class="dot"><title>18:12 — 1,116/min</title></circle><circle cx="435.5" cy="214.4" r="3.5" class="dot"><title>21:22 — 897/min</title></circle><circle cx="437.6" cy="166.6" r="3.5" class="dot"><title>00:21 — 1,926/min</title></circle><circle cx="441.7" cy="220.4" r="3.5" class="dot"><title>06:02 — 767/min</title></circle><circle cx="445.7" cy="205.0" r="3.5" class="dot"><title>11:35 — 1,100/min</title></circle><circle cx="449.6" cy="188.8" r="3.5" class="dot"><title>16:56 — 1,448/min</title></circle><circle cx="451.9" cy="193.7" r="3.5" class="dot"><title>20:08 — 1,342/min</title></circle><circle cx="453.9" cy="205.9" r="3.5" class="dot"><title>22:56 — 1,079/min</title></circle><circle cx="460.2" cy="201.9" r="3.5" class="dot"><title>07:40 — 1,166/min</title></circle><circle cx="464.3" cy="180.1" r="3.5" class="dot"><title>13:28 — 1,635/min</title></circle><circle cx="467.7" cy="208.7" r="3.5" class="dot"><title>18:14 — 1,020/min</title></circle><circle cx="470.0" cy="209.5" r="3.5" class="dot"><title>21:25 — 1,002/min</title></circle><circle cx="472.1" cy="212.4" r="3.5" class="dot"><title>00:20 — 940/min</title></circle><circle cx="476.1" cy="213.5" r="3.5" class="dot"><title>05:55 — 915/min</title></circle><circle cx="480.0" cy="217.3" r="3.5" class="dot"><title>11:15 — 834/min</title></circle><circle cx="482.7" cy="217.1" r="3.5" class="dot"><title>15:01 — 838/min</title></circle><circle cx="485.2" cy="214.7" r="3.5" class="dot"><title>18:29 — 890/min</title></circle><circle cx="487.5" cy="221.1" r="3.5" class="dot"><title>21:41 — 753/min</title></circle><circle cx="489.4" cy="224.2" r="3.5" class="dot"><title>00:21 — 686/min</title></circle><circle cx="493.4" cy="165.7" r="3.5" class="dot"><title>05:54 — 1,946/min</title></circle><circle cx="497.0" cy="207.3" r="3.5" class="dot"><title>11:00 — 1,050/min</title></circle><circle cx="505.7" cy="196.6" r="3.5" class="dot"><title>23:06 — 1,281/min</title></circle><circle cx="510.9" cy="221.5" r="3.5" class="dot"><title>06:18 — 744/min</title></circle><circle cx="515.3" cy="205.8" r="3.5" class="dot"><title>12:22 — 1,082/min</title></circle><circle cx="518.5" cy="216.0" r="3.5" class="dot"><title>16:48 — 862/min</title></circle><circle cx="520.4" cy="210.2" r="3.5" class="dot"><title>19:27 — 988/min</title></circle><circle cx="522.5" cy="229.1" r="3.5" class="dot"><title>22:26 — 580/min</title></circle><circle cx="537.6" cy="202.5" r="3.5" class="dot"><title>19:28 — 1,153/min</title></circle><circle cx="540.4" cy="222.0" r="3.5" class="dot"><title>23:17 — 732/min</title></circle><circle cx="544.4" cy="201.9" r="3.5" class="dot"><title>04:57 — 1,165/min</title></circle><circle cx="548.0" cy="221.1" r="3.5" class="dot"><title>09:57 — 752/min</title></circle><circle cx="554.5" cy="182.5" r="3.5" class="dot"><title>18:55 — 1,584/min</title></circle><circle cx="556.8" cy="233.9" r="3.5" class="dot"><title>22:11 — 476/min</title></circle><circle cx="558.5" cy="231.2" r="3.5" class="dot"><title>00:33 — 535/min</title></circle><circle cx="562.4" cy="177.6" r="3.5" class="dot"><title>05:59 — 1,690/min</title></circle><circle cx="566.5" cy="215.8" r="3.5" class="dot"><title>11:37 — 867/min</title></circle><circle cx="570.3" cy="210.7" r="3.5" class="dot"><title>16:59 — 976/min</title></circle><circle cx="572.8" cy="220.6" r="3.5" class="dot"><title>20:22 — 763/min</title></circle><circle cx="575.2" cy="209.8" r="3.5" class="dot"><title>23:42 — 995/min</title></circle><circle cx="578.9" cy="208.7" r="3.5" class="dot"><title>04:51 — 1,019/min</title></circle><circle cx="582.6" cy="210.6" r="3.5" class="dot"><title>10:01 — 979/min</title></circle><circle cx="586.2" cy="186.9" r="3.5" class="dot"><title>15:07 — 1,489/min</title></circle><circle cx="588.6" cy="209.3" r="3.5" class="dot"><title>18:21 — 1,007/min</title></circle><circle cx="589.2" cy="196.6" r="3.5" class="dot"><title>19:10 — 1,280/min</title></circle><circle cx="591.5" cy="190.1" r="3.5" class="dot"><title>22:24 — 1,420/min</title></circle><circle cx="593.7" cy="194.6" r="3.5" class="dot"><title>01:31 — 1,324/min</title></circle><circle cx="598.2" cy="184.2" r="3.5" class="dot"><title>07:49 — 1,548/min</title></circle><circle cx="602.5" cy="182.9" r="3.5" class="dot"><title>13:48 — 1,575/min</title></circle><circle cx="606.0" cy="206.4" r="3.5" class="dot"><title>18:37 — 1,069/min</title></circle><circle cx="608.7" cy="212.6" r="3.5" class="dot"><title>22:21 — 935/min</title></circle><circle cx="611.0" cy="197.9" r="3.5" class="dot"><title>01:34 — 1,253/min</title></circle><circle cx="615.4" cy="195.4" r="3.5" class="dot"><title>07:42 — 1,305/min</title></circle><circle cx="619.3" cy="176.5" r="3.5" class="dot"><title>13:06 — 1,714/min</title></circle><circle cx="622.2" cy="180.3" r="3.5" class="dot"><title>17:11 — 1,631/min</title></circle><circle cx="624.2" cy="189.1" r="3.5" class="dot"><title>19:52 — 1,442/min</title></circle><circle cx="626.3" cy="193.4" r="3.5" class="dot"><title>22:52 — 1,350/min</title></circle><circle cx="628.2" cy="196.1" r="3.5" class="dot"><title>01:28 — 1,292/min</title></circle><circle cx="633.0" cy="192.1" r="3.5" class="dot"><title>08:11 — 1,377/min</title></circle><circle cx="637.2" cy="205.8" r="3.5" class="dot"><title>13:59 — 1,081/min</title></circle><circle cx="640.4" cy="211.8" r="3.5" class="dot"><title>18:24 — 953/min</title></circle><circle cx="643.1" cy="178.4" r="3.5" class="dot"><title>22:11 — 1,672/min</title></circle><circle cx="644.9" cy="200.6" r="3.5" class="dot"><title>00:47 — 1,193/min</title></circle><circle cx="649.3" cy="180.2" r="3.5" class="dot"><title>06:55 — 1,633/min</title></circle><circle cx="655.5" cy="159.5" r="3.5" class="dot"><title>15:28 — 2,080/min</title></circle><circle cx="660.2" cy="187.5" r="3.5" class="dot"><title>22:01 — 1,476/min</title></circle><circle cx="663.0" cy="194.4" r="3.5" class="dot"><title>01:57 — 1,327/min</title></circle><circle cx="667.7" cy="201.9" r="3.5" class="dot"><title>08:31 — 1,166/min</title></circle><circle cx="673.0" cy="202.0" r="3.5" class="dot"><title>15:52 — 1,164/min</title></circle><circle cx="676.6" cy="193.3" r="3.5" class="dot"><title>20:47 — 1,351/min</title></circle><circle cx="679.2" cy="216.2" r="3.5" class="dot"><title>00:27 — 857/min</title></circle><circle cx="683.7" cy="191.9" r="3.5" class="dot"><title>06:43 — 1,382/min</title></circle><circle cx="688.7" cy="200.5" r="3.5" class="dot"><title>13:44 — 1,196/min</title></circle><circle cx="692.8" cy="209.0" r="3.5" class="dot"><title>19:20 — 1,014/min</title></circle><circle cx="696.0" cy="202.5" r="5" class="dot dot-last"><title>23:50 — 1,154/min</title></circle>
  <text x="696.0" y="188.5" class="end-label" text-anchor="end">1,154/min</text>
  <line x1="68" y1="256" x2="696" y2="256" class="axis"/>
  
    <text x="68.0" y="278" class="tick" text-anchor="start">14:00</text>
    <text x="137.3" y="278" class="tick" text-anchor="middle">14:29</text>
    <text x="264.2" y="278" class="tick" text-anchor="middle">22:57</text>
    <text x="358.1" y="278" class="tick" text-anchor="middle">09:42</text>
    <text x="467.7" y="278" class="tick" text-anchor="middle">18:14</text>
    <text x="588.6" y="278" class="tick" text-anchor="middle">18:21</text>
    <text x="696.0" y="278" class="tick" text-anchor="end">23:50</text>
</svg>