<svg xmlns="http://www.w3.org/2000/svg" viewBox="0 0 720 300" role="img" aria-label="/r/lobby messages per minute">
  <title>/r/lobby messages per minute</title>
  <desc>Instantaneous rate over a 20-second window. Up 34% over the last quarter of the window, 1,193/min at the last reading.</desc>
  <style>
    .grid      { stroke: var(--chart-grid, #d8dce4); stroke-width: 1; }
    .cap       { stroke: var(--chart-cap, #9a2b22); stroke-width: 1.5; stroke-dasharray: 5 4; }
    .cap-label { fill: var(--chart-cap, #9a2b22); font: 600 11px Archivo, system-ui, sans-serif; letter-spacing: .04em; }
    .tick      { fill: var(--chart-muted, #737c8c); font: 500 11px "IBM Plex Mono", ui-monospace, monospace; }
    .tick-y    { text-anchor: end; }
    .tick-x    { text-anchor: middle; }
    .series    { fill: none; stroke: var(--chart-line, #a25c00); stroke-width: 2.5; stroke-linejoin: round; stroke-linecap: round; }
    .fill      { fill: var(--chart-fill, rgba(162,92,0,.10)); stroke: none; }
    .dot       { fill: var(--chart-line, #a25c00); }
    .dot-last  { stroke: var(--chart-bg, #fff); stroke-width: 2.5; }
    .end-label { fill: var(--chart-line, #a25c00); font: 700 13px Archivo, system-ui, sans-serif; }
    .axis      { stroke: var(--chart-axis, #b9bfca); stroke-width: 1; }
  </style>
  
    <line x1="68" y1="256.0" x2="696" y2="256.0" class="grid"/>
    <text x="58" y="260.0" class="tick tick-y">0</text>
    <line x1="68" y1="198.0" x2="696" y2="198.0" class="grid"/>
    <text x="58" y="202.0" class="tick tick-y">1.3k</text>
    <line x1="68" y1="140.0" x2="696" y2="140.0" class="grid"/>
    <text x="58" y="144.0" class="tick tick-y">2.5k</text>
    <line x1="68" y1="82.0" x2="696" y2="82.0" class="grid"/>
    <text x="58" y="86.0" class="tick tick-y">3.8k</text>
    <line x1="68" y1="24.0" x2="696" y2="24.0" class="grid"/>
    <text x="58" y="28.0" class="tick tick-y">5.0k</text>
  <path d="M68.0,216.1 L70.6,193.4 L74.5,232.1 L74.6,237.2 L74.6,231.6 L74.8,232.6 L75.5,229.9 L77.4,205.8 L78.4,199.9 L79.7,197.1 L80.4,202.9 L81.4,197.0 L82.1,180.8 L84.3,200.7 L85.0,194.5 L86.2,174.7 L86.9,170.9 L88.2,196.4 L89.1,166.8 L90.9,174.1 L94.2,179.8 L99.6,133.0 L99.6,128.1 L102.3,121.5 L110.6,204.5 L117.6,198.0 L122.4,192.1 L122.6,190.3 L137.3,180.8 L137.4,187.6 L137.5,176.8 L139.2,179.8 L143.5,192.2 L146.6,205.7 L149.2,172.7 L156.1,128.2 L156.9,94.9 L164.6,116.1 L174.1,110.4 L180.5,133.0 L188.4,162.2 L192.5,167.5 L205.5,147.9 L210.9,209.9 L214.8,135.5 L218.6,181.4 L221.9,86.2 L224.3,200.1 L226.2,181.8 L229.7,208.7 L233.7,143.3 L243.0,200.7 L244.9,222.0 L248.4,162.8 L256.0,164.5 L259.2,126.9 L261.6,165.6 L263.7,134.0 L267.1,139.8 L270.7,111.3 L273.5,149.6 L276.2,236.0 L277.9,91.9 L280.2,131.1 L281.5,116.5 L283.1,158.8 L287.0,157.5 L290.9,53.9 L293.4,55.1 L295.7,87.9 L297.4,114.2 L301.1,174.8 L304.8,185.3 L309.2,143.7 L314.0,137.7 L317.2,206.7 L319.5,211.6 L323.5,179.2 L327.5,194.5 L331.3,198.5 L334.5,209.4 L337.0,215.4 L338.9,216.8 L342.4,187.3 L346.3,198.2 L350.1,154.2 L353.2,169.0 L355.6,178.4 L357.6,177.6 L361.2,164.2 L365.1,174.2 L368.7,143.2 L371.9,103.5 L374.4,160.2 L376.4,154.2 L379.9,209.9 L383.8,168.2 L387.5,187.4 L399.5,194.2 L403.4,174.5 L406.0,207.8 L408.4,205.6 L410.1,189.8 L412.4,207.3 L414.6,227.6 L418.6,209.2 L423.1,198.9 L426.5,205.6 L429.0,239.2 L431.3,207.4 L433.4,210.1 L437.5,188.9 L443.5,216.2 L447.7,208.0 L450.6,199.3 L452.5,203.6 L457.4,216.7 L461.9,203.6 L465.6,204.2 L468.0,214.4 L470.4,166.6 L474.8,220.4 L479.2,205.0 L483.3,188.8 L485.8,193.7 L488.0,205.9 L494.9,201.9 L499.4,180.1 L503.1,208.7 L505.6,209.5 L507.9,212.4 L512.3,213.5 L516.4,217.3 L519.4,217.1 L522.1,214.7 L524.6,221.1 L526.7,224.2 L531.0,165.7 L535.0,207.3 L544.5,196.6 L550.1,221.5 L554.9,205.8 L558.3,216.0 L560.4,210.2 L562.7,229.1 L579.2,202.5 L582.2,222.0 L586.6,201.9 L590.5,221.1 L597.5,182.5 L600.1,233.9 L601.9,231.2 L606.2,177.6 L610.6,215.8 L614.8,210.7 L617.4,220.6 L620.1,209.8 L624.1,208.7 L628.1,210.6 L632.1,186.9 L634.6,209.3 L635.3,196.6 L637.8,190.1 L640.2,194.6 L645.2,184.2 L649.9,182.9 L653.6,206.4 L656.5,212.6 L659.1,197.9 L663.9,195.4 L668.1,176.5 L671.3,180.3 L673.4,189.1 L675.7,193.4 L677.8,196.1 L683.0,192.1 L687.6,205.8 L691.0,211.8 L694.0,178.4 L696.0,200.6 L696.0,256.0 L68.0,256.0 Z" class="fill"/>
  
  <path d="M68.0,216.1 L70.6,193.4 L74.5,232.1 L74.6,237.2 L74.6,231.6 L74.8,232.6 L75.5,229.9 L77.4,205.8 L78.4,199.9 L79.7,197.1 L80.4,202.9 L81.4,197.0 L82.1,180.8 L84.3,200.7 L85.0,194.5 L86.2,174.7 L86.9,170.9 L88.2,196.4 L89.1,166.8 L90.9,174.1 L94.2,179.8 L99.6,133.0 L99.6,128.1 L102.3,121.5 L110.6,204.5 L117.6,198.0 L122.4,192.1 L122.6,190.3 L137.3,180.8 L137.4,187.6 L137.5,176.8 L139.2,179.8 L143.5,192.2 L146.6,205.7 L149.2,172.7 L156.1,128.2 L156.9,94.9 L164.6,116.1 L174.1,110.4 L180.5,133.0 L188.4,162.2 L192.5,167.5 L205.5,147.9 L210.9,209.9 L214.8,135.5 L218.6,181.4 L221.9,86.2 L224.3,200.1 L226.2,181.8 L229.7,208.7 L233.7,143.3 L243.0,200.7 L244.9,222.0 L248.4,162.8 L256.0,164.5 L259.2,126.9 L261.6,165.6 L263.7,134.0 L267.1,139.8 L270.7,111.3 L273.5,149.6 L276.2,236.0 L277.9,91.9 L280.2,131.1 L281.5,116.5 L283.1,158.8 L287.0,157.5 L290.9,53.9 L293.4,55.1 L295.7,87.9 L297.4,114.2 L301.1,174.8 L304.8,185.3 L309.2,143.7 L314.0,137.7 L317.2,206.7 L319.5,211.6 L323.5,179.2 L327.5,194.5 L331.3,198.5 L334.5,209.4 L337.0,215.4 L338.9,216.8 L342.4,187.3 L346.3,198.2 L350.1,154.2 L353.2,169.0 L355.6,178.4 L357.6,177.6 L361.2,164.2 L365.1,174.2 L368.7,143.2 L371.9,103.5 L374.4,160.2 L376.4,154.2 L379.9,209.9 L383.8,168.2 L387.5,187.4 L399.5,194.2 L403.4,174.5 L406.0,207.8 L408.4,205.6 L410.1,189.8 L412.4,207.3 L414.6,227.6 L418.6,209.2 L423.1,198.9 L426.5,205.6 L429.0,239.2 L431.3,207.4 L433.4,210.1 L437.5,188.9 L443.5,216.2 L447.7,208.0 L450.6,199.3 L452.5,203.6 L457.4,216.7 L461.9,203.6 L465.6,204.2 L468.0,214.4 L470.4,166.6 L474.8,220.4 L479.2,205.0 L483.3,188.8 L485.8,193.7 L488.0,205.9 L494.9,201.9 L499.4,180.1 L503.1,208.7 L505.6,209.5 L507.9,212.4 L512.3,213.5 L516.4,217.3 L519.4,217.1 L522.1,214.7 L524.6,221.1 L526.7,224.2 L531.0,165.7 L535.0,207.3 L544.5,196.6 L550.1,221.5 L554.9,205.8 L558.3,216.0 L560.4,210.2 L562.7,229.1 L579.2,202.5 L582.2,222.0 L586.6,201.9 L590.5,221.1 L597.5,182.5 L600.1,233.9 L601.9,231.2 L606.2,177.6 L610.6,215.8 L614.8,210.7 L617.4,220.6 L620.1,209.8 L624.1,208.7 L628.1,210.6 L632.1,186.9 L634.6,209.3 L635.3,196.6 L637.8,190.1 L640.2,194.6 L645.2,184.2 L649.9,182.9 L653.6,206.4 L656.5,212.6 L659.1,197.9 L663.9,195.4 L668.1,176.5 L671.3,180.3 L673.4,189.1 L675.7,193.4 L677.8,196.1 L683.0,192.1 L687.6,205.8 L691.0,211.8 L694.0,178.4 L696.0,200.6" class="series"/>
  <circle cx="68.0" cy="216.1" r="3.5" class="dot"><title>14:00 — 860/min</title></circle><circle cx="70.6" cy="193.4" r="3.5" class="dot"><title>17:20 — 1,350/min</title></circle><circle cx="74.5" cy="232.1" r="3.5" class="dot"><title>22:16 — 515/min</title></circle><circle cx="74.6" cy="237.2" r="3.5" class="dot"><title>22:24 — 405/min</title></circle><circle cx="74.6" cy="231.6" r="3.5" class="dot"><title>22:27 — 526/min</title></circle><circle cx="74.8" cy="232.6" r="3.5" class="dot"><title>22:45 — 505/min</title></circle><circle cx="75.5" cy="229.9" r="3.5" class="dot"><title>23:38 — 562/min</title></circle><circle cx="77.4" cy="205.8" r="3.5" class="dot"><title>01:59 — 1,081/min</title></circle><circle cx="78.4" cy="199.9" r="3.5" class="dot"><title>03:18 — 1,210/min</title></circle><circle cx="79.7" cy="197.1" r="3.5" class="dot"><title>04:56 — 1,270/min</title></circle><circle cx="80.4" cy="202.9" r="3.5" class="dot"><title>05:50 — 1,145/min</title></circle><circle cx="81.4" cy="197.0" r="3.5" class="dot"><title>07:09 — 1,271/min</title></circle><circle cx="82.1" cy="180.8" r="3.5" class="dot"><title>08:00 — 1,620/min</title></circle><circle cx="84.3" cy="200.7" r="3.5" class="dot"><title>10:52 — 1,191/min</title></circle><circle cx="85.0" cy="194.5" r="3.5" class="dot"><title>11:45 — 1,325/min</title></circle><circle cx="86.2" cy="174.7" r="3.5" class="dot"><title>13:17 — 1,753/min</title></circle><circle cx="86.9" cy="170.9" r="3.5" class="dot"><title>14:08 — 1,834/min</title></circle><circle cx="88.2" cy="196.4" r="3.5" class="dot"><title>15:53 — 1,285/min</title></circle><circle cx="89.1" cy="166.8" r="3.5" class="dot"><title>17:00 — 1,923/min</title></circle><circle cx="90.9" cy="174.1" r="3.5" class="dot"><title>19:19 — 1,766/min</title></circle><circle cx="94.2" cy="179.8" r="3.5" class="dot"><title>23:33 — 1,642/min</title></circle><circle cx="99.6" cy="133.0" r="3.5" class="dot"><title>06:22 — 2,650/min</title></circle><circle cx="99.6" cy="128.1" r="3.5" class="dot"><title>06:25 — 2,756/min</title></circle><circle cx="102.3" cy="121.5" r="3.5" class="dot"><title>09:49 — 2,899/min</title></circle><circle cx="110.6" cy="204.5" r="3.5" class="dot"><title>20:30 — 1,109/min</title></circle><circle cx="117.6" cy="198.0" r="3.5" class="dot"><title>05:24 — 1,250/min</title></circle><circle cx="122.4" cy="192.1" r="3.5" class="dot"><title>11:36 — 1,378/min</title></circle><circle cx="122.6" cy="190.3" r="3.5" class="dot"><title>11:48 — 1,417/min</title></circle><circle cx="137.3" cy="180.8" r="3.5" class="dot"><title>06:33 — 1,620/min</title></circle><circle cx="137.4" cy="187.6" r="3.5" class="dot"><title>06:43 — 1,474/min</title></circle><circle cx="137.5" cy="176.8" r="3.5" class="dot"><title>06:51 — 1,706/min</title></circle><circle cx="139.2" cy="179.8" r="3.5" class="dot"><title>09:04 — 1,643/min</title></circle><circle cx="143.5" cy="192.2" r="3.5" class="dot"><title>14:29 — 1,376/min</title></circle><circle cx="146.6" cy="205.7" r="3.5" class="dot"><title>18:30 — 1,085/min</title></circle><circle cx="149.2" cy="172.7" r="3.5" class="dot"><title>21:45 — 1,796/min</title></circle><circle cx="156.1" cy="128.2" r="3.5" class="dot"><title>06:40 — 2,755/min</title></circle><circle cx="156.9" cy="94.9" r="3.5" class="dot"><title>07:40 — 3,473/min</title></circle><circle cx="164.6" cy="116.1" r="3.5" class="dot"><title>17:30 — 3,015/min</title></circle><circle cx="174.1" cy="110.4" r="3.5" class="dot"><title>05:36 — 3,137/min</title></circle><circle cx="180.5" cy="133.0" r="3.5" class="dot"><title>13:52 — 2,651/min</title></circle><circle cx="188.4" cy="162.2" r="3.5" class="dot"><title>23:51 — 2,022/min</title></circle><circle cx="192.5" cy="167.5" r="3.5" class="dot"><title>05:09 — 1,908/min</title></circle><circle cx="205.5" cy="147.9" r="3.5" class="dot"><title>21:47 — 2,329/min</title></circle><circle cx="210.9" cy="209.9" r="3.5" class="dot"><title>04:42 — 993/min</title></circle><circle cx="214.8" cy="135.5" r="3.5" class="dot"><title>09:38 — 2,597/min</title></circle><circle cx="218.6" cy="181.4" r="3.5" class="dot"><title>14:32 — 1,607/min</title></circle><circle cx="221.9" cy="86.2" r="3.5" class="dot"><title>18:43 — 3,660/min</title></circle><circle cx="224.3" cy="200.1" r="3.5" class="dot"><title>21:50 — 1,204/min</title></circle><circle cx="226.2" cy="181.8" r="3.5" class="dot"><title>00:16 — 1,600/min</title></circle><circle cx="229.7" cy="208.7" r="3.5" class="dot"><title>04:39 — 1,020/min</title></circle><circle cx="233.7" cy="143.3" r="3.5" class="dot"><title>09:51 — 2,429/min</title></circle><circle cx="243.0" cy="200.7" r="3.5" class="dot"><title>21:43 — 1,191/min</title></circle><circle cx="244.9" cy="222.0" r="3.5" class="dot"><title>00:06 — 733/min</title></circle><circle cx="248.4" cy="162.8" r="3.5" class="dot"><title>04:34 — 2,009/min</title></circle><circle cx="256.0" cy="164.5" r="3.5" class="dot"><title>14:22 — 1,973/min</title></circle><circle cx="259.2" cy="126.9" r="3.5" class="dot"><title>18:24 — 2,783/min</title></circle><circle cx="261.6" cy="165.6" r="3.5" class="dot"><title>21:29 — 1,949/min</title></circle><circle cx="263.7" cy="134.0" r="3.5" class="dot"><title>00:07 — 2,629/min</title></circle><circle cx="267.1" cy="139.8" r="3.5" class="dot"><title>04:30 — 2,505/min</title></circle><circle cx="270.7" cy="111.3" r="3.5" class="dot"><title>09:05 — 3,118/min</title></circle><circle cx="273.5" cy="149.6" r="3.5" class="dot"><title>12:43 — 2,294/min</title></circle><circle cx="276.2" cy="236.0" r="3.5" class="dot"><title>16:05 — 430/min</title></circle><circle cx="277.9" cy="91.9" r="3.5" class="dot"><title>18:19 — 3,536/min</title></circle><circle cx="280.2" cy="131.1" r="3.5" class="dot"><title>21:15 — 2,692/min</title></circle><circle cx="281.5" cy="116.5" r="3.5" class="dot"><title>22:57 — 3,007/min</title></circle><circle cx="283.1" cy="158.8" r="3.5" class="dot"><title>00:58 — 2,094/min</title></circle><circle cx="287.0" cy="157.5" r="3.5" class="dot"><title>05:58 — 2,123/min</title></circle><circle cx="290.9" cy="53.9" r="3.5" class="dot"><title>10:57 — 4,356/min</title></circle><circle cx="293.4" cy="55.1" r="3.5" class="dot"><title>14:11 — 4,330/min</title></circle><circle cx="295.7" cy="87.9" r="3.5" class="dot"><title>17:03 — 3,622/min</title></circle><circle cx="297.4" cy="114.2" r="3.5" class="dot"><title>19:11 — 3,055/min</title></circle><circle cx="301.1" cy="174.8" r="3.5" class="dot"><title>23:55 — 1,751/min</title></circle><circle cx="304.8" cy="185.3" r="3.5" class="dot"><title>04:42 — 1,523/min</title></circle><circle cx="309.2" cy="143.7" r="3.5" class="dot"><title>10:19 — 2,421/min</title></circle><circle cx="314.0" cy="137.7" r="3.5" class="dot"><title>16:27 — 2,550/min</title></circle><circle cx="317.2" cy="206.7" r="3.5" class="dot"><title>20:34 — 1,063/min</title></circle><circle cx="319.5" cy="211.6" r="3.5" class="dot"><title>23:30 — 957/min</title></circle><circle cx="323.5" cy="179.2" r="3.5" class="dot"><title>04:37 — 1,656/min</title></circle><circle cx="327.5" cy="194.5" r="3.5" class="dot"><title>09:41 — 1,326/min</title></circle><circle cx="331.3" cy="198.5" r="3.5" class="dot"><title>14:33 — 1,240/min</title></circle><circle cx="334.5" cy="209.4" r="3.5" class="dot"><title>18:41 — 1,005/min</title></circle><circle cx="337.0" cy="215.4" r="3.5" class="dot"><title>21:51 — 874/min</title></circle><circle cx="338.9" cy="216.8" r="3.5" class="dot"><title>00:15 — 845/min</title></circle><circle cx="342.4" cy="187.3" r="3.5" class="dot"><title>04:48 — 1,480/min</title></circle><circle cx="346.3" cy="198.2" r="3.5" class="dot"><title>09:46 — 1,246/min</title></circle><circle cx="350.1" cy="154.2" r="3.5" class="dot"><title>14:36 — 2,193/min</title></circle><circle cx="353.2" cy="169.0" r="3.5" class="dot"><title>18:37 — 1,876/min</title></circle><circle cx="355.6" cy="178.4" r="3.5" class="dot"><title>21:42 — 1,672/min</title></circle><circle cx="357.6" cy="177.6" r="3.5" class="dot"><title>00:15 — 1,690/min</title></circle><circle cx="361.2" cy="164.2" r="3.5" class="dot"><title>04:50 — 1,978/min</title></circle><circle cx="365.1" cy="174.2" r="3.5" class="dot"><title>09:45 — 1,762/min</title></circle><circle cx="368.7" cy="143.2" r="3.5" class="dot"><title>14:27 — 2,431/min</title></circle><circle cx="371.9" cy="103.5" r="3.5" class="dot"><title>18:29 — 3,286/min</title></circle><circle cx="374.4" cy="160.2" r="3.5" class="dot"><title>21:38 — 2,064/min</title></circle><circle cx="376.4" cy="154.2" r="3.5" class="dot"><title>00:11 — 2,194/min</title></circle><circle cx="379.9" cy="209.9" r="3.5" class="dot"><title>04:41 — 994/min</title></circle><circle cx="383.8" cy="168.2" r="3.5" class="dot"><title>09:42 — 1,893/min</title></circle><circle cx="387.5" cy="187.4" r="3.5" class="dot"><title>14:26 — 1,478/min</title></circle><circle cx="399.5" cy="194.2" r="3.5" class="dot"><title>05:48 — 1,331/min</title></circle><circle cx="403.4" cy="174.5" r="3.5" class="dot"><title>10:47 — 1,757/min</title></circle><circle cx="406.0" cy="207.8" r="3.5" class="dot"><title>14:08 — 1,039/min</title></circle><circle cx="408.4" cy="205.6" r="3.5" class="dot"><title>17:11 — 1,087/min</title></circle><circle cx="410.1" cy="189.8" r="3.5" class="dot"><title>19:22 — 1,427/min</title></circle><circle cx="412.4" cy="207.3" r="3.5" class="dot"><title>22:18 — 1,050/min</title></circle><circle cx="414.6" cy="227.6" r="3.5" class="dot"><title>01:01 — 612/min</title></circle><circle cx="418.6" cy="209.2" r="3.5" class="dot"><title>06:10 — 1,008/min</title></circle><circle cx="423.1" cy="198.9" r="3.5" class="dot"><title>11:53 — 1,230/min</title></circle><circle cx="426.5" cy="205.6" r="3.5" class="dot"><title>16:18 — 1,086/min</title></circle><circle cx="429.0" cy="239.2" r="3.5" class="dot"><title>19:27 — 361/min</title></circle><circle cx="431.3" cy="207.4" r="3.5" class="dot"><title>22:25 — 1,047/min</title></circle><circle cx="433.4" cy="210.1" r="3.5" class="dot"><title>01:05 — 989/min</title></circle><circle cx="437.5" cy="188.9" r="3.5" class="dot"><title>06:18 — 1,446/min</title></circle><circle cx="443.5" cy="216.2" r="3.5" class="dot"><title>14:03 — 857/min</title></circle><circle cx="447.7" cy="208.0" r="3.5" class="dot"><title>19:22 — 1,035/min</title></circle><circle cx="450.6" cy="199.3" r="3.5" class="dot"><title>23:08 — 1,222/min</title></circle><circle cx="452.5" cy="203.6" r="3.5" class="dot"><title>01:28 — 1,129/min</title></circle><circle cx="457.4" cy="216.7" r="3.5" class="dot"><title>07:45 — 846/min</title></circle><circle cx="461.9" cy="203.6" r="3.5" class="dot"><title>13:34 — 1,129/min</title></circle><circle cx="465.6" cy="204.2" r="3.5" class="dot"><title>18:12 — 1,116/min</title></circle><circle cx="468.0" cy="214.4" r="3.5" class="dot"><title>21:22 — 897/min</title></circle><circle cx="470.4" cy="166.6" r="3.5" class="dot"><title>00:21 — 1,926/min</title></circle><circle cx="474.8" cy="220.4" r="3.5" class="dot"><title>06:02 — 767/min</title></circle><circle cx="479.2" cy="205.0" r="3.5" class="dot"><title>11:35 — 1,100/min</title></circle><circle cx="483.3" cy="188.8" r="3.5" class="dot"><title>16:56 — 1,448/min</title></circle><circle cx="485.8" cy="193.7" r="3.5" class="dot"><title>20:08 — 1,342/min</title></circle><circle cx="488.0" cy="205.9" r="3.5" class="dot"><title>22:56 — 1,079/min</title></circle><circle cx="494.9" cy="201.9" r="3.5" class="dot"><title>07:40 — 1,166/min</title></circle><circle cx="499.4" cy="180.1" r="3.5" class="dot"><title>13:28 — 1,635/min</title></circle><circle cx="503.1" cy="208.7" r="3.5" class="dot"><title>18:14 — 1,020/min</title></circle><circle cx="505.6" cy="209.5" r="3.5" class="dot"><title>21:25 — 1,002/min</title></circle><circle cx="507.9" cy="212.4" r="3.5" class="dot"><title>00:20 — 940/min</title></circle><circle cx="512.3" cy="213.5" r="3.5" class="dot"><title>05:55 — 915/min</title></circle><circle cx="516.4" cy="217.3" r="3.5" class="dot"><title>11:15 — 834/min</title></circle><circle cx="519.4" cy="217.1" r="3.5" class="dot"><title>15:01 — 838/min</title></circle><circle cx="522.1" cy="214.7" r="3.5" class="dot"><title>18:29 — 890/min</title></circle><circle cx="524.6" cy="221.1" r="3.5" class="dot"><title>21:41 — 753/min</title></circle><circle cx="526.7" cy="224.2" r="3.5" class="dot"><title>00:21 — 686/min</title></circle><circle cx="531.0" cy="165.7" r="3.5" class="dot"><title>05:54 — 1,946/min</title></circle><circle cx="535.0" cy="207.3" r="3.5" class="dot"><title>11:00 — 1,050/min</title></circle><circle cx="544.5" cy="196.6" r="3.5" class="dot"><title>23:06 — 1,281/min</title></circle><circle cx="550.1" cy="221.5" r="3.5" class="dot"><title>06:18 — 744/min</title></circle><circle cx="554.9" cy="205.8" r="3.5" class="dot"><title>12:22 — 1,082/min</title></circle><circle cx="558.3" cy="216.0" r="3.5" class="dot"><title>16:48 — 862/min</title></circle><circle cx="560.4" cy="210.2" r="3.5" class="dot"><title>19:27 — 988/min</title></circle><circle cx="562.7" cy="229.1" r="3.5" class="dot"><title>22:26 — 580/min</title></circle><circle cx="579.2" cy="202.5" r="3.5" class="dot"><title>19:28 — 1,153/min</title></circle><circle cx="582.2" cy="222.0" r="3.5" class="dot"><title>23:17 — 732/min</title></circle><circle cx="586.6" cy="201.9" r="3.5" class="dot"><title>04:57 — 1,165/min</title></circle><circle cx="590.5" cy="221.1" r="3.5" class="dot"><title>09:57 — 752/min</title></circle><circle cx="597.5" cy="182.5" r="3.5" class="dot"><title>18:55 — 1,584/min</title></circle><circle cx="600.1" cy="233.9" r="3.5" class="dot"><title>22:11 — 476/min</title></circle><circle cx="601.9" cy="231.2" r="3.5" class="dot"><title>00:33 — 535/min</title></circle><circle cx="606.2" cy="177.6" r="3.5" class="dot"><title>05:59 — 1,690/min</title></circle><circle cx="610.6" cy="215.8" r="3.5" class="dot"><title>11:37 — 867/min</title></circle><circle cx="614.8" cy="210.7" r="3.5" class="dot"><title>16:59 — 976/min</title></circle><circle cx="617.4" cy="220.6" r="3.5" class="dot"><title>20:22 — 763/min</title></circle><circle cx="620.1" cy="209.8" r="3.5" class="dot"><title>23:42 — 995/min</title></circle><circle cx="624.1" cy="208.7" r="3.5" class="dot"><title>04:51 — 1,019/min</title></circle><circle cx="628.1" cy="210.6" r="3.5" class="dot"><title>10:01 — 979/min</title></circle><circle cx="632.1" cy="186.9" r="3.5" class="dot"><title>15:07 — 1,489/min</title></circle><circle cx="634.6" cy="209.3" r="3.5" class="dot"><title>18:21 — 1,007/min</title></circle><circle cx="635.3" cy="196.6" r="3.5" class="dot"><title>19:10 — 1,280/min</title></circle><circle cx="637.8" cy="190.1" r="3.5" class="dot"><title>22:24 — 1,420/min</title></circle><circle cx="640.2" cy="194.6" r="3.5" class="dot"><title>01:31 — 1,324/min</title></circle><circle cx="645.2" cy="184.2" r="3.5" class="dot"><title>07:49 — 1,548/min</title></circle><circle cx="649.9" cy="182.9" r="3.5" class="dot"><title>13:48 — 1,575/min</title></circle><circle cx="653.6" cy="206.4" r="3.5" class="dot"><title>18:37 — 1,069/min</title></circle><circle cx="656.5" cy="212.6" r="3.5" class="dot"><title>22:21 — 935/min</title></circle><circle cx="659.1" cy="197.9" r="3.5" class="dot"><title>01:34 — 1,253/min</title></circle><circle cx="663.9" cy="195.4" r="3.5" class="dot"><title>07:42 — 1,305/min</title></circle><circle cx="668.1" cy="176.5" r="3.5" class="dot"><title>13:06 — 1,714/min</title></circle><circle cx="671.3" cy="180.3" r="3.5" class="dot"><title>17:11 — 1,631/min</title></circle><circle cx="673.4" cy="189.1" r="3.5" class="dot"><title>19:52 — 1,442/min</title></circle><circle cx="675.7" cy="193.4" r="3.5" class="dot"><title>22:52 — 1,350/min</title></circle><circle cx="677.8" cy="196.1" r="3.5" class="dot"><title>01:28 — 1,292/min</title></circle><circle cx="683.0" cy="192.1" r="3.5" class="dot"><title>08:11 — 1,377/min</title></circle><circle cx="687.6" cy="205.8" r="3.5" class="dot"><title>13:59 — 1,081/min</title></circle><circle cx="691.0" cy="211.8" r="3.5" class="dot"><title>18:24 — 953/min</title></circle><circle cx="694.0" cy="178.4" r="3.5" class="dot"><title>22:11 — 1,672/min</title></circle><circle cx="696.0" cy="200.6" r="5" class="dot dot-last"><title>00:47 — 1,193/min</title></circle>
  <text x="696.0" y="186.6" class="end-label" text-anchor="end">1,193/min</text>
  <line x1="68" y1="256" x2="696" y2="256" class="axis"/>
  
    <text x="68.0" y="278" class="tick" text-anchor="start">14:00</text>
    <text x="137.5" y="278" class="tick" text-anchor="middle">06:51</text>
    <text x="273.5" y="278" class="tick" text-anchor="middle">12:43</text>
    <text x="365.1" y="278" class="tick" text-anchor="middle">09:45</text>
    <text x="470.4" y="278" class="tick" text-anchor="middle">00:21</text>
    <text x="600.1" y="278" class="tick" text-anchor="middle">22:11</text>
    <text x="696.0" y="278" class="tick" text-anchor="end">00:47</text>
</svg>