<svg xmlns="http://www.w3.org/2000/svg" viewBox="0 0 720 300" role="img" aria-label="/r/lobby messages per minute">
  <title>/r/lobby messages per minute</title>
  <desc>Instantaneous rate over a 20-second window. Down 62% from peak in five hours.</desc>
  <style>
    .grid      { stroke: var(--chart-grid, #d8dce4); stroke-width: 1; }
    .cap       { stroke: var(--chart-cap, #9a2b22); stroke-width: 1.5; stroke-dasharray: 5 4; }
    .cap-label { fill: var(--chart-cap, #9a2b22); font: 600 11px Archivo, system-ui, sans-serif; letter-spacing: .04em; }
    .tick      { fill: var(--chart-muted, #737c8c); font: 500 11px "IBM Plex Mono", ui-monospace, monospace; }
    .tick-y    { text-anchor: end; }
    .tick-x    { text-anchor: middle; }
    .series    { fill: none; stroke: var(--chart-line, #a25c00); stroke-width: 2.5; stroke-linejoin: round; stroke-linecap: round; }
    .fill      { fill: var(--chart-fill, rgba(162,92,0,.10)); stroke: none; }
    .dot       { fill: var(--chart-line, #a25c00); }
    .dot-last  { stroke: var(--chart-bg, #fff); stroke-width: 2.5; }
    .end-label { fill: var(--chart-line, #a25c00); font: 700 13px Archivo, system-ui, sans-serif; }
    .axis      { stroke: var(--chart-axis, #b9bfca); stroke-width: 1; }
  </style>
  
    <line x1="68" y1="256.0" x2="696" y2="256.0" class="grid"/>
    <text x="58" y="260.0" class="tick tick-y">0</text>
    <line x1="68" y1="198.0" x2="696" y2="198.0" class="grid"/>
    <text x="58" y="202.0" class="tick tick-y">1.3k</text>
    <line x1="68" y1="140.0" x2="696" y2="140.0" class="grid"/>
    <text x="58" y="144.0" class="tick tick-y">2.5k</text>
    <line x1="68" y1="82.0" x2="696" y2="82.0" class="grid"/>
    <text x="58" y="86.0" class="tick tick-y">3.8k</text>
    <line x1="68" y1="24.0" x2="696" y2="24.0" class="grid"/>
    <text x="58" y="28.0" class="tick tick-y">5.0k</text>
  <path d="M68.0,216.1 L75.3,193.4 L86.0,232.1 L86.3,237.2 L86.4,231.6 L87.1,232.6 L89.0,229.9 L94.1,205.8 L97.0,199.9 L100.5,197.1 L102.5,202.9 L105.4,197.0 L107.2,180.8 L113.5,200.7 L115.4,194.5 L118.7,174.7 L120.6,170.9 L124.4,196.4 L126.8,166.8 L131.9,174.1 L141.1,179.8 L156.0,133.0 L156.1,128.1 L163.5,121.5 L186.8,204.5 L206.2,198.0 L219.7,192.1 L220.1,190.3 L261.0,180.8 L261.3,187.6 L261.6,176.8 L266.4,179.8 L278.3,192.2 L287.0,205.7 L294.1,172.7 L313.5,128.2 L315.7,94.9 L337.1,116.1 L363.5,110.4 L381.5,133.0 L403.3,162.2 L414.8,167.5 L451.1,147.9 L466.1,209.9 L476.9,135.5 L487.6,181.4 L496.7,86.2 L503.5,200.1 L508.8,181.8 L518.3,208.7 L529.7,143.3 L555.5,200.7 L560.7,222.0 L570.4,162.8 L591.8,164.5 L600.6,126.9 L607.3,165.6 L613.0,134.0 L622.6,139.8 L632.6,111.3 L640.5,149.6 L647.8,236.0 L652.7,91.9 L659.1,131.1 L662.8,116.5 L667.2,158.8 L678.1,157.5 L689.0,53.9 L696.0,55.1 L696.0,256.0 L68.0,256.0 Z" class="fill"/>
  
  <path d="M68.0,216.1 L75.3,193.4 L86.0,232.1 L86.3,237.2 L86.4,231.6 L87.1,232.6 L89.0,229.9 L94.1,205.8 L97.0,199.9 L100.5,197.1 L102.5,202.9 L105.4,197.0 L107.2,180.8 L113.5,200.7 L115.4,194.5 L118.7,174.7 L120.6,170.9 L124.4,196.4 L126.8,166.8 L131.9,174.1 L141.1,179.8 L156.0,133.0 L156.1,128.1 L163.5,121.5 L186.8,204.5 L206.2,198.0 L219.7,192.1 L220.1,190.3 L261.0,180.8 L261.3,187.6 L261.6,176.8 L266.4,179.8 L278.3,192.2 L287.0,205.7 L294.1,172.7 L313.5,128.2 L315.7,94.9 L337.1,116.1 L363.5,110.4 L381.5,133.0 L403.3,162.2 L414.8,167.5 L451.1,147.9 L466.1,209.9 L476.9,135.5 L487.6,181.4 L496.7,86.2 L503.5,200.1 L508.8,181.8 L518.3,208.7 L529.7,143.3 L555.5,200.7 L560.7,222.0 L570.4,162.8 L591.8,164.5 L600.6,126.9 L607.3,165.6 L613.0,134.0 L622.6,139.8 L632.6,111.3 L640.5,149.6 L647.8,236.0 L652.7,91.9 L659.1,131.1 L662.8,116.5 L667.2,158.8 L678.1,157.5 L689.0,53.9 L696.0,55.1" class="series"/>
  <circle cx="68.0" cy="216.1" r="3.5" class="dot"><title>14:00 — 860/min</title></circle><circle cx="75.3" cy="193.4" r="3.5" class="dot"><title>17:20 — 1,350/min</title></circle><circle cx="86.0" cy="232.1" r="3.5" class="dot"><title>22:16 — 515/min</title></circle><circle cx="86.3" cy="237.2" r="3.5" class="dot"><title>22:24 — 405/min</title></circle><circle cx="86.4" cy="231.6" r="3.5" class="dot"><title>22:27 — 526/min</title></circle><circle cx="87.1" cy="232.6" r="3.5" class="dot"><title>22:45 — 505/min</title></circle><circle cx="89.0" cy="229.9" r="3.5" class="dot"><title>23:38 — 562/min</title></circle><circle cx="94.1" cy="205.8" r="3.5" class="dot"><title>01:59 — 1,081/min</title></circle><circle cx="97.0" cy="199.9" r="3.5" class="dot"><title>03:18 — 1,210/min</title></circle><circle cx="100.5" cy="197.1" r="3.5" class="dot"><title>04:56 — 1,270/min</title></circle><circle cx="102.5" cy="202.9" r="3.5" class="dot"><title>05:50 — 1,145/min</title></circle><circle cx="105.4" cy="197.0" r="3.5" class="dot"><title>07:09 — 1,271/min</title></circle><circle cx="107.2" cy="180.8" r="3.5" class="dot"><title>08:00 — 1,620/min</title></circle><circle cx="113.5" cy="200.7" r="3.5" class="dot"><title>10:52 — 1,191/min</title></circle><circle cx="115.4" cy="194.5" r="3.5" class="dot"><title>11:45 — 1,325/min</title></circle><circle cx="118.7" cy="174.7" r="3.5" class="dot"><title>13:17 — 1,753/min</title></circle><circle cx="120.6" cy="170.9" r="3.5" class="dot"><title>14:08 — 1,834/min</title></circle><circle cx="124.4" cy="196.4" r="3.5" class="dot"><title>15:53 — 1,285/min</title></circle><circle cx="126.8" cy="166.8" r="3.5" class="dot"><title>17:00 — 1,923/min</title></circle><circle cx="131.9" cy="174.1" r="3.5" class="dot"><title>19:19 — 1,766/min</title></circle><circle cx="141.1" cy="179.8" r="3.5" class="dot"><title>23:33 — 1,642/min</title></circle><circle cx="156.0" cy="133.0" r="3.5" class="dot"><title>06:22 — 2,650/min</title></circle><circle cx="156.1" cy="128.1" r="3.5" class="dot"><title>06:25 — 2,756/min</title></circle><circle cx="163.5" cy="121.5" r="3.5" class="dot"><title>09:49 — 2,899/min</title></circle><circle cx="186.8" cy="204.5" r="3.5" class="dot"><title>20:30 — 1,109/min</title></circle><circle cx="206.2" cy="198.0" r="3.5" class="dot"><title>05:24 — 1,250/min</title></circle><circle cx="219.7" cy="192.1" r="3.5" class="dot"><title>11:36 — 1,378/min</title></circle><circle cx="220.1" cy="190.3" r="3.5" class="dot"><title>11:48 — 1,417/min</title></circle><circle cx="261.0" cy="180.8" r="3.5" class="dot"><title>06:33 — 1,620/min</title></circle><circle cx="261.3" cy="187.6" r="3.5" class="dot"><title>06:43 — 1,474/min</title></circle><circle cx="261.6" cy="176.8" r="3.5" class="dot"><title>06:51 — 1,706/min</title></circle><circle cx="266.4" cy="179.8" r="3.5" class="dot"><title>09:04 — 1,643/min</title></circle><circle cx="278.3" cy="192.2" r="3.5" class="dot"><title>14:29 — 1,376/min</title></circle><circle cx="287.0" cy="205.7" r="3.5" class="dot"><title>18:30 — 1,085/min</title></circle><circle cx="294.1" cy="172.7" r="3.5" class="dot"><title>21:45 — 1,796/min</title></circle><circle cx="313.5" cy="128.2" r="3.5" class="dot"><title>06:40 — 2,755/min</title></circle><circle cx="315.7" cy="94.9" r="3.5" class="dot"><title>07:40 — 3,473/min</title></circle><circle cx="337.1" cy="116.1" r="3.5" class="dot"><title>17:30 — 3,015/min</title></circle><circle cx="363.5" cy="110.4" r="3.5" class="dot"><title>05:36 — 3,137/min</title></circle><circle cx="381.5" cy="133.0" r="3.5" class="dot"><title>13:52 — 2,651/min</title></circle><circle cx="403.3" cy="162.2" r="3.5" class="dot"><title>23:51 — 2,022/min</title></circle><circle cx="414.8" cy="167.5" r="3.5" class="dot"><title>05:09 — 1,908/min</title></circle><circle cx="451.1" cy="147.9" r="3.5" class="dot"><title>21:47 — 2,329/min</title></circle><circle cx="466.1" cy="209.9" r="3.5" class="dot"><title>04:42 — 993/min</title></circle><circle cx="476.9" cy="135.5" r="3.5" class="dot"><title>09:38 — 2,597/min</title></circle><circle cx="487.6" cy="181.4" r="3.5" class="dot"><title>14:32 — 1,607/min</title></circle><circle cx="496.7" cy="86.2" r="3.5" class="dot"><title>18:43 — 3,660/min</title></circle><circle cx="503.5" cy="200.1" r="3.5" class="dot"><title>21:50 — 1,204/min</title></circle><circle cx="508.8" cy="181.8" r="3.5" class="dot"><title>00:16 — 1,600/min</title></circle><circle cx="518.3" cy="208.7" r="3.5" class="dot"><title>04:39 — 1,020/min</title></circle><circle cx="529.7" cy="143.3" r="3.5" class="dot"><title>09:51 — 2,429/min</title></circle><circle cx="555.5" cy="200.7" r="3.5" class="dot"><title>21:43 — 1,191/min</title></circle><circle cx="560.7" cy="222.0" r="3.5" class="dot"><title>00:06 — 733/min</title></circle><circle cx="570.4" cy="162.8" r="3.5" class="dot"><title>04:34 — 2,009/min</title></circle><circle cx="591.8" cy="164.5" r="3.5" class="dot"><title>14:22 — 1,973/min</title></circle><circle cx="600.6" cy="126.9" r="3.5" class="dot"><title>18:24 — 2,783/min</title></circle><circle cx="607.3" cy="165.6" r="3.5" class="dot"><title>21:29 — 1,949/min</title></circle><circle cx="613.0" cy="134.0" r="3.5" class="dot"><title>00:07 — 2,629/min</title></circle><circle cx="622.6" cy="139.8" r="3.5" class="dot"><title>04:30 — 2,505/min</title></circle><circle cx="632.6" cy="111.3" r="3.5" class="dot"><title>09:05 — 3,118/min</title></circle><circle cx="640.5" cy="149.6" r="3.5" class="dot"><title>12:43 — 2,294/min</title></circle><circle cx="647.8" cy="236.0" r="3.5" class="dot"><title>16:05 — 430/min</title></circle><circle cx="652.7" cy="91.9" r="3.5" class="dot"><title>18:19 — 3,536/min</title></circle><circle cx="659.1" cy="131.1" r="3.5" class="dot"><title>21:15 — 2,692/min</title></circle><circle cx="662.8" cy="116.5" r="3.5" class="dot"><title>22:57 — 3,007/min</title></circle><circle cx="667.2" cy="158.8" r="3.5" class="dot"><title>00:58 — 2,094/min</title></circle><circle cx="678.1" cy="157.5" r="3.5" class="dot"><title>05:58 — 2,123/min</title></circle><circle cx="689.0" cy="53.9" r="3.5" class="dot"><title>10:57 — 4,356/min</title></circle><circle cx="696.0" cy="55.1" r="5" class="dot dot-last"><title>14:11 — 4,330/min</title></circle>
  <text x="696.0" y="41.1" class="end-label" text-anchor="end">4,330/min</text>
  <line x1="68" y1="256" x2="696" y2="256" class="axis"/>
  
    <text x="68.0" y="278" class="tick" text-anchor="start">14:00</text>
    <text x="107.2" y="278" class="tick" text-anchor="middle">08:00</text>
    <text x="186.8" y="278" class="tick" text-anchor="middle">20:30</text>
    <text x="315.7" y="278" class="tick" text-anchor="middle">07:40</text>
    <text x="508.8" y="278" class="tick" text-anchor="middle">00:16</text>
    <text x="640.5" y="278" class="tick" text-anchor="middle">12:43</text>
    <text x="696.0" y="278" class="tick" text-anchor="end">14:11</text>
</svg>