<svg xmlns="http://www.w3.org/2000/svg" viewBox="0 0 720 300" role="img" aria-label="/r/lobby messages per minute">
  <title>/r/lobby messages per minute</title>
  <desc>Instantaneous rate over a 20-second window. Down 62% from peak in five hours.</desc>
  <style>
    .grid      { stroke: var(--chart-grid, #d8dce4); stroke-width: 1; }
    .cap       { stroke: var(--chart-cap, #9a2b22); stroke-width: 1.5; stroke-dasharray: 5 4; }
    .cap-label { fill: var(--chart-cap, #9a2b22); font: 600 11px Archivo, system-ui, sans-serif; letter-spacing: .04em; }
    .tick      { fill: var(--chart-muted, #737c8c); font: 500 11px "IBM Plex Mono", ui-monospace, monospace; }
    .tick-y    { text-anchor: end; }
    .tick-x    { text-anchor: middle; }
    .series    { fill: none; stroke: var(--chart-line, #a25c00); stroke-width: 2.5; stroke-linejoin: round; stroke-linecap: round; }
    .fill      { fill: var(--chart-fill, rgba(162,92,0,.10)); stroke: none; }
    .dot       { fill: var(--chart-line, #a25c00); }
    .dot-last  { stroke: var(--chart-bg, #fff); stroke-width: 2.5; }
    .end-label { fill: var(--chart-line, #a25c00); font: 700 13px Archivo, system-ui, sans-serif; }
    .axis      { stroke: var(--chart-axis, #b9bfca); stroke-width: 1; }
  </style>
  
    <line x1="68" y1="256.0" x2="696" y2="256.0" class="grid"/>
    <text x="58" y="260.0" class="tick tick-y">0</text>
    <line x1="68" y1="198.0" x2="696" y2="198.0" class="grid"/>
    <text x="58" y="202.0" class="tick tick-y">1.0k</text>
    <line x1="68" y1="140.0" x2="696" y2="140.0" class="grid"/>
    <text x="58" y="144.0" class="tick tick-y">2.0k</text>
    <line x1="68" y1="82.0" x2="696" y2="82.0" class="grid"/>
    <text x="58" y="86.0" class="tick tick-y">3.0k</text>
    <line x1="68" y1="24.0" x2="696" y2="24.0" class="grid"/>
    <text x="58" y="28.0" class="tick tick-y">4.0k</text>
  <path d="M68.0,206.1 L78.5,177.7 L94.0,226.1 L94.4,232.5 L94.6,225.5 L95.5,226.7 L98.3,223.4 L105.7,193.3 L109.8,185.8 L114.9,182.3 L117.8,189.6 L121.9,182.3 L124.6,162.0 L133.6,186.9 L136.4,179.2 L141.2,154.3 L143.8,149.6 L149.3,181.5 L152.9,144.5 L160.1,153.6 L173.4,160.8 L194.9,102.3 L195.0,96.2 L205.7,87.9 L239.3,191.7 L267.2,183.5 L286.7,176.1 L287.4,173.8 L346.3,162.0 L346.8,170.5 L347.2,157.1 L354.2,160.7 L371.2,176.2 L383.8,193.1 L394.0,151.8 L422.1,96.2 L425.2,54.6 L456.1,81.1 L494.1,74.1 L520.1,102.2 L551.5,138.7 L568.1,145.3 L620.4,120.9 L642.2,198.4 L657.7,105.4 L673.1,162.8 L686.2,43.7 L696.0,186.2 L696.0,256.0 L68.0,256.0 Z" class="fill"/>
  
  <path d="M68.0,206.1 L78.5,177.7 L94.0,226.1 L94.4,232.5 L94.6,225.5 L95.5,226.7 L98.3,223.4 L105.7,193.3 L109.8,185.8 L114.9,182.3 L117.8,189.6 L121.9,182.3 L124.6,162.0 L133.6,186.9 L136.4,179.2 L141.2,154.3 L143.8,149.6 L149.3,181.5 L152.9,144.5 L160.1,153.6 L173.4,160.8 L194.9,102.3 L195.0,96.2 L205.7,87.9 L239.3,191.7 L267.2,183.5 L286.7,176.1 L287.4,173.8 L346.3,162.0 L346.8,170.5 L347.2,157.1 L354.2,160.7 L371.2,176.2 L383.8,193.1 L394.0,151.8 L422.1,96.2 L425.2,54.6 L456.1,81.1 L494.1,74.1 L520.1,102.2 L551.5,138.7 L568.1,145.3 L620.4,120.9 L642.2,198.4 L657.7,105.4 L673.1,162.8 L686.2,43.7 L696.0,186.2" class="series"/>
  <circle cx="68.0" cy="206.1" r="3.5" class="dot"><title>14:00 — 860/min</title></circle><circle cx="78.5" cy="177.7" r="3.5" class="dot"><title>17:20 — 1,350/min</title></circle><circle cx="94.0" cy="226.1" r="3.5" class="dot"><title>22:16 — 515/min</title></circle><circle cx="94.4" cy="232.5" r="3.5" class="dot"><title>22:24 — 405/min</title></circle><circle cx="94.6" cy="225.5" r="3.5" class="dot"><title>22:27 — 526/min</title></circle><circle cx="95.5" cy="226.7" r="3.5" class="dot"><title>22:45 — 505/min</title></circle><circle cx="98.3" cy="223.4" r="3.5" class="dot"><title>23:38 — 562/min</title></circle><circle cx="105.7" cy="193.3" r="3.5" class="dot"><title>01:59 — 1,081/min</title></circle><circle cx="109.8" cy="185.8" r="3.5" class="dot"><title>03:18 — 1,210/min</title></circle><circle cx="114.9" cy="182.3" r="3.5" class="dot"><title>04:56 — 1,270/min</title></circle><circle cx="117.8" cy="189.6" r="3.5" class="dot"><title>05:50 — 1,145/min</title></circle><circle cx="121.9" cy="182.3" r="3.5" class="dot"><title>07:09 — 1,271/min</title></circle><circle cx="124.6" cy="162.0" r="3.5" class="dot"><title>08:00 — 1,620/min</title></circle><circle cx="133.6" cy="186.9" r="3.5" class="dot"><title>10:52 — 1,191/min</title></circle><circle cx="136.4" cy="179.2" r="3.5" class="dot"><title>11:45 — 1,325/min</title></circle><circle cx="141.2" cy="154.3" r="3.5" class="dot"><title>13:17 — 1,753/min</title></circle><circle cx="143.8" cy="149.6" r="3.5" class="dot"><title>14:08 — 1,834/min</title></circle><circle cx="149.3" cy="181.5" r="3.5" class="dot"><title>15:53 — 1,285/min</title></circle><circle cx="152.9" cy="144.5" r="3.5" class="dot"><title>17:00 — 1,923/min</title></circle><circle cx="160.1" cy="153.6" r="3.5" class="dot"><title>19:19 — 1,766/min</title></circle><circle cx="173.4" cy="160.8" r="3.5" class="dot"><title>23:33 — 1,642/min</title></circle><circle cx="194.9" cy="102.3" r="3.5" class="dot"><title>06:22 — 2,650/min</title></circle><circle cx="195.0" cy="96.2" r="3.5" class="dot"><title>06:25 — 2,756/min</title></circle><circle cx="205.7" cy="87.9" r="3.5" class="dot"><title>09:49 — 2,899/min</title></circle><circle cx="239.3" cy="191.7" r="3.5" class="dot"><title>20:30 — 1,109/min</title></circle><circle cx="267.2" cy="183.5" r="3.5" class="dot"><title>05:24 — 1,250/min</title></circle><circle cx="286.7" cy="176.1" r="3.5" class="dot"><title>11:36 — 1,378/min</title></circle><circle cx="287.4" cy="173.8" r="3.5" class="dot"><title>11:48 — 1,417/min</title></circle><circle cx="346.3" cy="162.0" r="3.5" class="dot"><title>06:33 — 1,620/min</title></circle><circle cx="346.8" cy="170.5" r="3.5" class="dot"><title>06:43 — 1,474/min</title></circle><circle cx="347.2" cy="157.1" r="3.5" class="dot"><title>06:51 — 1,706/min</title></circle><circle cx="354.2" cy="160.7" r="3.5" class="dot"><title>09:04 — 1,643/min</title></circle><circle cx="371.2" cy="176.2" r="3.5" class="dot"><title>14:29 — 1,376/min</title></circle><circle cx="383.8" cy="193.1" r="3.5" class="dot"><title>18:30 — 1,085/min</title></circle><circle cx="394.0" cy="151.8" r="3.5" class="dot"><title>21:45 — 1,796/min</title></circle><circle cx="422.1" cy="96.2" r="3.5" class="dot"><title>06:40 — 2,755/min</title></circle><circle cx="425.2" cy="54.6" r="3.5" class="dot"><title>07:40 — 3,473/min</title></circle><circle cx="456.1" cy="81.1" r="3.5" class="dot"><title>17:30 — 3,015/min</title></circle><circle cx="494.1" cy="74.1" r="3.5" class="dot"><title>05:36 — 3,137/min</title></circle><circle cx="520.1" cy="102.2" r="3.5" class="dot"><title>13:52 — 2,651/min</title></circle><circle cx="551.5" cy="138.7" r="3.5" class="dot"><title>23:51 — 2,022/min</title></circle><circle cx="568.1" cy="145.3" r="3.5" class="dot"><title>05:09 — 1,908/min</title></circle><circle cx="620.4" cy="120.9" r="3.5" class="dot"><title>21:47 — 2,329/min</title></circle><circle cx="642.2" cy="198.4" r="3.5" class="dot"><title>04:42 — 993/min</title></circle><circle cx="657.7" cy="105.4" r="3.5" class="dot"><title>09:38 — 2,597/min</title></circle><circle cx="673.1" cy="162.8" r="3.5" class="dot"><title>14:32 — 1,607/min</title></circle><circle cx="686.2" cy="43.7" r="3.5" class="dot"><title>18:43 — 3,660/min</title></circle><circle cx="696.0" cy="186.2" r="5" class="dot dot-last"><title>21:50 — 1,204/min</title></circle>
  <text x="696.0" y="172.2" class="end-label" text-anchor="end">1,204/min</text>
  <line x1="68" y1="256" x2="696" y2="256" class="axis"/>
  
    <text x="68.0" y="278" class="tick" text-anchor="start">14:00</text>
    <text x="109.8" y="278" class="tick" text-anchor="middle">03:18</text>
    <text x="143.8" y="278" class="tick" text-anchor="middle">14:08</text>
    <text x="239.3" y="278" class="tick" text-anchor="middle">20:30</text>
    <text x="371.2" y="278" class="tick" text-anchor="middle">14:29</text>
    <text x="551.5" y="278" class="tick" text-anchor="middle">23:51</text>
    <text x="696.0" y="278" class="tick" text-anchor="end">21:50</text>
</svg>