<svg xmlns="http://www.w3.org/2000/svg" viewBox="0 0 720 300" role="img" aria-label="/r/lobby messages per minute">
  <title>/r/lobby messages per minute</title>
  <desc>Instantaneous rate over a 20-second window. Flat over the last quarter of the window, 1,926/min at the last reading.</desc>
  <style>
    .grid      { stroke: var(--chart-grid, #d8dce4); stroke-width: 1; }
    .cap       { stroke: var(--chart-cap, #9a2b22); stroke-width: 1.5; stroke-dasharray: 5 4; }
    .cap-label { fill: var(--chart-cap, #9a2b22); font: 600 11px Archivo, system-ui, sans-serif; letter-spacing: .04em; }
    .tick      { fill: var(--chart-muted, #737c8c); font: 500 11px "IBM Plex Mono", ui-monospace, monospace; }
    .tick-y    { text-anchor: end; }
    .tick-x    { text-anchor: middle; }
    .series    { fill: none; stroke: var(--chart-line, #a25c00); stroke-width: 2.5; stroke-linejoin: round; stroke-linecap: round; }
    .fill      { fill: var(--chart-fill, rgba(162,92,0,.10)); stroke: none; }
    .dot       { fill: var(--chart-line, #a25c00); }
    .dot-last  { stroke: var(--chart-bg, #fff); stroke-width: 2.5; }
    .end-label { fill: var(--chart-line, #a25c00); font: 700 13px Archivo, system-ui, sans-serif; }
    .axis      { stroke: var(--chart-axis, #b9bfca); stroke-width: 1; }
  </style>
  
    <line x1="68" y1="256.0" x2="696" y2="256.0" class="grid"/>
    <text x="58" y="260.0" class="tick tick-y">0</text>
    <line x1="68" y1="198.0" x2="696" y2="198.0" class="grid"/>
    <text x="58" y="202.0" class="tick tick-y">1.3k</text>
    <line x1="68" y1="140.0" x2="696" y2="140.0" class="grid"/>
    <text x="58" y="144.0" class="tick tick-y">2.5k</text>
    <line x1="68" y1="82.0" x2="696" y2="82.0" class="grid"/>
    <text x="58" y="86.0" class="tick tick-y">3.8k</text>
    <line x1="68" y1="24.0" x2="696" y2="24.0" class="grid"/>
    <text x="58" y="28.0" class="tick tick-y">5.0k</text>
  <path d="M68.0,216.1 L72.1,193.4 L78.1,232.1 L78.3,237.2 L78.3,231.6 L78.7,232.6 L79.8,229.9 L82.6,205.8 L84.2,199.9 L86.2,197.1 L87.3,202.9 L88.9,197.0 L90.0,180.8 L93.5,200.7 L94.6,194.5 L96.4,174.7 L97.5,170.9 L99.6,196.4 L101.0,166.8 L103.8,174.1 L109.0,179.8 L117.3,133.0 L117.3,128.1 L121.5,121.5 L134.5,204.5 L145.4,198.0 L153.0,192.1 L153.2,190.3 L176.1,180.8 L176.3,187.6 L176.5,176.8 L179.2,179.8 L185.8,192.2 L190.7,205.7 L194.7,172.7 L205.6,128.2 L206.8,94.9 L218.8,116.1 L233.6,110.4 L243.7,133.0 L255.8,162.2 L262.3,167.5 L282.6,147.9 L291.1,209.9 L297.1,135.5 L303.1,181.4 L308.2,86.2 L312.0,200.1 L315.0,181.8 L320.3,208.7 L326.7,143.3 L341.1,200.7 L344.1,222.0 L349.5,162.8 L361.5,164.5 L366.4,126.9 L370.2,165.6 L373.4,134.0 L378.7,139.8 L384.3,111.3 L388.8,149.6 L392.9,236.0 L395.6,91.9 L399.2,131.1 L401.3,116.5 L403.7,158.8 L409.8,157.5 L415.9,53.9 L419.9,55.1 L423.4,87.9 L426.0,114.2 L431.7,174.8 L437.6,185.3 L444.4,143.7 L451.9,137.7 L457.0,206.7 L460.5,211.6 L466.8,179.2 L473.0,194.5 L478.9,198.5 L484.0,209.4 L487.8,215.4 L490.8,216.8 L496.3,187.3 L502.4,198.2 L508.3,154.2 L513.2,169.0 L516.9,178.4 L520.1,177.6 L525.7,164.2 L531.7,174.2 L537.4,143.2 L542.3,103.5 L546.2,160.2 L549.3,154.2 L554.8,209.9 L560.9,168.2 L566.7,187.4 L585.4,194.2 L591.5,174.5 L595.6,207.8 L599.3,205.6 L602.0,189.8 L605.6,207.3 L608.9,227.6 L615.2,209.2 L622.2,198.9 L627.6,205.6 L631.4,239.2 L635.0,207.4 L638.3,210.1 L644.7,188.9 L654.1,216.2 L660.6,208.0 L665.2,199.3 L668.1,203.6 L675.7,216.7 L682.8,203.6 L688.5,204.2 L692.4,214.4 L696.0,166.6 L696.0,256.0 L68.0,256.0 Z" class="fill"/>
  
  <path d="M68.0,216.1 L72.1,193.4 L78.1,232.1 L78.3,237.2 L78.3,231.6 L78.7,232.6 L79.8,229.9 L82.6,205.8 L84.2,199.9 L86.2,197.1 L87.3,202.9 L88.9,197.0 L90.0,180.8 L93.5,200.7 L94.6,194.5 L96.4,174.7 L97.5,170.9 L99.6,196.4 L101.0,166.8 L103.8,174.1 L109.0,179.8 L117.3,133.0 L117.3,128.1 L121.5,121.5 L134.5,204.5 L145.4,198.0 L153.0,192.1 L153.2,190.3 L176.1,180.8 L176.3,187.6 L176.5,176.8 L179.2,179.8 L185.8,192.2 L190.7,205.7 L194.7,172.7 L205.6,128.2 L206.8,94.9 L218.8,116.1 L233.6,110.4 L243.7,133.0 L255.8,162.2 L262.3,167.5 L282.6,147.9 L291.1,209.9 L297.1,135.5 L303.1,181.4 L308.2,86.2 L312.0,200.1 L315.0,181.8 L320.3,208.7 L326.7,143.3 L341.1,200.7 L344.1,222.0 L349.5,162.8 L361.5,164.5 L366.4,126.9 L370.2,165.6 L373.4,134.0 L378.7,139.8 L384.3,111.3 L388.8,149.6 L392.9,236.0 L395.6,91.9 L399.2,131.1 L401.3,116.5 L403.7,158.8 L409.8,157.5 L415.9,53.9 L419.9,55.1 L423.4,87.9 L426.0,114.2 L431.7,174.8 L437.6,185.3 L444.4,143.7 L451.9,137.7 L457.0,206.7 L460.5,211.6 L466.8,179.2 L473.0,194.5 L478.9,198.5 L484.0,209.4 L487.8,215.4 L490.8,216.8 L496.3,187.3 L502.4,198.2 L508.3,154.2 L513.2,169.0 L516.9,178.4 L520.1,177.6 L525.7,164.2 L531.7,174.2 L537.4,143.2 L542.3,103.5 L546.2,160.2 L549.3,154.2 L554.8,209.9 L560.9,168.2 L566.7,187.4 L585.4,194.2 L591.5,174.5 L595.6,207.8 L599.3,205.6 L602.0,189.8 L605.6,207.3 L608.9,227.6 L615.2,209.2 L622.2,198.9 L627.6,205.6 L631.4,239.2 L635.0,207.4 L638.3,210.1 L644.7,188.9 L654.1,216.2 L660.6,208.0 L665.2,199.3 L668.1,203.6 L675.7,216.7 L682.8,203.6 L688.5,204.2 L692.4,214.4 L696.0,166.6" class="series"/>
  <circle cx="68.0" cy="216.1" r="3.5" class="dot"><title>14:00 — 860/min</title></circle><circle cx="72.1" cy="193.4" r="3.5" class="dot"><title>17:20 — 1,350/min</title></circle><circle cx="78.1" cy="232.1" r="3.5" class="dot"><title>22:16 — 515/min</title></circle><circle cx="78.3" cy="237.2" r="3.5" class="dot"><title>22:24 — 405/min</title></circle><circle cx="78.3" cy="231.6" r="3.5" class="dot"><title>22:27 — 526/min</title></circle><circle cx="78.7" cy="232.6" r="3.5" class="dot"><title>22:45 — 505/min</title></circle><circle cx="79.8" cy="229.9" r="3.5" class="dot"><title>23:38 — 562/min</title></circle><circle cx="82.6" cy="205.8" r="3.5" class="dot"><title>01:59 — 1,081/min</title></circle><circle cx="84.2" cy="199.9" r="3.5" class="dot"><title>03:18 — 1,210/min</title></circle><circle cx="86.2" cy="197.1" r="3.5" class="dot"><title>04:56 — 1,270/min</title></circle><circle cx="87.3" cy="202.9" r="3.5" class="dot"><title>05:50 — 1,145/min</title></circle><circle cx="88.9" cy="197.0" r="3.5" class="dot"><title>07:09 — 1,271/min</title></circle><circle cx="90.0" cy="180.8" r="3.5" class="dot"><title>08:00 — 1,620/min</title></circle><circle cx="93.5" cy="200.7" r="3.5" class="dot"><title>10:52 — 1,191/min</title></circle><circle cx="94.6" cy="194.5" r="3.5" class="dot"><title>11:45 — 1,325/min</title></circle><circle cx="96.4" cy="174.7" r="3.5" class="dot"><title>13:17 — 1,753/min</title></circle><circle cx="97.5" cy="170.9" r="3.5" class="dot"><title>14:08 — 1,834/min</title></circle><circle cx="99.6" cy="196.4" r="3.5" class="dot"><title>15:53 — 1,285/min</title></circle><circle cx="101.0" cy="166.8" r="3.5" class="dot"><title>17:00 — 1,923/min</title></circle><circle cx="103.8" cy="174.1" r="3.5" class="dot"><title>19:19 — 1,766/min</title></circle><circle cx="109.0" cy="179.8" r="3.5" class="dot"><title>23:33 — 1,642/min</title></circle><circle cx="117.3" cy="133.0" r="3.5" class="dot"><title>06:22 — 2,650/min</title></circle><circle cx="117.3" cy="128.1" r="3.5" class="dot"><title>06:25 — 2,756/min</title></circle><circle cx="121.5" cy="121.5" r="3.5" class="dot"><title>09:49 — 2,899/min</title></circle><circle cx="134.5" cy="204.5" r="3.5" class="dot"><title>20:30 — 1,109/min</title></circle><circle cx="145.4" cy="198.0" r="3.5" class="dot"><title>05:24 — 1,250/min</title></circle><circle cx="153.0" cy="192.1" r="3.5" class="dot"><title>11:36 — 1,378/min</title></circle><circle cx="153.2" cy="190.3" r="3.5" class="dot"><title>11:48 — 1,417/min</title></circle><circle cx="176.1" cy="180.8" r="3.5" class="dot"><title>06:33 — 1,620/min</title></circle><circle cx="176.3" cy="187.6" r="3.5" class="dot"><title>06:43 — 1,474/min</title></circle><circle cx="176.5" cy="176.8" r="3.5" class="dot"><title>06:51 — 1,706/min</title></circle><circle cx="179.2" cy="179.8" r="3.5" class="dot"><title>09:04 — 1,643/min</title></circle><circle cx="185.8" cy="192.2" r="3.5" class="dot"><title>14:29 — 1,376/min</title></circle><circle cx="190.7" cy="205.7" r="3.5" class="dot"><title>18:30 — 1,085/min</title></circle><circle cx="194.7" cy="172.7" r="3.5" class="dot"><title>21:45 — 1,796/min</title></circle><circle cx="205.6" cy="128.2" r="3.5" class="dot"><title>06:40 — 2,755/min</title></circle><circle cx="206.8" cy="94.9" r="3.5" class="dot"><title>07:40 — 3,473/min</title></circle><circle cx="218.8" cy="116.1" r="3.5" class="dot"><title>17:30 — 3,015/min</title></circle><circle cx="233.6" cy="110.4" r="3.5" class="dot"><title>05:36 — 3,137/min</title></circle><circle cx="243.7" cy="133.0" r="3.5" class="dot"><title>13:52 — 2,651/min</title></circle><circle cx="255.8" cy="162.2" r="3.5" class="dot"><title>23:51 — 2,022/min</title></circle><circle cx="262.3" cy="167.5" r="3.5" class="dot"><title>05:09 — 1,908/min</title></circle><circle cx="282.6" cy="147.9" r="3.5" class="dot"><title>21:47 — 2,329/min</title></circle><circle cx="291.1" cy="209.9" r="3.5" class="dot"><title>04:42 — 993/min</title></circle><circle cx="297.1" cy="135.5" r="3.5" class="dot"><title>09:38 — 2,597/min</title></circle><circle cx="303.1" cy="181.4" r="3.5" class="dot"><title>14:32 — 1,607/min</title></circle><circle cx="308.2" cy="86.2" r="3.5" class="dot"><title>18:43 — 3,660/min</title></circle><circle cx="312.0" cy="200.1" r="3.5" class="dot"><title>21:50 — 1,204/min</title></circle><circle cx="315.0" cy="181.8" r="3.5" class="dot"><title>00:16 — 1,600/min</title></circle><circle cx="320.3" cy="208.7" r="3.5" class="dot"><title>04:39 — 1,020/min</title></circle><circle cx="326.7" cy="143.3" r="3.5" class="dot"><title>09:51 — 2,429/min</title></circle><circle cx="341.1" cy="200.7" r="3.5" class="dot"><title>21:43 — 1,191/min</title></circle><circle cx="344.1" cy="222.0" r="3.5" class="dot"><title>00:06 — 733/min</title></circle><circle cx="349.5" cy="162.8" r="3.5" class="dot"><title>04:34 — 2,009/min</title></circle><circle cx="361.5" cy="164.5" r="3.5" class="dot"><title>14:22 — 1,973/min</title></circle><circle cx="366.4" cy="126.9" r="3.5" class="dot"><title>18:24 — 2,783/min</title></circle><circle cx="370.2" cy="165.6" r="3.5" class="dot"><title>21:29 — 1,949/min</title></circle><circle cx="373.4" cy="134.0" r="3.5" class="dot"><title>00:07 — 2,629/min</title></circle><circle cx="378.7" cy="139.8" r="3.5" class="dot"><title>04:30 — 2,505/min</title></circle><circle cx="384.3" cy="111.3" r="3.5" class="dot"><title>09:05 — 3,118/min</title></circle><circle cx="388.8" cy="149.6" r="3.5" class="dot"><title>12:43 — 2,294/min</title></circle><circle cx="392.9" cy="236.0" r="3.5" class="dot"><title>16:05 — 430/min</title></circle><circle cx="395.6" cy="91.9" r="3.5" class="dot"><title>18:19 — 3,536/min</title></circle><circle cx="399.2" cy="131.1" r="3.5" class="dot"><title>21:15 — 2,692/min</title></circle><circle cx="401.3" cy="116.5" r="3.5" class="dot"><title>22:57 — 3,007/min</title></circle><circle cx="403.7" cy="158.8" r="3.5" class="dot"><title>00:58 — 2,094/min</title></circle><circle cx="409.8" cy="157.5" r="3.5" class="dot"><title>05:58 — 2,123/min</title></circle><circle cx="415.9" cy="53.9" r="3.5" class="dot"><title>10:57 — 4,356/min</title></circle><circle cx="419.9" cy="55.1" r="3.5" class="dot"><title>14:11 — 4,330/min</title></circle><circle cx="423.4" cy="87.9" r="3.5" class="dot"><title>17:03 — 3,622/min</title></circle><circle cx="426.0" cy="114.2" r="3.5" class="dot"><title>19:11 — 3,055/min</title></circle><circle cx="431.7" cy="174.8" r="3.5" class="dot"><title>23:55 — 1,751/min</title></circle><circle cx="437.6" cy="185.3" r="3.5" class="dot"><title>04:42 — 1,523/min</title></circle><circle cx="444.4" cy="143.7" r="3.5" class="dot"><title>10:19 — 2,421/min</title></circle><circle cx="451.9" cy="137.7" r="3.5" class="dot"><title>16:27 — 2,550/min</title></circle><circle cx="457.0" cy="206.7" r="3.5" class="dot"><title>20:34 — 1,063/min</title></circle><circle cx="460.5" cy="211.6" r="3.5" class="dot"><title>23:30 — 957/min</title></circle><circle cx="466.8" cy="179.2" r="3.5" class="dot"><title>04:37 — 1,656/min</title></circle><circle cx="473.0" cy="194.5" r="3.5" class="dot"><title>09:41 — 1,326/min</title></circle><circle cx="478.9" cy="198.5" r="3.5" class="dot"><title>14:33 — 1,240/min</title></circle><circle cx="484.0" cy="209.4" r="3.5" class="dot"><title>18:41 — 1,005/min</title></circle><circle cx="487.8" cy="215.4" r="3.5" class="dot"><title>21:51 — 874/min</title></circle><circle cx="490.8" cy="216.8" r="3.5" class="dot"><title>00:15 — 845/min</title></circle><circle cx="496.3" cy="187.3" r="3.5" class="dot"><title>04:48 — 1,480/min</title></circle><circle cx="502.4" cy="198.2" r="3.5" class="dot"><title>09:46 — 1,246/min</title></circle><circle cx="508.3" cy="154.2" r="3.5" class="dot"><title>14:36 — 2,193/min</title></circle><circle cx="513.2" cy="169.0" r="3.5" class="dot"><title>18:37 — 1,876/min</title></circle><circle cx="516.9" cy="178.4" r="3.5" class="dot"><title>21:42 — 1,672/min</title></circle><circle cx="520.1" cy="177.6" r="3.5" class="dot"><title>00:15 — 1,690/min</title></circle><circle cx="525.7" cy="164.2" r="3.5" class="dot"><title>04:50 — 1,978/min</title></circle><circle cx="531.7" cy="174.2" r="3.5" class="dot"><title>09:45 — 1,762/min</title></circle><circle cx="537.4" cy="143.2" r="3.5" class="dot"><title>14:27 — 2,431/min</title></circle><circle cx="542.3" cy="103.5" r="3.5" class="dot"><title>18:29 — 3,286/min</title></circle><circle cx="546.2" cy="160.2" r="3.5" class="dot"><title>21:38 — 2,064/min</title></circle><circle cx="549.3" cy="154.2" r="3.5" class="dot"><title>00:11 — 2,194/min</title></circle><circle cx="554.8" cy="209.9" r="3.5" class="dot"><title>04:41 — 994/min</title></circle><circle cx="560.9" cy="168.2" r="3.5" class="dot"><title>09:42 — 1,893/min</title></circle><circle cx="566.7" cy="187.4" r="3.5" class="dot"><title>14:26 — 1,478/min</title></circle><circle cx="585.4" cy="194.2" r="3.5" class="dot"><title>05:48 — 1,331/min</title></circle><circle cx="591.5" cy="174.5" r="3.5" class="dot"><title>10:47 — 1,757/min</title></circle><circle cx="595.6" cy="207.8" r="3.5" class="dot"><title>14:08 — 1,039/min</title></circle><circle cx="599.3" cy="205.6" r="3.5" class="dot"><title>17:11 — 1,087/min</title></circle><circle cx="602.0" cy="189.8" r="3.5" class="dot"><title>19:22 — 1,427/min</title></circle><circle cx="605.6" cy="207.3" r="3.5" class="dot"><title>22:18 — 1,050/min</title></circle><circle cx="608.9" cy="227.6" r="3.5" class="dot"><title>01:01 — 612/min</title></circle><circle cx="615.2" cy="209.2" r="3.5" class="dot"><title>06:10 — 1,008/min</title></circle><circle cx="622.2" cy="198.9" r="3.5" class="dot"><title>11:53 — 1,230/min</title></circle><circle cx="627.6" cy="205.6" r="3.5" class="dot"><title>16:18 — 1,086/min</title></circle><circle cx="631.4" cy="239.2" r="3.5" class="dot"><title>19:27 — 361/min</title></circle><circle cx="635.0" cy="207.4" r="3.5" class="dot"><title>22:25 — 1,047/min</title></circle><circle cx="638.3" cy="210.1" r="3.5" class="dot"><title>01:05 — 989/min</title></circle><circle cx="644.7" cy="188.9" r="3.5" class="dot"><title>06:18 — 1,446/min</title></circle><circle cx="654.1" cy="216.2" r="3.5" class="dot"><title>14:03 — 857/min</title></circle><circle cx="660.6" cy="208.0" r="3.5" class="dot"><title>19:22 — 1,035/min</title></circle><circle cx="665.2" cy="199.3" r="3.5" class="dot"><title>23:08 — 1,222/min</title></circle><circle cx="668.1" cy="203.6" r="3.5" class="dot"><title>01:28 — 1,129/min</title></circle><circle cx="675.7" cy="216.7" r="3.5" class="dot"><title>07:45 — 846/min</title></circle><circle cx="682.8" cy="203.6" r="3.5" class="dot"><title>13:34 — 1,129/min</title></circle><circle cx="688.5" cy="204.2" r="3.5" class="dot"><title>18:12 — 1,116/min</title></circle><circle cx="692.4" cy="214.4" r="3.5" class="dot"><title>21:22 — 897/min</title></circle><circle cx="696.0" cy="166.6" r="5" class="dot dot-last"><title>00:21 — 1,926/min</title></circle>
  <text x="696.0" y="152.6" class="end-label" text-anchor="end">1,926/min</text>
  <line x1="68" y1="256" x2="696" y2="256" class="axis"/>
  
    <text x="68.0" y="278" class="tick" text-anchor="start">14:00</text>
    <text x="117.3" y="278" class="tick" text-anchor="middle">06:22</text>
    <text x="282.6" y="278" class="tick" text-anchor="middle">21:47</text>
    <text x="399.2" y="278" class="tick" text-anchor="middle">21:15</text>
    <text x="502.4" y="278" class="tick" text-anchor="middle">09:46</text>
    <text x="615.2" y="278" class="tick" text-anchor="middle">06:10</text>
    <text x="696.0" y="278" class="tick" text-anchor="end">00:21</text>
</svg>