<svg xmlns="http://www.w3.org/2000/svg" viewBox="0 0 720 300" role="img" aria-label="/r/lobby messages per minute">
  <title>/r/lobby messages per minute</title>
  <desc>Instantaneous rate over a 20-second window. Down 17% over the last quarter of the window, 1,035/min at the last reading.</desc>
  <style>
    .grid      { stroke: var(--chart-grid, #d8dce4); stroke-width: 1; }
    .cap       { stroke: var(--chart-cap, #9a2b22); stroke-width: 1.5; stroke-dasharray: 5 4; }
    .cap-label { fill: var(--chart-cap, #9a2b22); font: 600 11px Archivo, system-ui, sans-serif; letter-spacing: .04em; }
    .tick      { fill: var(--chart-muted, #737c8c); font: 500 11px "IBM Plex Mono", ui-monospace, monospace; }
    .tick-y    { text-anchor: end; }
    .tick-x    { text-anchor: middle; }
    .series    { fill: none; stroke: var(--chart-line, #a25c00); stroke-width: 2.5; stroke-linejoin: round; stroke-linecap: round; }
    .fill      { fill: var(--chart-fill, rgba(162,92,0,.10)); stroke: none; }
    .dot       { fill: var(--chart-line, #a25c00); }
    .dot-last  { stroke: var(--chart-bg, #fff); stroke-width: 2.5; }
    .end-label { fill: var(--chart-line, #a25c00); font: 700 13px Archivo, system-ui, sans-serif; }
    .axis      { stroke: var(--chart-axis, #b9bfca); stroke-width: 1; }
  </style>
  
    <line x1="68" y1="256.0" x2="696" y2="256.0" class="grid"/>
    <text x="58" y="260.0" class="tick tick-y">0</text>
    <line x1="68" y1="198.0" x2="696" y2="198.0" class="grid"/>
    <text x="58" y="202.0" class="tick tick-y">1.3k</text>
    <line x1="68" y1="140.0" x2="696" y2="140.0" class="grid"/>
    <text x="58" y="144.0" class="tick tick-y">2.5k</text>
    <line x1="68" y1="82.0" x2="696" y2="82.0" class="grid"/>
    <text x="58" y="86.0" class="tick tick-y">3.8k</text>
    <line x1="68" y1="24.0" x2="696" y2="24.0" class="grid"/>
    <text x="58" y="28.0" class="tick tick-y">5.0k</text>
  <path d="M68.0,216.1 L72.3,193.4 L78.7,232.1 L78.9,237.2 L78.9,231.6 L79.3,232.6 L80.5,229.9 L83.5,205.8 L85.2,199.9 L87.3,197.1 L88.5,202.9 L90.2,197.0 L91.3,180.8 L95.0,200.7 L96.1,194.5 L98.1,174.7 L99.2,170.9 L101.5,196.4 L102.9,166.8 L105.9,174.1 L111.4,179.8 L120.2,133.0 L120.3,128.1 L124.7,121.5 L138.5,204.5 L150.0,198.0 L158.1,192.1 L158.3,190.3 L182.6,180.8 L182.8,187.6 L183.0,176.8 L185.8,179.8 L192.8,192.2 L198.0,205.7 L202.2,172.7 L213.8,128.2 L215.1,94.9 L227.8,116.1 L243.4,110.4 L254.1,133.0 L267.1,162.2 L273.9,167.5 L295.4,147.9 L304.4,209.9 L310.8,135.5 L317.1,181.4 L322.5,86.2 L326.6,200.1 L329.7,181.8 L335.4,208.7 L342.1,143.3 L357.5,200.7 L360.5,222.0 L366.3,162.8 L379.0,164.5 L384.2,126.9 L388.2,165.6 L391.6,134.0 L397.3,139.8 L403.2,111.3 L407.9,149.6 L412.3,236.0 L415.2,91.9 L419.0,131.1 L421.2,116.5 L423.8,158.8 L430.2,157.5 L436.7,53.9 L440.9,55.1 L444.6,87.9 L447.3,114.2 L453.5,174.8 L459.7,185.3 L466.9,143.7 L474.9,137.7 L480.2,206.7 L484.0,211.6 L490.6,179.2 L497.2,194.5 L503.5,198.5 L508.8,209.4 L512.9,215.4 L516.0,216.8 L521.9,187.3 L528.3,198.2 L534.6,154.2 L539.8,169.0 L543.8,178.4 L547.1,177.6 L553.0,164.2 L559.3,174.2 L565.4,143.2 L570.6,103.5 L574.7,160.2 L578.0,154.2 L583.8,209.9 L590.3,168.2 L596.5,187.4 L616.3,194.2 L622.8,174.5 L627.1,207.8 L631.1,205.6 L633.9,189.8 L637.7,207.3 L641.2,227.6 L647.9,209.2 L655.3,198.9 L661.0,205.6 L665.1,239.2 L668.9,207.4 L672.3,210.1 L679.1,188.9 L689.1,216.2 L696.0,208.0 L696.0,256.0 L68.0,256.0 Z" class="fill"/>
  
  <path d="M68.0,216.1 L72.3,193.4 L78.7,232.1 L78.9,237.2 L78.9,231.6 L79.3,232.6 L80.5,229.9 L83.5,205.8 L85.2,199.9 L87.3,197.1 L88.5,202.9 L90.2,197.0 L91.3,180.8 L95.0,200.7 L96.1,194.5 L98.1,174.7 L99.2,170.9 L101.5,196.4 L102.9,166.8 L105.9,174.1 L111.4,179.8 L120.2,133.0 L120.3,128.1 L124.7,121.5 L138.5,204.5 L150.0,198.0 L158.1,192.1 L158.3,190.3 L182.6,180.8 L182.8,187.6 L183.0,176.8 L185.8,179.8 L192.8,192.2 L198.0,205.7 L202.2,172.7 L213.8,128.2 L215.1,94.9 L227.8,116.1 L243.4,110.4 L254.1,133.0 L267.1,162.2 L273.9,167.5 L295.4,147.9 L304.4,209.9 L310.8,135.5 L317.1,181.4 L322.5,86.2 L326.6,200.1 L329.7,181.8 L335.4,208.7 L342.1,143.3 L357.5,200.7 L360.5,222.0 L366.3,162.8 L379.0,164.5 L384.2,126.9 L388.2,165.6 L391.6,134.0 L397.3,139.8 L403.2,111.3 L407.9,149.6 L412.3,236.0 L415.2,91.9 L419.0,131.1 L421.2,116.5 L423.8,158.8 L430.2,157.5 L436.7,53.9 L440.9,55.1 L444.6,87.9 L447.3,114.2 L453.5,174.8 L459.7,185.3 L466.9,143.7 L474.9,137.7 L480.2,206.7 L484.0,211.6 L490.6,179.2 L497.2,194.5 L503.5,198.5 L508.8,209.4 L512.9,215.4 L516.0,216.8 L521.9,187.3 L528.3,198.2 L534.6,154.2 L539.8,169.0 L543.8,178.4 L547.1,177.6 L553.0,164.2 L559.3,174.2 L565.4,143.2 L570.6,103.5 L574.7,160.2 L578.0,154.2 L583.8,209.9 L590.3,168.2 L596.5,187.4 L616.3,194.2 L622.8,174.5 L627.1,207.8 L631.1,205.6 L633.9,189.8 L637.7,207.3 L641.2,227.6 L647.9,209.2 L655.3,198.9 L661.0,205.6 L665.1,239.2 L668.9,207.4 L672.3,210.1 L679.1,188.9 L689.1,216.2 L696.0,208.0" class="series"/>
  <circle cx="68.0" cy="216.1" r="3.5" class="dot"><title>14:00 — 860/min</title></circle><circle cx="72.3" cy="193.4" r="3.5" class="dot"><title>17:20 — 1,350/min</title></circle><circle cx="78.7" cy="232.1" r="3.5" class="dot"><title>22:16 — 515/min</title></circle><circle cx="78.9" cy="237.2" r="3.5" class="dot"><title>22:24 — 405/min</title></circle><circle cx="78.9" cy="231.6" r="3.5" class="dot"><title>22:27 — 526/min</title></circle><circle cx="79.3" cy="232.6" r="3.5" class="dot"><title>22:45 — 505/min</title></circle><circle cx="80.5" cy="229.9" r="3.5" class="dot"><title>23:38 — 562/min</title></circle><circle cx="83.5" cy="205.8" r="3.5" class="dot"><title>01:59 — 1,081/min</title></circle><circle cx="85.2" cy="199.9" r="3.5" class="dot"><title>03:18 — 1,210/min</title></circle><circle cx="87.3" cy="197.1" r="3.5" class="dot"><title>04:56 — 1,270/min</title></circle><circle cx="88.5" cy="202.9" r="3.5" class="dot"><title>05:50 — 1,145/min</title></circle><circle cx="90.2" cy="197.0" r="3.5" class="dot"><title>07:09 — 1,271/min</title></circle><circle cx="91.3" cy="180.8" r="3.5" class="dot"><title>08:00 — 1,620/min</title></circle><circle cx="95.0" cy="200.7" r="3.5" class="dot"><title>10:52 — 1,191/min</title></circle><circle cx="96.1" cy="194.5" r="3.5" class="dot"><title>11:45 — 1,325/min</title></circle><circle cx="98.1" cy="174.7" r="3.5" class="dot"><title>13:17 — 1,753/min</title></circle><circle cx="99.2" cy="170.9" r="3.5" class="dot"><title>14:08 — 1,834/min</title></circle><circle cx="101.5" cy="196.4" r="3.5" class="dot"><title>15:53 — 1,285/min</title></circle><circle cx="102.9" cy="166.8" r="3.5" class="dot"><title>17:00 — 1,923/min</title></circle><circle cx="105.9" cy="174.1" r="3.5" class="dot"><title>19:19 — 1,766/min</title></circle><circle cx="111.4" cy="179.8" r="3.5" class="dot"><title>23:33 — 1,642/min</title></circle><circle cx="120.2" cy="133.0" r="3.5" class="dot"><title>06:22 — 2,650/min</title></circle><circle cx="120.3" cy="128.1" r="3.5" class="dot"><title>06:25 — 2,756/min</title></circle><circle cx="124.7" cy="121.5" r="3.5" class="dot"><title>09:49 — 2,899/min</title></circle><circle cx="138.5" cy="204.5" r="3.5" class="dot"><title>20:30 — 1,109/min</title></circle><circle cx="150.0" cy="198.0" r="3.5" class="dot"><title>05:24 — 1,250/min</title></circle><circle cx="158.1" cy="192.1" r="3.5" class="dot"><title>11:36 — 1,378/min</title></circle><circle cx="158.3" cy="190.3" r="3.5" class="dot"><title>11:48 — 1,417/min</title></circle><circle cx="182.6" cy="180.8" r="3.5" class="dot"><title>06:33 — 1,620/min</title></circle><circle cx="182.8" cy="187.6" r="3.5" class="dot"><title>06:43 — 1,474/min</title></circle><circle cx="183.0" cy="176.8" r="3.5" class="dot"><title>06:51 — 1,706/min</title></circle><circle cx="185.8" cy="179.8" r="3.5" class="dot"><title>09:04 — 1,643/min</title></circle><circle cx="192.8" cy="192.2" r="3.5" class="dot"><title>14:29 — 1,376/min</title></circle><circle cx="198.0" cy="205.7" r="3.5" class="dot"><title>18:30 — 1,085/min</title></circle><circle cx="202.2" cy="172.7" r="3.5" class="dot"><title>21:45 — 1,796/min</title></circle><circle cx="213.8" cy="128.2" r="3.5" class="dot"><title>06:40 — 2,755/min</title></circle><circle cx="215.1" cy="94.9" r="3.5" class="dot"><title>07:40 — 3,473/min</title></circle><circle cx="227.8" cy="116.1" r="3.5" class="dot"><title>17:30 — 3,015/min</title></circle><circle cx="243.4" cy="110.4" r="3.5" class="dot"><title>05:36 — 3,137/min</title></circle><circle cx="254.1" cy="133.0" r="3.5" class="dot"><title>13:52 — 2,651/min</title></circle><circle cx="267.1" cy="162.2" r="3.5" class="dot"><title>23:51 — 2,022/min</title></circle><circle cx="273.9" cy="167.5" r="3.5" class="dot"><title>05:09 — 1,908/min</title></circle><circle cx="295.4" cy="147.9" r="3.5" class="dot"><title>21:47 — 2,329/min</title></circle><circle cx="304.4" cy="209.9" r="3.5" class="dot"><title>04:42 — 993/min</title></circle><circle cx="310.8" cy="135.5" r="3.5" class="dot"><title>09:38 — 2,597/min</title></circle><circle cx="317.1" cy="181.4" r="3.5" class="dot"><title>14:32 — 1,607/min</title></circle><circle cx="322.5" cy="86.2" r="3.5" class="dot"><title>18:43 — 3,660/min</title></circle><circle cx="326.6" cy="200.1" r="3.5" class="dot"><title>21:50 — 1,204/min</title></circle><circle cx="329.7" cy="181.8" r="3.5" class="dot"><title>00:16 — 1,600/min</title></circle><circle cx="335.4" cy="208.7" r="3.5" class="dot"><title>04:39 — 1,020/min</title></circle><circle cx="342.1" cy="143.3" r="3.5" class="dot"><title>09:51 — 2,429/min</title></circle><circle cx="357.5" cy="200.7" r="3.5" class="dot"><title>21:43 — 1,191/min</title></circle><circle cx="360.5" cy="222.0" r="3.5" class="dot"><title>00:06 — 733/min</title></circle><circle cx="366.3" cy="162.8" r="3.5" class="dot"><title>04:34 — 2,009/min</title></circle><circle cx="379.0" cy="164.5" r="3.5" class="dot"><title>14:22 — 1,973/min</title></circle><circle cx="384.2" cy="126.9" r="3.5" class="dot"><title>18:24 — 2,783/min</title></circle><circle cx="388.2" cy="165.6" r="3.5" class="dot"><title>21:29 — 1,949/min</title></circle><circle cx="391.6" cy="134.0" r="3.5" class="dot"><title>00:07 — 2,629/min</title></circle><circle cx="397.3" cy="139.8" r="3.5" class="dot"><title>04:30 — 2,505/min</title></circle><circle cx="403.2" cy="111.3" r="3.5" class="dot"><title>09:05 — 3,118/min</title></circle><circle cx="407.9" cy="149.6" r="3.5" class="dot"><title>12:43 — 2,294/min</title></circle><circle cx="412.3" cy="236.0" r="3.5" class="dot"><title>16:05 — 430/min</title></circle><circle cx="415.2" cy="91.9" r="3.5" class="dot"><title>18:19 — 3,536/min</title></circle><circle cx="419.0" cy="131.1" r="3.5" class="dot"><title>21:15 — 2,692/min</title></circle><circle cx="421.2" cy="116.5" r="3.5" class="dot"><title>22:57 — 3,007/min</title></circle><circle cx="423.8" cy="158.8" r="3.5" class="dot"><title>00:58 — 2,094/min</title></circle><circle cx="430.2" cy="157.5" r="3.5" class="dot"><title>05:58 — 2,123/min</title></circle><circle cx="436.7" cy="53.9" r="3.5" class="dot"><title>10:57 — 4,356/min</title></circle><circle cx="440.9" cy="55.1" r="3.5" class="dot"><title>14:11 — 4,330/min</title></circle><circle cx="444.6" cy="87.9" r="3.5" class="dot"><title>17:03 — 3,622/min</title></circle><circle cx="447.3" cy="114.2" r="3.5" class="dot"><title>19:11 — 3,055/min</title></circle><circle cx="453.5" cy="174.8" r="3.5" class="dot"><title>23:55 — 1,751/min</title></circle><circle cx="459.7" cy="185.3" r="3.5" class="dot"><title>04:42 — 1,523/min</title></circle><circle cx="466.9" cy="143.7" r="3.5" class="dot"><title>10:19 — 2,421/min</title></circle><circle cx="474.9" cy="137.7" r="3.5" class="dot"><title>16:27 — 2,550/min</title></circle><circle cx="480.2" cy="206.7" r="3.5" class="dot"><title>20:34 — 1,063/min</title></circle><circle cx="484.0" cy="211.6" r="3.5" class="dot"><title>23:30 — 957/min</title></circle><circle cx="490.6" cy="179.2" r="3.5" class="dot"><title>04:37 — 1,656/min</title></circle><circle cx="497.2" cy="194.5" r="3.5" class="dot"><title>09:41 — 1,326/min</title></circle><circle cx="503.5" cy="198.5" r="3.5" class="dot"><title>14:33 — 1,240/min</title></circle><circle cx="508.8" cy="209.4" r="3.5" class="dot"><title>18:41 — 1,005/min</title></circle><circle cx="512.9" cy="215.4" r="3.5" class="dot"><title>21:51 — 874/min</title></circle><circle cx="516.0" cy="216.8" r="3.5" class="dot"><title>00:15 — 845/min</title></circle><circle cx="521.9" cy="187.3" r="3.5" class="dot"><title>04:48 — 1,480/min</title></circle><circle cx="528.3" cy="198.2" r="3.5" class="dot"><title>09:46 — 1,246/min</title></circle><circle cx="534.6" cy="154.2" r="3.5" class="dot"><title>14:36 — 2,193/min</title></circle><circle cx="539.8" cy="169.0" r="3.5" class="dot"><title>18:37 — 1,876/min</title></circle><circle cx="543.8" cy="178.4" r="3.5" class="dot"><title>21:42 — 1,672/min</title></circle><circle cx="547.1" cy="177.6" r="3.5" class="dot"><title>00:15 — 1,690/min</title></circle><circle cx="553.0" cy="164.2" r="3.5" class="dot"><title>04:50 — 1,978/min</title></circle><circle cx="559.3" cy="174.2" r="3.5" class="dot"><title>09:45 — 1,762/min</title></circle><circle cx="565.4" cy="143.2" r="3.5" class="dot"><title>14:27 — 2,431/min</title></circle><circle cx="570.6" cy="103.5" r="3.5" class="dot"><title>18:29 — 3,286/min</title></circle><circle cx="574.7" cy="160.2" r="3.5" class="dot"><title>21:38 — 2,064/min</title></circle><circle cx="578.0" cy="154.2" r="3.5" class="dot"><title>00:11 — 2,194/min</title></circle><circle cx="583.8" cy="209.9" r="3.5" class="dot"><title>04:41 — 994/min</title></circle><circle cx="590.3" cy="168.2" r="3.5" class="dot"><title>09:42 — 1,893/min</title></circle><circle cx="596.5" cy="187.4" r="3.5" class="dot"><title>14:26 — 1,478/min</title></circle><circle cx="616.3" cy="194.2" r="3.5" class="dot"><title>05:48 — 1,331/min</title></circle><circle cx="622.8" cy="174.5" r="3.5" class="dot"><title>10:47 — 1,757/min</title></circle><circle cx="627.1" cy="207.8" r="3.5" class="dot"><title>14:08 — 1,039/min</title></circle><circle cx="631.1" cy="205.6" r="3.5" class="dot"><title>17:11 — 1,087/min</title></circle><circle cx="633.9" cy="189.8" r="3.5" class="dot"><title>19:22 — 1,427/min</title></circle><circle cx="637.7" cy="207.3" r="3.5" class="dot"><title>22:18 — 1,050/min</title></circle><circle cx="641.2" cy="227.6" r="3.5" class="dot"><title>01:01 — 612/min</title></circle><circle cx="647.9" cy="209.2" r="3.5" class="dot"><title>06:10 — 1,008/min</title></circle><circle cx="655.3" cy="198.9" r="3.5" class="dot"><title>11:53 — 1,230/min</title></circle><circle cx="661.0" cy="205.6" r="3.5" class="dot"><title>16:18 — 1,086/min</title></circle><circle cx="665.1" cy="239.2" r="3.5" class="dot"><title>19:27 — 361/min</title></circle><circle cx="668.9" cy="207.4" r="3.5" class="dot"><title>22:25 — 1,047/min</title></circle><circle cx="672.3" cy="210.1" r="3.5" class="dot"><title>01:05 — 989/min</title></circle><circle cx="679.1" cy="188.9" r="3.5" class="dot"><title>06:18 — 1,446/min</title></circle><circle cx="689.1" cy="216.2" r="3.5" class="dot"><title>14:03 — 857/min</title></circle><circle cx="696.0" cy="208.0" r="5" class="dot dot-last"><title>19:22 — 1,035/min</title></circle>
  <text x="696.0" y="194.0" class="end-label" text-anchor="end">1,035/min</text>
  <line x1="68" y1="256" x2="696" y2="256" class="axis"/>
  
    <text x="68.0" y="278" class="tick" text-anchor="start">14:00</text>
    <text x="105.9" y="278" class="tick" text-anchor="middle">19:19</text>
    <text x="243.4" y="278" class="tick" text-anchor="middle">05:36</text>
    <text x="391.6" y="278" class="tick" text-anchor="middle">00:07</text>
    <text x="484.0" y="278" class="tick" text-anchor="middle">23:30</text>
    <text x="583.8" y="278" class="tick" text-anchor="middle">04:41</text>
    <text x="696.0" y="278" class="tick" text-anchor="end">19:22</text>
</svg>