<svg xmlns="http://www.w3.org/2000/svg" viewBox="0 0 720 300" role="img" aria-label="Notes stored against the 5,242,880 cap">
  <title>Notes stored against the 5,242,880 cap</title>
  <desc>2,274,598 of 5,242,880 — 43% full, down 14% over the last quarter of the window.</desc>
  <style>
    .grid      { stroke: var(--chart-grid, #d8dce4); stroke-width: 1; }
    .cap       { stroke: var(--chart-cap, #9a2b22); stroke-width: 1.5; stroke-dasharray: 5 4; }
    .cap-label { fill: var(--chart-cap, #9a2b22); font: 600 11px Archivo, system-ui, sans-serif; letter-spacing: .04em; }
    .tick      { fill: var(--chart-muted, #737c8c); font: 500 11px "IBM Plex Mono", ui-monospace, monospace; }
    .tick-y    { text-anchor: end; }
    .tick-x    { text-anchor: middle; }
    .series    { fill: none; stroke: var(--chart-line, #a25c00); stroke-width: 2.5; stroke-linejoin: round; stroke-linecap: round; }
    .fill      { fill: var(--chart-fill, rgba(162,92,0,.10)); stroke: none; }
    .dot       { fill: var(--chart-line, #a25c00); }
    .dot-last  { stroke: var(--chart-bg, #fff); stroke-width: 2.5; }
    .end-label { fill: var(--chart-line, #a25c00); font: 700 13px Archivo, system-ui, sans-serif; }
    .axis      { stroke: var(--chart-axis, #b9bfca); stroke-width: 1; }
  </style>
  
    <line x1="68" y1="256.0" x2="696" y2="256.0" class="grid"/>
    <text x="58" y="260.0" class="tick tick-y">0</text>
    <line x1="68" y1="198.0" x2="696" y2="198.0" class="grid"/>
    <text x="58" y="202.0" class="tick tick-y">1500k</text>
    <line x1="68" y1="140.0" x2="696" y2="140.0" class="grid"/>
    <text x="58" y="144.0" class="tick tick-y">3000k</text>
    <line x1="68" y1="82.0" x2="696" y2="82.0" class="grid"/>
    <text x="58" y="86.0" class="tick tick-y">4500k</text>
    <line x1="68" y1="24.0" x2="696" y2="24.0" class="grid"/>
    <text x="58" y="28.0" class="tick tick-y">6000k</text>
  <path d="M68.0,252.9 L71.9,251.8 L73.8,251.3 L77.8,250.6 L77.9,250.6 L78.0,250.6 L78.3,250.6 L79.4,250.5 L82.2,249.9 L83.7,249.7 L85.7,249.2 L86.7,248.7 L88.3,248.2 L89.3,247.7 L92.7,246.3 L93.7,245.9 L95.5,245.4 L96.5,245.0 L98.6,244.0 L99.9,243.3 L102.7,242.6 L107.7,241.8 L115.7,239.3 L115.8,239.3 L119.8,237.7 L132.5,231.8 L143.0,230.7 L150.3,226.4 L150.6,226.2 L172.7,212.3 L172.9,212.2 L173.1,212.1 L175.7,211.0 L182.1,207.7 L186.9,204.7 L190.7,204.3 L201.3,203.4 L202.4,203.3 L214.1,201.4 L221.2,197.9 L228.4,192.7 L238.2,182.0 L250.0,174.4 L256.2,173.4 L275.9,166.2 L284.1,164.6 L289.9,165.7 L295.7,167.0 L300.7,168.0 L304.4,168.0 L307.2,168.0 L312.4,168.0 L318.6,168.0 L332.6,168.0 L335.4,168.0 L340.7,168.0 L352.3,168.0 L357.1,168.0 L360.7,168.1 L363.8,168.0 L369.0,152.6 L374.4,168.0 L378.7,168.0 L382.7,168.0 L385.4,168.1 L388.8,168.1 L390.9,153.7 L393.2,168.0 L399.2,168.1 L405.0,168.0 L408.9,152.6 L412.3,145.5 L414.8,145.5 L420.4,153.7 L426.0,153.7 L432.7,153.7 L439.9,152.6 L444.8,168.1 L448.3,168.0 L454.3,153.7 L460.3,153.7 L466.1,154.0 L471.0,153.7 L474.7,168.0 L477.6,168.1 L482.9,168.1 L488.8,153.7 L494.5,168.0 L499.3,149.4 L502.9,153.7 L505.9,168.0 L511.4,168.0 L517.2,145.5 L522.7,153.7 L527.5,149.3 L531.2,152.6 L534.2,144.7 L539.6,153.7 L545.5,153.7 L551.1,153.7 L569.3,150.1 L575.2,153.7 L579.1,153.7 L582.7,168.0 L585.3,168.0 L588.8,168.0 L592.0,153.7 L598.1,149.3 L604.9,138.9 L610.1,124.7 L613.8,153.7 L617.3,153.7 L620.5,168.0 L626.6,153.7 L635.8,149.3 L642.1,168.0 L646.6,124.7 L649.3,129.2 L656.8,153.7 L663.6,138.9 L669.1,153.7 L672.9,153.7 L676.4,124.7 L683.1,124.7 L689.7,153.7 L696.0,168.0 L696.0,256.0 L68.0,256.0 Z" class="fill"/>
  
    <line x1="68" y1="53.3" x2="696" y2="53.3" class="cap"/>
    <text x="696" y="46.3" class="cap-label" text-anchor="end">cap 5243k</text>
  <path d="M68.0,252.9 L71.9,251.8 L73.8,251.3 L77.8,250.6 L77.9,250.6 L78.0,250.6 L78.3,250.6 L79.4,250.5 L82.2,249.9 L83.7,249.7 L85.7,249.2 L86.7,248.7 L88.3,248.2 L89.3,247.7 L92.7,246.3 L93.7,245.9 L95.5,245.4 L96.5,245.0 L98.6,244.0 L99.9,243.3 L102.7,242.6 L107.7,241.8 L115.7,239.3 L115.8,239.3 L119.8,237.7 L132.5,231.8 L143.0,230.7 L150.3,226.4 L150.6,226.2 L172.7,212.3 L172.9,212.2 L173.1,212.1 L175.7,211.0 L182.1,207.7 L186.9,204.7 L190.7,204.3 L201.3,203.4 L202.4,203.3 L214.1,201.4 L221.2,197.9 L228.4,192.7 L238.2,182.0 L250.0,174.4 L256.2,173.4 L275.9,166.2 L284.1,164.6 L289.9,165.7 L295.7,167.0 L300.7,168.0 L304.4,168.0 L307.2,168.0 L312.4,168.0 L318.6,168.0 L332.6,168.0 L335.4,168.0 L340.7,168.0 L352.3,168.0 L357.1,168.0 L360.7,168.1 L363.8,168.0 L369.0,152.6 L374.4,168.0 L378.7,168.0 L382.7,168.0 L385.4,168.1 L388.8,168.1 L390.9,153.7 L393.2,168.0 L399.2,168.1 L405.0,168.0 L408.9,152.6 L412.3,145.5 L414.8,145.5 L420.4,153.7 L426.0,153.7 L432.7,153.7 L439.9,152.6 L444.8,168.1 L448.3,168.0 L454.3,153.7 L460.3,153.7 L466.1,154.0 L471.0,153.7 L474.7,168.0 L477.6,168.1 L482.9,168.1 L488.8,153.7 L494.5,168.0 L499.3,149.4 L502.9,153.7 L505.9,168.0 L511.4,168.0 L517.2,145.5 L522.7,153.7 L527.5,149.3 L531.2,152.6 L534.2,144.7 L539.6,153.7 L545.5,153.7 L551.1,153.7 L569.3,150.1 L575.2,153.7 L579.1,153.7 L582.7,168.0 L585.3,168.0 L588.8,168.0 L592.0,153.7 L598.1,149.3 L604.9,138.9 L610.1,124.7 L613.8,153.7 L617.3,153.7 L620.5,168.0 L626.6,153.7 L635.8,149.3 L642.1,168.0 L646.6,124.7 L649.3,129.2 L656.8,153.7 L663.6,138.9 L669.1,153.7 L672.9,153.7 L676.4,124.7 L683.1,124.7 L689.7,153.7 L696.0,168.0" class="series"/>
  <circle cx="68.0" cy="252.9" r="3.5" class="dot"><title>14:00 — 81,349</title></circle><circle cx="71.9" cy="251.8" r="3.5" class="dot"><title>17:20 — 107,620</title></circle><circle cx="73.8" cy="251.3" r="3.5" class="dot"><title>18:55 — 122,600</title></circle><circle cx="77.8" cy="250.6" r="3.5" class="dot"><title>22:16 — 139,593</title></circle><circle cx="77.9" cy="250.6" r="3.5" class="dot"><title>22:24 — 139,663</title></circle><circle cx="78.0" cy="250.6" r="3.5" class="dot"><title>22:27 — 140,052</title></circle><circle cx="78.3" cy="250.6" r="3.5" class="dot"><title>22:45 — 140,219</title></circle><circle cx="79.4" cy="250.5" r="3.5" class="dot"><title>23:38 — 142,190</title></circle><circle cx="82.2" cy="249.9" r="3.5" class="dot"><title>01:59 — 158,997</title></circle><circle cx="83.7" cy="249.7" r="3.5" class="dot"><title>03:18 — 163,455</title></circle><circle cx="85.7" cy="249.2" r="3.5" class="dot"><title>04:56 — 176,497</title></circle><circle cx="86.7" cy="248.7" r="3.5" class="dot"><title>05:50 — 187,704</title></circle><circle cx="88.3" cy="248.2" r="3.5" class="dot"><title>07:09 — 202,822</title></circle><circle cx="89.3" cy="247.7" r="3.5" class="dot"><title>08:00 — 215,174</title></circle><circle cx="92.7" cy="246.3" r="3.5" class="dot"><title>10:52 — 250,679</title></circle><circle cx="93.7" cy="245.9" r="3.5" class="dot"><title>11:45 — 260,549</title></circle><circle cx="95.5" cy="245.4" r="3.5" class="dot"><title>13:17 — 274,335</title></circle><circle cx="96.5" cy="245.0" r="3.5" class="dot"><title>14:08 — 283,351</title></circle><circle cx="98.6" cy="244.0" r="3.5" class="dot"><title>15:53 — 309,527</title></circle><circle cx="99.9" cy="243.3" r="3.5" class="dot"><title>17:00 — 327,680</title></circle><circle cx="102.7" cy="242.6" r="3.5" class="dot"><title>19:19 — 345,351</title></circle><circle cx="107.7" cy="241.8" r="3.5" class="dot"><title>23:33 — 367,698</title></circle><circle cx="115.7" cy="239.3" r="3.5" class="dot"><title>06:22 — 432,206</title></circle><circle cx="115.8" cy="239.3" r="3.5" class="dot"><title>06:25 — 432,764</title></circle><circle cx="119.8" cy="237.7" r="3.5" class="dot"><title>09:49 — 474,034</title></circle><circle cx="132.5" cy="231.8" r="3.5" class="dot"><title>20:30 — 625,674</title></circle><circle cx="143.0" cy="230.7" r="3.5" class="dot"><title>05:24 — 655,360</title></circle><circle cx="150.3" cy="226.4" r="3.5" class="dot"><title>11:36 — 766,691</title></circle><circle cx="150.6" cy="226.2" r="3.5" class="dot"><title>11:48 — 770,219</title></circle><circle cx="172.7" cy="212.3" r="3.5" class="dot"><title>06:33 — 1,130,273</title></circle><circle cx="172.9" cy="212.2" r="3.5" class="dot"><title>06:43 — 1,133,572</title></circle><circle cx="173.1" cy="212.1" r="3.5" class="dot"><title>06:51 — 1,135,542</title></circle><circle cx="175.7" cy="211.0" r="3.5" class="dot"><title>09:04 — 1,163,771</title></circle><circle cx="182.1" cy="207.7" r="3.5" class="dot"><title>14:29 — 1,249,038</title></circle><circle cx="186.9" cy="204.7" r="3.5" class="dot"><title>18:30 — 1,327,093</title></circle><circle cx="190.7" cy="204.3" r="3.5" class="dot"><title>21:45 — 1,336,085</title></circle><circle cx="201.3" cy="203.4" r="3.5" class="dot"><title>06:40 — 1,360,420</title></circle><circle cx="202.4" cy="203.3" r="3.5" class="dot"><title>07:40 — 1,364,090</title></circle><circle cx="214.1" cy="201.4" r="3.5" class="dot"><title>17:30 — 1,411,816</title></circle><circle cx="221.2" cy="197.9" r="3.5" class="dot"><title>23:30 — 1,502,993</title></circle><circle cx="228.4" cy="192.7" r="3.5" class="dot"><title>05:36 — 1,636,522</title></circle><circle cx="238.2" cy="182.0" r="3.5" class="dot"><title>13:52 — 1,912,921</title></circle><circle cx="250.0" cy="174.4" r="3.5" class="dot"><title>23:51 — 2,110,573</title></circle><circle cx="256.2" cy="173.4" r="3.5" class="dot"><title>05:09 — 2,135,900</title></circle><circle cx="275.9" cy="166.2" r="3.5" class="dot"><title>21:47 — 2,321,495</title></circle><circle cx="284.1" cy="164.6" r="3.5" class="dot"><title>04:42 — 2,364,408</title></circle><circle cx="289.9" cy="165.7" r="3.5" class="dot"><title>09:38 — 2,335,213</title></circle><circle cx="295.7" cy="167.0" r="3.5" class="dot"><title>14:32 — 2,301,624</title></circle><circle cx="300.7" cy="168.0" r="3.5" class="dot"><title>18:43 — 2,276,522</title></circle><circle cx="304.4" cy="168.0" r="3.5" class="dot"><title>21:50 — 2,276,522</title></circle><circle cx="307.2" cy="168.0" r="3.5" class="dot"><title>00:16 — 2,276,522</title></circle><circle cx="312.4" cy="168.0" r="3.5" class="dot"><title>04:39 — 2,276,522</title></circle><circle cx="318.6" cy="168.0" r="3.5" class="dot"><title>09:51 — 2,276,522</title></circle><circle cx="332.6" cy="168.0" r="3.5" class="dot"><title>21:43 — 2,275,328</title></circle><circle cx="335.4" cy="168.0" r="3.5" class="dot"><title>00:06 — 2,276,522</title></circle><circle cx="340.7" cy="168.0" r="3.5" class="dot"><title>04:34 — 2,276,522</title></circle><circle cx="352.3" cy="168.0" r="3.5" class="dot"><title>14:22 — 2,276,522</title></circle><circle cx="357.1" cy="168.0" r="3.5" class="dot"><title>18:24 — 2,276,522</title></circle><circle cx="360.7" cy="168.1" r="3.5" class="dot"><title>21:29 — 2,273,391</title></circle><circle cx="363.8" cy="168.0" r="3.5" class="dot"><title>00:07 — 2,276,522</title></circle><circle cx="369.0" cy="152.6" r="3.5" class="dot"><title>04:30 — 2,674,492</title></circle><circle cx="374.4" cy="168.0" r="3.5" class="dot"><title>09:05 — 2,276,522</title></circle><circle cx="378.7" cy="168.0" r="3.5" class="dot"><title>12:43 — 2,276,522</title></circle><circle cx="382.7" cy="168.0" r="3.5" class="dot"><title>16:05 — 2,276,522</title></circle><circle cx="385.4" cy="168.1" r="3.5" class="dot"><title>18:19 — 2,273,391</title></circle><circle cx="388.8" cy="168.1" r="3.5" class="dot"><title>21:15 — 2,273,391</title></circle><circle cx="390.9" cy="153.7" r="3.5" class="dot"><title>22:57 — 2,645,701</title></circle><circle cx="393.2" cy="168.0" r="3.5" class="dot"><title>00:58 — 2,276,522</title></circle><circle cx="399.2" cy="168.1" r="3.5" class="dot"><title>05:58 — 2,273,391</title></circle><circle cx="405.0" cy="168.0" r="3.5" class="dot"><title>10:57 — 2,276,522</title></circle><circle cx="408.9" cy="152.6" r="3.5" class="dot"><title>14:11 — 2,672,981</title></circle><circle cx="412.3" cy="145.5" r="3.5" class="dot"><title>17:03 — 2,857,718</title></circle><circle cx="414.8" cy="145.5" r="3.5" class="dot"><title>19:11 — 2,857,718</title></circle><circle cx="420.4" cy="153.7" r="3.5" class="dot"><title>23:55 — 2,645,701</title></circle><circle cx="426.0" cy="153.7" r="3.5" class="dot"><title>04:42 — 2,645,701</title></circle><circle cx="432.7" cy="153.7" r="3.5" class="dot"><title>10:19 — 2,645,701</title></circle><circle cx="439.9" cy="152.6" r="3.5" class="dot"><title>16:27 — 2,672,981</title></circle><circle cx="444.8" cy="168.1" r="3.5" class="dot"><title>20:34 — 2,273,391</title></circle><circle cx="448.3" cy="168.0" r="3.5" class="dot"><title>23:30 — 2,276,522</title></circle><circle cx="454.3" cy="153.7" r="3.5" class="dot"><title>04:37 — 2,645,701</title></circle><circle cx="460.3" cy="153.7" r="3.5" class="dot"><title>09:41 — 2,645,701</title></circle><circle cx="466.1" cy="154.0" r="3.5" class="dot"><title>14:33 — 2,638,145</title></circle><circle cx="471.0" cy="153.7" r="3.5" class="dot"><title>18:41 — 2,645,701</title></circle><circle cx="474.7" cy="168.0" r="3.5" class="dot"><title>21:51 — 2,276,522</title></circle><circle cx="477.6" cy="168.1" r="3.5" class="dot"><title>00:15 — 2,273,391</title></circle><circle cx="482.9" cy="168.1" r="3.5" class="dot"><title>04:48 — 2,273,391</title></circle><circle cx="488.8" cy="153.7" r="3.5" class="dot"><title>09:46 — 2,645,701</title></circle><circle cx="494.5" cy="168.0" r="3.5" class="dot"><title>14:36 — 2,276,522</title></circle><circle cx="499.3" cy="149.4" r="3.5" class="dot"><title>18:37 — 2,756,968</title></circle><circle cx="502.9" cy="153.7" r="3.5" class="dot"><title>21:42 — 2,645,701</title></circle><circle cx="505.9" cy="168.0" r="3.5" class="dot"><title>00:15 — 2,276,522</title></circle><circle cx="511.4" cy="168.0" r="3.5" class="dot"><title>04:50 — 2,276,522</title></circle><circle cx="517.2" cy="145.5" r="3.5" class="dot"><title>09:45 — 2,857,718</title></circle><circle cx="522.7" cy="153.7" r="3.5" class="dot"><title>14:27 — 2,645,701</title></circle><circle cx="527.5" cy="149.3" r="3.5" class="dot"><title>18:29 — 2,758,561</title></circle><circle cx="531.2" cy="152.6" r="3.5" class="dot"><title>21:38 — 2,672,981</title></circle><circle cx="534.2" cy="144.7" r="3.5" class="dot"><title>00:11 — 2,877,816</title></circle><circle cx="539.6" cy="153.7" r="3.5" class="dot"><title>04:41 — 2,645,701</title></circle><circle cx="545.5" cy="153.7" r="3.5" class="dot"><title>09:42 — 2,645,701</title></circle><circle cx="551.1" cy="153.7" r="3.5" class="dot"><title>14:26 — 2,645,701</title></circle><circle cx="569.3" cy="150.1" r="3.5" class="dot"><title>05:48 — 2,738,317</title></circle><circle cx="575.2" cy="153.7" r="3.5" class="dot"><title>10:47 — 2,645,701</title></circle><circle cx="579.1" cy="153.7" r="3.5" class="dot"><title>14:08 — 2,645,701</title></circle><circle cx="582.7" cy="168.0" r="3.5" class="dot"><title>17:11 — 2,276,522</title></circle><circle cx="585.3" cy="168.0" r="3.5" class="dot"><title>19:22 — 2,276,522</title></circle><circle cx="588.8" cy="168.0" r="3.5" class="dot"><title>22:18 — 2,276,522</title></circle><circle cx="592.0" cy="153.7" r="3.5" class="dot"><title>01:01 — 2,645,701</title></circle><circle cx="598.1" cy="149.3" r="3.5" class="dot"><title>06:10 — 2,758,561</title></circle><circle cx="604.9" cy="138.9" r="3.5" class="dot"><title>11:53 — 3,027,685</title></circle><circle cx="610.1" cy="124.7" r="3.5" class="dot"><title>16:18 — 3,395,797</title></circle><circle cx="613.8" cy="153.7" r="3.5" class="dot"><title>19:27 — 2,645,701</title></circle><circle cx="617.3" cy="153.7" r="3.5" class="dot"><title>22:25 — 2,645,701</title></circle><circle cx="620.5" cy="168.0" r="3.5" class="dot"><title>01:05 — 2,276,522</title></circle><circle cx="626.6" cy="153.7" r="3.5" class="dot"><title>06:18 — 2,645,701</title></circle><circle cx="635.8" cy="149.3" r="3.5" class="dot"><title>14:03 — 2,758,561</title></circle><circle cx="642.1" cy="168.0" r="3.5" class="dot"><title>19:22 — 2,274,598</title></circle><circle cx="646.6" cy="124.7" r="3.5" class="dot"><title>23:08 — 3,395,797</title></circle><circle cx="649.3" cy="129.2" r="3.5" class="dot"><title>01:28 — 3,278,153</title></circle><circle cx="656.8" cy="153.7" r="3.5" class="dot"><title>07:45 — 2,645,701</title></circle><circle cx="663.6" cy="138.9" r="3.5" class="dot"><title>13:34 — 3,027,685</title></circle><circle cx="669.1" cy="153.7" r="3.5" class="dot"><title>18:12 — 2,645,701</title></circle><circle cx="672.9" cy="153.7" r="3.5" class="dot"><title>21:22 — 2,645,701</title></circle><circle cx="676.4" cy="124.7" r="3.5" class="dot"><title>00:21 — 3,395,797</title></circle><circle cx="683.1" cy="124.7" r="3.5" class="dot"><title>06:02 — 3,395,797</title></circle><circle cx="689.7" cy="153.7" r="3.5" class="dot"><title>11:35 — 2,645,701</title></circle><circle cx="696.0" cy="168.0" r="5" class="dot dot-last"><title>16:56 — 2,274,598</title></circle>
  <text x="696.0" y="154.0" class="end-label" text-anchor="end">2,274,598</text>
  <line x1="68" y1="256" x2="696" y2="256" class="axis"/>
  
    <text x="68.0" y="278" class="tick" text-anchor="start">14:00</text>
    <text x="107.7" y="278" class="tick" text-anchor="middle">23:33</text>
    <text x="250.0" y="278" class="tick" text-anchor="middle">23:51</text>
    <text x="382.7" y="278" class="tick" text-anchor="middle">16:05</text>
    <text x="477.6" y="278" class="tick" text-anchor="middle">00:15</text>
    <text x="588.8" y="278" class="tick" text-anchor="middle">22:18</text>
    <text x="696.0" y="278" class="tick" text-anchor="end">16:56</text>
</svg>