<svg xmlns="http://www.w3.org/2000/svg" viewBox="0 0 720 300" role="img" aria-label="Notes stored against the 327,680 cap">
  <title>Notes stored against the 327,680 cap</title>
  <desc>Filling fast during the burst, then almost flat.</desc>
  <style>
    .grid      { stroke: var(--chart-grid, #d8dce4); stroke-width: 1; }
    .cap       { stroke: var(--chart-cap, #9a2b22); stroke-width: 1.5; stroke-dasharray: 5 4; }
    .cap-label { fill: var(--chart-cap, #9a2b22); font: 600 11px Archivo, system-ui, sans-serif; letter-spacing: .04em; }
    .tick      { fill: var(--chart-muted, #737c8c); font: 500 11px "IBM Plex Mono", ui-monospace, monospace; }
    .tick-y    { text-anchor: end; }
    .tick-x    { text-anchor: middle; }
    .series    { fill: none; stroke: var(--chart-line, #a25c00); stroke-width: 2.5; stroke-linejoin: round; stroke-linecap: round; }
    .fill      { fill: var(--chart-fill, rgba(162,92,0,.10)); stroke: none; }
    .dot       { fill: var(--chart-line, #a25c00); }
    .dot-last  { stroke: var(--chart-bg, #fff); stroke-width: 2.5; }
    .end-label { fill: var(--chart-line, #a25c00); font: 700 13px Archivo, system-ui, sans-serif; }
    .axis      { stroke: var(--chart-axis, #b9bfca); stroke-width: 1; }
  </style>
  
    <line x1="68" y1="256.0" x2="696" y2="256.0" class="grid"/>
    <text x="58" y="260.0" class="tick tick-y">0</text>
    <line x1="68" y1="198.0" x2="696" y2="198.0" class="grid"/>
    <text x="58" y="202.0" class="tick tick-y">100k</text>
    <line x1="68" y1="140.0" x2="696" y2="140.0" class="grid"/>
    <text x="58" y="144.0" class="tick tick-y">200k</text>
    <line x1="68" y1="82.0" x2="696" y2="82.0" class="grid"/>
    <text x="58" y="86.0" class="tick tick-y">300k</text>
    <line x1="68" y1="24.0" x2="696" y2="24.0" class="grid"/>
    <text x="58" y="28.0" class="tick tick-y">400k</text>
  <path d="M68.0,208.8 L190.1,193.6 L248.0,184.9 L370.7,175.0 L375.6,175.0 L377.4,174.8 L388.4,174.7 L420.8,173.5 L506.8,163.8 L555.0,161.2 L614.8,153.6 L647.8,147.1 L696.0,138.4 L696.0,256.0 L68.0,256.0 Z" class="fill"/>
  
    <line x1="68" y1="65.9" x2="696" y2="65.9" class="cap"/>
    <text x="696" y="58.9" class="cap-label" text-anchor="end">cap 328k</text>
  <path d="M68.0,208.8 L190.1,193.6 L248.0,184.9 L370.7,175.0 L375.6,175.0 L377.4,174.8 L388.4,174.7 L420.8,173.5 L506.8,163.8 L555.0,161.2 L614.8,153.6 L647.8,147.1 L696.0,138.4" class="series"/>
  <circle cx="68.0" cy="208.8" r="3.5" class="dot"><title>14:00 — 81,349</title></circle><circle cx="190.1" cy="193.6" r="3.5" class="dot"><title>17:20 — 107,620</title></circle><circle cx="248.0" cy="184.9" r="3.5" class="dot"><title>18:55 — 122,600</title></circle><circle cx="370.7" cy="175.0" r="3.5" class="dot"><title>22:16 — 139,593</title></circle><circle cx="375.6" cy="175.0" r="3.5" class="dot"><title>22:24 — 139,663</title></circle><circle cx="377.4" cy="174.8" r="3.5" class="dot"><title>22:27 — 140,052</title></circle><circle cx="388.4" cy="174.7" r="3.5" class="dot"><title>22:45 — 140,219</title></circle><circle cx="420.8" cy="173.5" r="3.5" class="dot"><title>23:38 — 142,190</title></circle><circle cx="506.8" cy="163.8" r="3.5" class="dot"><title>01:59 — 158,997</title></circle><circle cx="555.0" cy="161.2" r="3.5" class="dot"><title>03:18 — 163,455</title></circle><circle cx="614.8" cy="153.6" r="3.5" class="dot"><title>04:56 — 176,497</title></circle><circle cx="647.8" cy="147.1" r="3.5" class="dot"><title>05:50 — 187,704</title></circle><circle cx="696.0" cy="138.4" r="5" class="dot dot-last"><title>07:09 — 202,822</title></circle>
  <text x="696.0" y="124.4" class="end-label" text-anchor="end">202,822</text>
  <line x1="68" y1="256" x2="696" y2="256" class="axis"/>
  
    <text x="68.0" y="278" class="tick" text-anchor="start">14:00</text>
    <text x="370.7" y="278" class="tick" text-anchor="middle">22:16</text>
    <text x="388.4" y="278" class="tick" text-anchor="middle">22:45</text>
    <text x="555.0" y="278" class="tick" text-anchor="middle">03:18</text>
    <text x="696.0" y="278" class="tick" text-anchor="end">07:09</text>
</svg>