<svg xmlns="http://www.w3.org/2000/svg" viewBox="0 0 720 300" role="img" aria-label="Rooms against the 10,240 cap">
  <title>Rooms against the 10,240 cap</title>
  <desc>The tightest cap on the service: 78% full and still climbing.</desc>
  <style>
    .grid      { stroke: var(--chart-grid, #d8dce4); stroke-width: 1; }
    .cap       { stroke: var(--chart-cap, #9a2b22); stroke-width: 1.5; stroke-dasharray: 5 4; }
    .cap-label { fill: var(--chart-cap, #9a2b22); font: 600 11px Archivo, system-ui, sans-serif; letter-spacing: .04em; }
    .tick      { fill: var(--chart-muted, #737c8c); font: 500 11px "IBM Plex Mono", ui-monospace, monospace; }
    .tick-y    { text-anchor: end; }
    .tick-x    { text-anchor: middle; }
    .series    { fill: none; stroke: var(--chart-line, #a25c00); stroke-width: 2.5; stroke-linejoin: round; stroke-linecap: round; }
    .fill      { fill: var(--chart-fill, rgba(162,92,0,.10)); stroke: none; }
    .dot       { fill: var(--chart-line, #a25c00); }
    .dot-last  { stroke: var(--chart-bg, #fff); stroke-width: 2.5; }
    .end-label { fill: var(--chart-line, #a25c00); font: 700 13px Archivo, system-ui, sans-serif; }
    .axis      { stroke: var(--chart-axis, #b9bfca); stroke-width: 1; }
  </style>
  
    <line x1="68" y1="256.0" x2="696" y2="256.0" class="grid"/>
    <text x="58" y="260.0" class="tick tick-y">0</text>
    <line x1="68" y1="198.0" x2="696" y2="198.0" class="grid"/>
    <text x="58" y="202.0" class="tick tick-y">50k</text>
    <line x1="68" y1="140.0" x2="696" y2="140.0" class="grid"/>
    <text x="58" y="144.0" class="tick tick-y">100k</text>
    <line x1="68" y1="82.0" x2="696" y2="82.0" class="grid"/>
    <text x="58" y="86.0" class="tick tick-y">150k</text>
    <line x1="68" y1="24.0" x2="696" y2="24.0" class="grid"/>
    <text x="58" y="28.0" class="tick tick-y">200k</text>
  <path d="M68.0,247.2 L76.6,246.8 L80.6,246.8 L89.2,246.8 L89.6,246.8 L89.7,246.8 L90.5,246.8 L92.8,246.7 L98.8,246.7 L102.2,246.7 L106.4,246.6 L108.7,246.6 L112.1,246.5 L114.3,246.4 L121.6,246.1 L123.9,246.3 L127.8,246.3 L130.0,246.2 L134.5,246.0 L137.4,246.0 L143.3,244.0 L154.2,237.5 L171.7,235.4 L171.9,235.4 L180.6,235.3 L208.0,234.1 L230.9,233.8 L246.8,225.2 L247.4,224.8 L295.5,211.7 L296.0,211.7 L296.3,211.7 L302.0,212.8 L315.9,213.4 L326.2,212.6 L334.6,211.2 L357.5,204.4 L360.1,203.6 L385.3,207.0 L400.8,208.3 L416.4,209.1 L437.7,203.2 L463.3,193.2 L476.9,188.9 L519.7,191.3 L537.5,196.4 L550.1,199.5 L562.7,198.8 L573.5,198.0 L581.5,198.0 L587.7,198.0 L599.0,198.0 L612.4,198.0 L642.9,197.1 L649.0,198.0 L660.5,198.0 L685.6,198.0 L696.0,198.0 L696.0,256.0 L68.0,256.0 Z" class="fill"/>
  
    <line x1="68" y1="65.9" x2="696" y2="65.9" class="cap"/>
    <text x="696" y="58.9" class="cap-label" text-anchor="end">cap 164k</text>
  <path d="M68.0,247.2 L76.6,246.8 L80.6,246.8 L89.2,246.8 L89.6,246.8 L89.7,246.8 L90.5,246.8 L92.8,246.7 L98.8,246.7 L102.2,246.7 L106.4,246.6 L108.7,246.6 L112.1,246.5 L114.3,246.4 L121.6,246.1 L123.9,246.3 L127.8,246.3 L130.0,246.2 L134.5,246.0 L137.4,246.0 L143.3,244.0 L154.2,237.5 L171.7,235.4 L171.9,235.4 L180.6,235.3 L208.0,234.1 L230.9,233.8 L246.8,225.2 L247.4,224.8 L295.5,211.7 L296.0,211.7 L296.3,211.7 L302.0,212.8 L315.9,213.4 L326.2,212.6 L334.6,211.2 L357.5,204.4 L360.1,203.6 L385.3,207.0 L400.8,208.3 L416.4,209.1 L437.7,203.2 L463.3,193.2 L476.9,188.9 L519.7,191.3 L537.5,196.4 L550.1,199.5 L562.7,198.8 L573.5,198.0 L581.5,198.0 L587.7,198.0 L599.0,198.0 L612.4,198.0 L642.9,197.1 L649.0,198.0 L660.5,198.0 L685.6,198.0 L696.0,198.0" class="series"/>
  <circle cx="68.0" cy="247.2" r="3.5" class="dot"><title>14:00 — 7,552</title></circle><circle cx="76.6" cy="246.8" r="3.5" class="dot"><title>17:20 — 7,907</title></circle><circle cx="80.6" cy="246.8" r="3.5" class="dot"><title>18:55 — 7,921</title></circle><circle cx="89.2" cy="246.8" r="3.5" class="dot"><title>22:16 — 7,956</title></circle><circle cx="89.6" cy="246.8" r="3.5" class="dot"><title>22:24 — 7,962</title></circle><circle cx="89.7" cy="246.8" r="3.5" class="dot"><title>22:27 — 7,963</title></circle><circle cx="90.5" cy="246.8" r="3.5" class="dot"><title>22:45 — 7,969</title></circle><circle cx="92.8" cy="246.7" r="3.5" class="dot"><title>23:38 — 7,983</title></circle><circle cx="98.8" cy="246.7" r="3.5" class="dot"><title>01:59 — 7,988</title></circle><circle cx="102.2" cy="246.7" r="3.5" class="dot"><title>03:18 — 8,016</title></circle><circle cx="106.4" cy="246.6" r="3.5" class="dot"><title>04:56 — 8,093</title></circle><circle cx="108.7" cy="246.6" r="3.5" class="dot"><title>05:50 — 8,130</title></circle><circle cx="112.1" cy="246.5" r="3.5" class="dot"><title>07:09 — 8,179</title></circle><circle cx="114.3" cy="246.4" r="3.5" class="dot"><title>08:00 — 8,318</title></circle><circle cx="121.6" cy="246.1" r="3.5" class="dot"><title>10:52 — 8,492</title></circle><circle cx="123.9" cy="246.3" r="3.5" class="dot"><title>11:45 — 8,324</title></circle><circle cx="127.8" cy="246.3" r="3.5" class="dot"><title>13:17 — 8,363</title></circle><circle cx="130.0" cy="246.2" r="3.5" class="dot"><title>14:08 — 8,417</title></circle><circle cx="134.5" cy="246.0" r="3.5" class="dot"><title>15:53 — 8,617</title></circle><circle cx="137.4" cy="246.0" r="3.5" class="dot"><title>17:00 — 8,629</title></circle><circle cx="143.3" cy="244.0" r="3.5" class="dot"><title>19:19 — 10,351</title></circle><circle cx="154.2" cy="237.5" r="3.5" class="dot"><title>23:33 — 15,969</title></circle><circle cx="171.7" cy="235.4" r="3.5" class="dot"><title>06:22 — 17,764</title></circle><circle cx="171.9" cy="235.4" r="3.5" class="dot"><title>06:25 — 17,764</title></circle><circle cx="180.6" cy="235.3" r="3.5" class="dot"><title>09:49 — 17,865</title></circle><circle cx="208.0" cy="234.1" r="3.5" class="dot"><title>20:30 — 18,845</title></circle><circle cx="230.9" cy="233.8" r="3.5" class="dot"><title>05:24 — 19,135</title></circle><circle cx="246.8" cy="225.2" r="3.5" class="dot"><title>11:36 — 26,592</title></circle><circle cx="247.4" cy="224.8" r="3.5" class="dot"><title>11:48 — 26,914</title></circle><circle cx="295.5" cy="211.7" r="3.5" class="dot"><title>06:33 — 38,212</title></circle><circle cx="296.0" cy="211.7" r="3.5" class="dot"><title>06:43 — 38,212</title></circle><circle cx="296.3" cy="211.7" r="3.5" class="dot"><title>06:51 — 38,212</title></circle><circle cx="302.0" cy="212.8" r="3.5" class="dot"><title>09:04 — 37,256</title></circle><circle cx="315.9" cy="213.4" r="3.5" class="dot"><title>14:29 — 36,763</title></circle><circle cx="326.2" cy="212.6" r="3.5" class="dot"><title>18:30 — 37,406</title></circle><circle cx="334.6" cy="211.2" r="3.5" class="dot"><title>21:45 — 38,625</title></circle><circle cx="357.5" cy="204.4" r="3.5" class="dot"><title>06:40 — 44,506</title></circle><circle cx="360.1" cy="203.6" r="3.5" class="dot"><title>07:40 — 45,145</title></circle><circle cx="385.3" cy="207.0" r="3.5" class="dot"><title>17:30 — 42,234</title></circle><circle cx="400.8" cy="208.3" r="3.5" class="dot"><title>23:30 — 41,080</title></circle><circle cx="416.4" cy="209.1" r="3.5" class="dot"><title>05:36 — 40,425</title></circle><circle cx="437.7" cy="203.2" r="3.5" class="dot"><title>13:52 — 45,509</title></circle><circle cx="463.3" cy="193.2" r="3.5" class="dot"><title>23:51 — 54,123</title></circle><circle cx="476.9" cy="188.9" r="3.5" class="dot"><title>05:09 — 57,872</title></circle><circle cx="519.7" cy="191.3" r="3.5" class="dot"><title>21:47 — 55,738</title></circle><circle cx="537.5" cy="196.4" r="3.5" class="dot"><title>04:42 — 51,398</title></circle><circle cx="550.1" cy="199.5" r="3.5" class="dot"><title>09:38 — 48,702</title></circle><circle cx="562.7" cy="198.8" r="3.5" class="dot"><title>14:32 — 49,270</title></circle><circle cx="573.5" cy="198.0" r="3.5" class="dot"><title>18:43 — 50,042</title></circle><circle cx="581.5" cy="198.0" r="3.5" class="dot"><title>21:50 — 50,042</title></circle><circle cx="587.7" cy="198.0" r="3.5" class="dot"><title>00:16 — 50,033</title></circle><circle cx="599.0" cy="198.0" r="3.5" class="dot"><title>04:39 — 50,038</title></circle><circle cx="612.4" cy="198.0" r="3.5" class="dot"><title>09:51 — 50,038</title></circle><circle cx="642.9" cy="197.1" r="3.5" class="dot"><title>21:43 — 50,746</title></circle><circle cx="649.0" cy="198.0" r="3.5" class="dot"><title>00:06 — 50,042</title></circle><circle cx="660.5" cy="198.0" r="3.5" class="dot"><title>04:34 — 50,033</title></circle><circle cx="685.6" cy="198.0" r="3.5" class="dot"><title>14:22 — 50,038</title></circle><circle cx="696.0" cy="198.0" r="5" class="dot dot-last"><title>18:24 — 50,038</title></circle>
  <text x="696.0" y="184.0" class="end-label" text-anchor="end">50,038</text>
  <line x1="68" y1="256" x2="696" y2="256" class="axis"/>
  
    <text x="68.0" y="278" class="tick" text-anchor="start">14:00</text>
    <text x="106.4" y="278" class="tick" text-anchor="middle">04:56</text>
    <text x="143.3" y="278" class="tick" text-anchor="middle">19:19</text>
    <text x="296.0" y="278" class="tick" text-anchor="middle">06:43</text>
    <text x="416.4" y="278" class="tick" text-anchor="middle">05:36</text>
    <text x="587.7" y="278" class="tick" text-anchor="middle">00:16</text>
    <text x="696.0" y="278" class="tick" text-anchor="end">18:24</text>
</svg>