<svg xmlns="http://www.w3.org/2000/svg" viewBox="0 0 720 300" role="img" aria-label="Rooms against the 300,000 cap">
  <title>Rooms against the 300,000 cap</title>
  <desc>50,033 of 300,000 — 17% full, down 10% over the last quarter of the window. The tightest cap measured here is rooms, at 17%.</desc>
  <style>
    .grid      { stroke: var(--chart-grid, #d8dce4); stroke-width: 1; }
    .cap       { stroke: var(--chart-cap, #9a2b22); stroke-width: 1.5; stroke-dasharray: 5 4; }
    .cap-label { fill: var(--chart-cap, #9a2b22); font: 600 11px Archivo, system-ui, sans-serif; letter-spacing: .04em; }
    .tick      { fill: var(--chart-muted, #737c8c); font: 500 11px "IBM Plex Mono", ui-monospace, monospace; }
    .tick-y    { text-anchor: end; }
    .tick-x    { text-anchor: middle; }
    .series    { fill: none; stroke: var(--chart-line, #a25c00); stroke-width: 2.5; stroke-linejoin: round; stroke-linecap: round; }
    .fill      { fill: var(--chart-fill, rgba(162,92,0,.10)); stroke: none; }
    .dot       { fill: var(--chart-line, #a25c00); }
    .dot-last  { stroke: var(--chart-bg, #fff); stroke-width: 2.5; }
    .end-label { fill: var(--chart-line, #a25c00); font: 700 13px Archivo, system-ui, sans-serif; }
    .axis      { stroke: var(--chart-axis, #b9bfca); stroke-width: 1; }
  </style>
  
    <line x1="68" y1="256.0" x2="696" y2="256.0" class="grid"/>
    <text x="58" y="260.0" class="tick tick-y">0</text>
    <line x1="68" y1="198.0" x2="696" y2="198.0" class="grid"/>
    <text x="58" y="202.0" class="tick tick-y">75k</text>
    <line x1="68" y1="140.0" x2="696" y2="140.0" class="grid"/>
    <text x="58" y="144.0" class="tick tick-y">150k</text>
    <line x1="68" y1="82.0" x2="696" y2="82.0" class="grid"/>
    <text x="58" y="86.0" class="tick tick-y">225k</text>
    <line x1="68" y1="24.0" x2="696" y2="24.0" class="grid"/>
    <text x="58" y="28.0" class="tick tick-y">300k</text>
  <path d="M68.0,250.2 L70.2,249.9 L71.3,249.9 L73.6,249.8 L73.6,249.8 L73.7,249.8 L73.9,249.8 L74.5,249.8 L76.1,249.8 L76.9,249.8 L78.0,249.7 L78.6,249.7 L79.5,249.7 L80.1,249.6 L82.0,249.4 L82.6,249.6 L83.6,249.5 L84.2,249.5 L85.4,249.3 L86.1,249.3 L87.7,248.0 L90.5,243.7 L95.1,242.3 L95.2,242.3 L97.4,242.2 L104.6,241.4 L110.6,241.2 L114.8,235.4 L114.9,235.2 L127.5,226.4 L127.6,226.4 L127.7,226.4 L129.2,227.2 L132.8,227.6 L135.5,227.1 L137.7,226.1 L143.7,221.6 L144.4,221.1 L151.0,223.3 L155.0,224.2 L159.1,224.7 L164.7,220.8 L171.4,214.1 L174.9,211.2 L186.1,212.9 L190.8,216.3 L194.1,218.3 L197.4,217.9 L200.2,217.3 L202.3,217.3 L203.9,217.3 L206.9,217.3 L210.4,217.3 L218.3,216.8 L219.9,217.3 L222.9,217.3 L229.5,217.3 L232.2,217.3 L234.3,217.1 L236.1,217.3 L239.0,197.7 L242.1,217.3 L244.5,217.3 L246.8,217.3 L248.3,217.1 L250.3,217.1 L251.4,201.7 L252.8,217.3 L256.1,217.1 L259.5,217.3 L261.7,200.8 L263.6,206.7 L265.0,206.7 L268.2,201.7 L271.4,201.7 L275.2,201.7 L279.3,200.8 L282.1,217.1 L284.0,217.3 L287.5,201.7 L290.9,201.7 L294.2,211.7 L296.9,201.7 L299.1,217.3 L300.7,217.1 L303.7,217.1 L307.1,201.7 L310.3,217.3 L313.0,207.3 L315.1,201.7 L316.8,217.3 L319.9,217.3 L323.2,206.7 L326.3,201.7 L329.0,220.1 L331.2,200.8 L332.9,221.3 L335.9,201.7 L339.3,201.7 L342.5,201.7 L352.8,220.1 L356.1,201.7 L358.4,201.7 L360.4,217.3 L361.9,217.3 L363.9,217.3 L365.7,201.7 L369.2,220.1 L373.0,221.0 L376.0,223.1 L378.1,201.7 L380.1,201.7 L381.9,217.3 L385.4,201.7 L390.6,220.1 L394.2,217.3 L396.7,223.1 L398.3,223.1 L402.5,201.7 L406.4,221.0 L409.5,201.7 L411.6,201.7 L413.6,223.1 L417.4,223.1 L421.2,201.7 L424.8,217.3 L426.9,217.3 L428.8,214.0 L434.7,217.3 L438.6,217.3 L441.8,223.1 L443.9,223.1 L445.9,217.5 L449.6,221.0 L453.2,223.1 L455.7,223.1 L458.1,223.1 L460.2,217.3 L462.0,217.3 L465.7,217.3 L469.2,217.5 L473.9,212.9 L477.3,212.9 L478.7,217.3 L482.1,220.1 L486.2,217.3 L489.2,223.1 L491.0,212.9 L493.0,219.8 L507.1,212.9 L509.7,216.2 L513.5,223.1 L516.8,223.1 L522.9,208.4 L525.1,212.9 L526.7,223.1 L530.3,207.0 L534.1,223.1 L537.7,217.3 L540.0,217.3 L542.2,223.1 L545.7,223.1 L549.1,220.1 L552.6,207.0 L554.7,217.3 L555.3,211.3 L557.5,211.2 L559.6,212.9 L563.8,210.0 L567.8,217.3 L571.0,202.0 L573.6,220.1 L575.7,217.3 L579.8,210.1 L583.5,210.0 L586.2,208.2 L588.0,212.9 L590.0,210.0 L591.8,212.9 L596.3,206.9 L600.2,208.2 L603.2,217.3 L605.7,210.1 L607.4,223.1 L611.6,210.1 L617.3,210.1 L621.7,223.1 L624.4,217.3 L628.8,206.6 L633.7,212.9 L637.0,223.1 L639.5,217.3 L643.7,210.1 L648.4,217.3 L652.2,210.1 L655.2,195.0 L659.3,206.6 L664.2,217.3 L668.0,217.3 L670.9,217.3 L673.0,233.3 L677.2,231.4 L682.1,210.1 L685.4,210.1 L687.9,217.3 L692.0,240.0 L696.0,217.3 L696.0,256.0 L68.0,256.0 Z" class="fill"/>
  
    <line x1="68" y1="24.0" x2="696" y2="24.0" class="cap"/>
    <text x="696" y="17.0" class="cap-label" text-anchor="end">cap 300k</text>
  <path d="M68.0,250.2 L70.2,249.9 L71.3,249.9 L73.6,249.8 L73.6,249.8 L73.7,249.8 L73.9,249.8 L74.5,249.8 L76.1,249.8 L76.9,249.8 L78.0,249.7 L78.6,249.7 L79.5,249.7 L80.1,249.6 L82.0,249.4 L82.6,249.6 L83.6,249.5 L84.2,249.5 L85.4,249.3 L86.1,249.3 L87.7,248.0 L90.5,243.7 L95.1,242.3 L95.2,242.3 L97.4,242.2 L104.6,241.4 L110.6,241.2 L114.8,235.4 L114.9,235.2 L127.5,226.4 L127.6,226.4 L127.7,226.4 L129.2,227.2 L132.8,227.6 L135.5,227.1 L137.7,226.1 L143.7,221.6 L144.4,221.1 L151.0,223.3 L155.0,224.2 L159.1,224.7 L164.7,220.8 L171.4,214.1 L174.9,211.2 L186.1,212.9 L190.8,216.3 L194.1,218.3 L197.4,217.9 L200.2,217.3 L202.3,217.3 L203.9,217.3 L206.9,217.3 L210.4,217.3 L218.3,216.8 L219.9,217.3 L222.9,217.3 L229.5,217.3 L232.2,217.3 L234.3,217.1 L236.1,217.3 L239.0,197.7 L242.1,217.3 L244.5,217.3 L246.8,217.3 L248.3,217.1 L250.3,217.1 L251.4,201.7 L252.8,217.3 L256.1,217.1 L259.5,217.3 L261.7,200.8 L263.6,206.7 L265.0,206.7 L268.2,201.7 L271.4,201.7 L275.2,201.7 L279.3,200.8 L282.1,217.1 L284.0,217.3 L287.5,201.7 L290.9,201.7 L294.2,211.7 L296.9,201.7 L299.1,217.3 L300.7,217.1 L303.7,217.1 L307.1,201.7 L310.3,217.3 L313.0,207.3 L315.1,201.7 L316.8,217.3 L319.9,217.3 L323.2,206.7 L326.3,201.7 L329.0,220.1 L331.2,200.8 L332.9,221.3 L335.9,201.7 L339.3,201.7 L342.5,201.7 L352.8,220.1 L356.1,201.7 L358.4,201.7 L360.4,217.3 L361.9,217.3 L363.9,217.3 L365.7,201.7 L369.2,220.1 L373.0,221.0 L376.0,223.1 L378.1,201.7 L380.1,201.7 L381.9,217.3 L385.4,201.7 L390.6,220.1 L394.2,217.3 L396.7,223.1 L398.3,223.1 L402.5,201.7 L406.4,221.0 L409.5,201.7 L411.6,201.7 L413.6,223.1 L417.4,223.1 L421.2,201.7 L424.8,217.3 L426.9,217.3 L428.8,214.0 L434.7,217.3 L438.6,217.3 L441.8,223.1 L443.9,223.1 L445.9,217.5 L449.6,221.0 L453.2,223.1 L455.7,223.1 L458.1,223.1 L460.2,217.3 L462.0,217.3 L465.7,217.3 L469.2,217.5 L473.9,212.9 L477.3,212.9 L478.7,217.3 L482.1,220.1 L486.2,217.3 L489.2,223.1 L491.0,212.9 L493.0,219.8 L507.1,212.9 L509.7,216.2 L513.5,223.1 L516.8,223.1 L522.9,208.4 L525.1,212.9 L526.7,223.1 L530.3,207.0 L534.1,223.1 L537.7,217.3 L540.0,217.3 L542.2,223.1 L545.7,223.1 L549.1,220.1 L552.6,207.0 L554.7,217.3 L555.3,211.3 L557.5,211.2 L559.6,212.9 L563.8,210.0 L567.8,217.3 L571.0,202.0 L573.6,220.1 L575.7,217.3 L579.8,210.1 L583.5,210.0 L586.2,208.2 L588.0,212.9 L590.0,210.0 L591.8,212.9 L596.3,206.9 L600.2,208.2 L603.2,217.3 L605.7,210.1 L607.4,223.1 L611.6,210.1 L617.3,210.1 L621.7,223.1 L624.4,217.3 L628.8,206.6 L633.7,212.9 L637.0,223.1 L639.5,217.3 L643.7,210.1 L648.4,217.3 L652.2,210.1 L655.2,195.0 L659.3,206.6 L664.2,217.3 L668.0,217.3 L670.9,217.3 L673.0,233.3 L677.2,231.4 L682.1,210.1 L685.4,210.1 L687.9,217.3 L692.0,240.0 L696.0,217.3" class="series"/>
  <circle cx="68.0" cy="250.2" r="3.5" class="dot"><title>14:00 — 7,552</title></circle><circle cx="70.2" cy="249.9" r="3.5" class="dot"><title>17:20 — 7,907</title></circle><circle cx="71.3" cy="249.9" r="3.5" class="dot"><title>18:55 — 7,921</title></circle><circle cx="73.6" cy="249.8" r="3.5" class="dot"><title>22:16 — 7,956</title></circle><circle cx="73.6" cy="249.8" r="3.5" class="dot"><title>22:24 — 7,962</title></circle><circle cx="73.7" cy="249.8" r="3.5" class="dot"><title>22:27 — 7,963</title></circle><circle cx="73.9" cy="249.8" r="3.5" class="dot"><title>22:45 — 7,969</title></circle><circle cx="74.5" cy="249.8" r="3.5" class="dot"><title>23:38 — 7,983</title></circle><circle cx="76.1" cy="249.8" r="3.5" class="dot"><title>01:59 — 7,988</title></circle><circle cx="76.9" cy="249.8" r="3.5" class="dot"><title>03:18 — 8,016</title></circle><circle cx="78.0" cy="249.7" r="3.5" class="dot"><title>04:56 — 8,093</title></circle><circle cx="78.6" cy="249.7" r="3.5" class="dot"><title>05:50 — 8,130</title></circle><circle cx="79.5" cy="249.7" r="3.5" class="dot"><title>07:09 — 8,179</title></circle><circle cx="80.1" cy="249.6" r="3.5" class="dot"><title>08:00 — 8,318</title></circle><circle cx="82.0" cy="249.4" r="3.5" class="dot"><title>10:52 — 8,492</title></circle><circle cx="82.6" cy="249.6" r="3.5" class="dot"><title>11:45 — 8,324</title></circle><circle cx="83.6" cy="249.5" r="3.5" class="dot"><title>13:17 — 8,363</title></circle><circle cx="84.2" cy="249.5" r="3.5" class="dot"><title>14:08 — 8,417</title></circle><circle cx="85.4" cy="249.3" r="3.5" class="dot"><title>15:53 — 8,617</title></circle><circle cx="86.1" cy="249.3" r="3.5" class="dot"><title>17:00 — 8,629</title></circle><circle cx="87.7" cy="248.0" r="3.5" class="dot"><title>19:19 — 10,351</title></circle><circle cx="90.5" cy="243.7" r="3.5" class="dot"><title>23:33 — 15,969</title></circle><circle cx="95.1" cy="242.3" r="3.5" class="dot"><title>06:22 — 17,764</title></circle><circle cx="95.2" cy="242.3" r="3.5" class="dot"><title>06:25 — 17,764</title></circle><circle cx="97.4" cy="242.2" r="3.5" class="dot"><title>09:49 — 17,865</title></circle><circle cx="104.6" cy="241.4" r="3.5" class="dot"><title>20:30 — 18,845</title></circle><circle cx="110.6" cy="241.2" r="3.5" class="dot"><title>05:24 — 19,135</title></circle><circle cx="114.8" cy="235.4" r="3.5" class="dot"><title>11:36 — 26,592</title></circle><circle cx="114.9" cy="235.2" r="3.5" class="dot"><title>11:48 — 26,914</title></circle><circle cx="127.5" cy="226.4" r="3.5" class="dot"><title>06:33 — 38,212</title></circle><circle cx="127.6" cy="226.4" r="3.5" class="dot"><title>06:43 — 38,212</title></circle><circle cx="127.7" cy="226.4" r="3.5" class="dot"><title>06:51 — 38,212</title></circle><circle cx="129.2" cy="227.2" r="3.5" class="dot"><title>09:04 — 37,256</title></circle><circle cx="132.8" cy="227.6" r="3.5" class="dot"><title>14:29 — 36,763</title></circle><circle cx="135.5" cy="227.1" r="3.5" class="dot"><title>18:30 — 37,406</title></circle><circle cx="137.7" cy="226.1" r="3.5" class="dot"><title>21:45 — 38,625</title></circle><circle cx="143.7" cy="221.6" r="3.5" class="dot"><title>06:40 — 44,506</title></circle><circle cx="144.4" cy="221.1" r="3.5" class="dot"><title>07:40 — 45,145</title></circle><circle cx="151.0" cy="223.3" r="3.5" class="dot"><title>17:30 — 42,234</title></circle><circle cx="155.0" cy="224.2" r="3.5" class="dot"><title>23:30 — 41,080</title></circle><circle cx="159.1" cy="224.7" r="3.5" class="dot"><title>05:36 — 40,425</title></circle><circle cx="164.7" cy="220.8" r="3.5" class="dot"><title>13:52 — 45,509</title></circle><circle cx="171.4" cy="214.1" r="3.5" class="dot"><title>23:51 — 54,123</title></circle><circle cx="174.9" cy="211.2" r="3.5" class="dot"><title>05:09 — 57,872</title></circle><circle cx="186.1" cy="212.9" r="3.5" class="dot"><title>21:47 — 55,738</title></circle><circle cx="190.8" cy="216.3" r="3.5" class="dot"><title>04:42 — 51,398</title></circle><circle cx="194.1" cy="218.3" r="3.5" class="dot"><title>09:38 — 48,702</title></circle><circle cx="197.4" cy="217.9" r="3.5" class="dot"><title>14:32 — 49,270</title></circle><circle cx="200.2" cy="217.3" r="3.5" class="dot"><title>18:43 — 50,042</title></circle><circle cx="202.3" cy="217.3" r="3.5" class="dot"><title>21:50 — 50,042</title></circle><circle cx="203.9" cy="217.3" r="3.5" class="dot"><title>00:16 — 50,033</title></circle><circle cx="206.9" cy="217.3" r="3.5" class="dot"><title>04:39 — 50,038</title></circle><circle cx="210.4" cy="217.3" r="3.5" class="dot"><title>09:51 — 50,038</title></circle><circle cx="218.3" cy="216.8" r="3.5" class="dot"><title>21:43 — 50,746</title></circle><circle cx="219.9" cy="217.3" r="3.5" class="dot"><title>00:06 — 50,042</title></circle><circle cx="222.9" cy="217.3" r="3.5" class="dot"><title>04:34 — 50,033</title></circle><circle cx="229.5" cy="217.3" r="3.5" class="dot"><title>14:22 — 50,038</title></circle><circle cx="232.2" cy="217.3" r="3.5" class="dot"><title>18:24 — 50,038</title></circle><circle cx="234.3" cy="217.1" r="3.5" class="dot"><title>21:29 — 50,320</title></circle><circle cx="236.1" cy="217.3" r="3.5" class="dot"><title>00:07 — 50,038</title></circle><circle cx="239.0" cy="197.7" r="3.5" class="dot"><title>04:30 — 75,356</title></circle><circle cx="242.1" cy="217.3" r="3.5" class="dot"><title>09:05 — 50,042</title></circle><circle cx="244.5" cy="217.3" r="3.5" class="dot"><title>12:43 — 50,042</title></circle><circle cx="246.8" cy="217.3" r="3.5" class="dot"><title>16:05 — 50,042</title></circle><circle cx="248.3" cy="217.1" r="3.5" class="dot"><title>18:19 — 50,320</title></circle><circle cx="250.3" cy="217.1" r="3.5" class="dot"><title>21:15 — 50,320</title></circle><circle cx="251.4" cy="201.7" r="3.5" class="dot"><title>22:57 — 70,180</title></circle><circle cx="252.8" cy="217.3" r="3.5" class="dot"><title>00:58 — 50,033</title></circle><circle cx="256.1" cy="217.1" r="3.5" class="dot"><title>05:58 — 50,320</title></circle><circle cx="259.5" cy="217.3" r="3.5" class="dot"><title>10:57 — 50,042</title></circle><circle cx="261.7" cy="200.8" r="3.5" class="dot"><title>14:11 — 71,436</title></circle><circle cx="263.6" cy="206.7" r="3.5" class="dot"><title>17:03 — 63,797</title></circle><circle cx="265.0" cy="206.7" r="3.5" class="dot"><title>19:11 — 63,797</title></circle><circle cx="268.2" cy="201.7" r="3.5" class="dot"><title>23:55 — 70,180</title></circle><circle cx="271.4" cy="201.7" r="3.5" class="dot"><title>04:42 — 70,180</title></circle><circle cx="275.2" cy="201.7" r="3.5" class="dot"><title>10:19 — 70,180</title></circle><circle cx="279.3" cy="200.8" r="3.5" class="dot"><title>16:27 — 71,436</title></circle><circle cx="282.1" cy="217.1" r="3.5" class="dot"><title>20:34 — 50,320</title></circle><circle cx="284.0" cy="217.3" r="3.5" class="dot"><title>23:30 — 50,033</title></circle><circle cx="287.5" cy="201.7" r="3.5" class="dot"><title>04:37 — 70,180</title></circle><circle cx="290.9" cy="201.7" r="3.5" class="dot"><title>09:41 — 70,180</title></circle><circle cx="294.2" cy="211.7" r="3.5" class="dot"><title>14:33 — 57,349</title></circle><circle cx="296.9" cy="201.7" r="3.5" class="dot"><title>18:41 — 70,180</title></circle><circle cx="299.1" cy="217.3" r="3.5" class="dot"><title>21:51 — 50,033</title></circle><circle cx="300.7" cy="217.1" r="3.5" class="dot"><title>00:15 — 50,320</title></circle><circle cx="303.7" cy="217.1" r="3.5" class="dot"><title>04:48 — 50,320</title></circle><circle cx="307.1" cy="201.7" r="3.5" class="dot"><title>09:46 — 70,180</title></circle><circle cx="310.3" cy="217.3" r="3.5" class="dot"><title>14:36 — 50,041</title></circle><circle cx="313.0" cy="207.3" r="3.5" class="dot"><title>18:37 — 62,962</title></circle><circle cx="315.1" cy="201.7" r="3.5" class="dot"><title>21:42 — 70,180</title></circle><circle cx="316.8" cy="217.3" r="3.5" class="dot"><title>00:15 — 50,033</title></circle><circle cx="319.9" cy="217.3" r="3.5" class="dot"><title>04:50 — 50,033</title></circle><circle cx="323.2" cy="206.7" r="3.5" class="dot"><title>09:45 — 63,797</title></circle><circle cx="326.3" cy="201.7" r="3.5" class="dot"><title>14:27 — 70,180</title></circle><circle cx="329.0" cy="220.1" r="3.5" class="dot"><title>18:29 — 46,477</title></circle><circle cx="331.2" cy="200.8" r="3.5" class="dot"><title>21:38 — 71,436</title></circle><circle cx="332.9" cy="221.3" r="3.5" class="dot"><title>00:11 — 44,819</title></circle><circle cx="335.9" cy="201.7" r="3.5" class="dot"><title>04:41 — 70,180</title></circle><circle cx="339.3" cy="201.7" r="3.5" class="dot"><title>09:42 — 70,180</title></circle><circle cx="342.5" cy="201.7" r="3.5" class="dot"><title>14:26 — 70,180</title></circle><circle cx="352.8" cy="220.1" r="3.5" class="dot"><title>05:48 — 46,453</title></circle><circle cx="356.1" cy="201.7" r="3.5" class="dot"><title>10:47 — 70,180</title></circle><circle cx="358.4" cy="201.7" r="3.5" class="dot"><title>14:08 — 70,180</title></circle><circle cx="360.4" cy="217.3" r="3.5" class="dot"><title>17:11 — 50,033</title></circle><circle cx="361.9" cy="217.3" r="3.5" class="dot"><title>19:22 — 50,033</title></circle><circle cx="363.9" cy="217.3" r="3.5" class="dot"><title>22:18 — 50,033</title></circle><circle cx="365.7" cy="201.7" r="3.5" class="dot"><title>01:01 — 70,180</title></circle><circle cx="369.2" cy="220.1" r="3.5" class="dot"><title>06:10 — 46,477</title></circle><circle cx="373.0" cy="221.0" r="3.5" class="dot"><title>11:53 — 45,266</title></circle><circle cx="376.0" cy="223.1" r="3.5" class="dot"><title>16:18 — 42,588</title></circle><circle cx="378.1" cy="201.7" r="3.5" class="dot"><title>19:27 — 70,180</title></circle><circle cx="380.1" cy="201.7" r="3.5" class="dot"><title>22:25 — 70,180</title></circle><circle cx="381.9" cy="217.3" r="3.5" class="dot"><title>01:05 — 50,033</title></circle><circle cx="385.4" cy="201.7" r="3.5" class="dot"><title>06:18 — 70,180</title></circle><circle cx="390.6" cy="220.1" r="3.5" class="dot"><title>14:03 — 46,477</title></circle><circle cx="394.2" cy="217.3" r="3.5" class="dot"><title>19:22 — 50,091</title></circle><circle cx="396.7" cy="223.1" r="3.5" class="dot"><title>23:08 — 42,588</title></circle><circle cx="398.3" cy="223.1" r="3.5" class="dot"><title>01:28 — 42,550</title></circle><circle cx="402.5" cy="201.7" r="3.5" class="dot"><title>07:45 — 70,180</title></circle><circle cx="406.4" cy="221.0" r="3.5" class="dot"><title>13:34 — 45,266</title></circle><circle cx="409.5" cy="201.7" r="3.5" class="dot"><title>18:12 — 70,180</title></circle><circle cx="411.6" cy="201.7" r="3.5" class="dot"><title>21:22 — 70,180</title></circle><circle cx="413.6" cy="223.1" r="3.5" class="dot"><title>00:21 — 42,588</title></circle><circle cx="417.4" cy="223.1" r="3.5" class="dot"><title>06:02 — 42,588</title></circle><circle cx="421.2" cy="201.7" r="3.5" class="dot"><title>11:35 — 70,180</title></circle><circle cx="424.8" cy="217.3" r="3.5" class="dot"><title>16:56 — 50,091</title></circle><circle cx="426.9" cy="217.3" r="3.5" class="dot"><title>20:08 — 50,091</title></circle><circle cx="428.8" cy="214.0" r="3.5" class="dot"><title>22:56 — 54,265</title></circle><circle cx="434.7" cy="217.3" r="3.5" class="dot"><title>07:40 — 50,033</title></circle><circle cx="438.6" cy="217.3" r="3.5" class="dot"><title>13:28 — 50,033</title></circle><circle cx="441.8" cy="223.1" r="3.5" class="dot"><title>18:14 — 42,588</title></circle><circle cx="443.9" cy="223.1" r="3.5" class="dot"><title>21:25 — 42,550</title></circle><circle cx="445.9" cy="217.5" r="3.5" class="dot"><title>00:20 — 49,730</title></circle><circle cx="449.6" cy="221.0" r="3.5" class="dot"><title>05:55 — 45,266</title></circle><circle cx="453.2" cy="223.1" r="3.5" class="dot"><title>11:15 — 42,550</title></circle><circle cx="455.7" cy="223.1" r="3.5" class="dot"><title>15:01 — 42,588</title></circle><circle cx="458.1" cy="223.1" r="3.5" class="dot"><title>18:29 — 42,588</title></circle><circle cx="460.2" cy="217.3" r="3.5" class="dot"><title>21:41 — 50,033</title></circle><circle cx="462.0" cy="217.3" r="3.5" class="dot"><title>00:21 — 50,033</title></circle><circle cx="465.7" cy="217.3" r="3.5" class="dot"><title>05:54 — 50,033</title></circle><circle cx="469.2" cy="217.5" r="3.5" class="dot"><title>11:00 — 49,730</title></circle><circle cx="473.9" cy="212.9" r="3.5" class="dot"><title>18:02 — 55,742</title></circle><circle cx="477.3" cy="212.9" r="3.5" class="dot"><title>23:06 — 55,742</title></circle><circle cx="478.7" cy="217.3" r="3.5" class="dot"><title>01:10 — 50,033</title></circle><circle cx="482.1" cy="220.1" r="3.5" class="dot"><title>06:18 — 46,477</title></circle><circle cx="486.2" cy="217.3" r="3.5" class="dot"><title>12:22 — 50,033</title></circle><circle cx="489.2" cy="223.1" r="3.5" class="dot"><title>16:48 — 42,550</title></circle><circle cx="491.0" cy="212.9" r="3.5" class="dot"><title>19:27 — 55,742</title></circle><circle cx="493.0" cy="219.8" r="3.5" class="dot"><title>22:26 — 46,857</title></circle><circle cx="507.1" cy="212.9" r="3.5" class="dot"><title>19:28 — 55,742</title></circle><circle cx="509.7" cy="216.2" r="3.5" class="dot"><title>23:17 — 51,485</title></circle><circle cx="513.5" cy="223.1" r="3.5" class="dot"><title>04:57 — 42,588</title></circle><circle cx="516.8" cy="223.1" r="3.5" class="dot"><title>09:57 — 42,550</title></circle><circle cx="522.9" cy="208.4" r="3.5" class="dot"><title>18:55 — 61,615</title></circle><circle cx="525.1" cy="212.9" r="3.5" class="dot"><title>22:11 — 55,742</title></circle><circle cx="526.7" cy="223.1" r="3.5" class="dot"><title>00:33 — 42,588</title></circle><circle cx="530.3" cy="207.0" r="3.5" class="dot"><title>05:59 — 63,311</title></circle><circle cx="534.1" cy="223.1" r="3.5" class="dot"><title>11:37 — 42,588</title></circle><circle cx="537.7" cy="217.3" r="3.5" class="dot"><title>16:59 — 50,033</title></circle><circle cx="540.0" cy="217.3" r="3.5" class="dot"><title>20:22 — 50,033</title></circle><circle cx="542.2" cy="223.1" r="3.5" class="dot"><title>23:42 — 42,550</title></circle><circle cx="545.7" cy="223.1" r="3.5" class="dot"><title>04:51 — 42,550</title></circle><circle cx="549.1" cy="220.1" r="3.5" class="dot"><title>10:01 — 46,477</title></circle><circle cx="552.6" cy="207.0" r="3.5" class="dot"><title>15:07 — 63,311</title></circle><circle cx="554.7" cy="217.3" r="3.5" class="dot"><title>18:21 — 50,033</title></circle><circle cx="555.3" cy="211.3" r="3.5" class="dot"><title>19:10 — 57,866</title></circle><circle cx="557.5" cy="211.2" r="3.5" class="dot"><title>22:24 — 57,872</title></circle><circle cx="559.6" cy="212.9" r="3.5" class="dot"><title>01:31 — 55,742</title></circle><circle cx="563.8" cy="210.0" r="3.5" class="dot"><title>07:49 — 59,444</title></circle><circle cx="567.8" cy="217.3" r="3.5" class="dot"><title>13:48 — 50,033</title></circle><circle cx="571.0" cy="202.0" r="3.5" class="dot"><title>18:37 — 69,773</title></circle><circle cx="573.6" cy="220.1" r="3.5" class="dot"><title>22:21 — 46,477</title></circle><circle cx="575.7" cy="217.3" r="3.5" class="dot"><title>01:34 — 50,033</title></circle><circle cx="579.8" cy="210.1" r="3.5" class="dot"><title>07:42 — 59,373</title></circle><circle cx="583.5" cy="210.0" r="3.5" class="dot"><title>13:06 — 59,444</title></circle><circle cx="586.2" cy="208.2" r="3.5" class="dot"><title>17:11 — 61,810</title></circle><circle cx="588.0" cy="212.9" r="3.5" class="dot"><title>19:52 — 55,742</title></circle><circle cx="590.0" cy="210.0" r="3.5" class="dot"><title>22:52 — 59,444</title></circle><circle cx="591.8" cy="212.9" r="3.5" class="dot"><title>01:28 — 55,742</title></circle><circle cx="596.3" cy="206.9" r="3.5" class="dot"><title>08:11 — 63,436</title></circle><circle cx="600.2" cy="208.2" r="3.5" class="dot"><title>13:59 — 61,810</title></circle><circle cx="603.2" cy="217.3" r="3.5" class="dot"><title>18:24 — 50,033</title></circle><circle cx="605.7" cy="210.1" r="3.5" class="dot"><title>22:11 — 59,373</title></circle><circle cx="607.4" cy="223.1" r="3.5" class="dot"><title>00:47 — 42,550</title></circle><circle cx="611.6" cy="210.1" r="3.5" class="dot"><title>06:55 — 59,373</title></circle><circle cx="617.3" cy="210.1" r="3.5" class="dot"><title>15:28 — 59,373</title></circle><circle cx="621.7" cy="223.1" r="3.5" class="dot"><title>22:01 — 42,550</title></circle><circle cx="624.4" cy="217.3" r="3.5" class="dot"><title>01:57 — 50,033</title></circle><circle cx="628.8" cy="206.6" r="3.5" class="dot"><title>08:31 — 63,897</title></circle><circle cx="633.7" cy="212.9" r="3.5" class="dot"><title>15:52 — 55,714</title></circle><circle cx="637.0" cy="223.1" r="3.5" class="dot"><title>20:47 — 42,550</title></circle><circle cx="639.5" cy="217.3" r="3.5" class="dot"><title>00:27 — 50,033</title></circle><circle cx="643.7" cy="210.1" r="3.5" class="dot"><title>06:43 — 59,373</title></circle><circle cx="648.4" cy="217.3" r="3.5" class="dot"><title>13:44 — 50,033</title></circle><circle cx="652.2" cy="210.1" r="3.5" class="dot"><title>19:20 — 59,373</title></circle><circle cx="655.2" cy="195.0" r="3.5" class="dot"><title>23:50 — 78,817</title></circle><circle cx="659.3" cy="206.6" r="3.5" class="dot"><title>05:54 — 63,897</title></circle><circle cx="664.2" cy="217.3" r="3.5" class="dot"><title>13:16 — 50,033</title></circle><circle cx="668.0" cy="217.3" r="3.5" class="dot"><title>18:55 — 50,033</title></circle><circle cx="670.9" cy="217.3" r="3.5" class="dot"><title>23:12 — 50,033</title></circle><circle cx="673.0" cy="233.3" r="3.5" class="dot"><title>02:16 — 29,294</title></circle><circle cx="677.2" cy="231.4" r="3.5" class="dot"><title>08:38 — 31,788</title></circle><circle cx="682.1" cy="210.1" r="3.5" class="dot"><title>15:49 — 59,373</title></circle><circle cx="685.4" cy="210.1" r="3.5" class="dot"><title>20:45 — 59,373</title></circle><circle cx="687.9" cy="217.3" r="3.5" class="dot"><title>00:30 — 50,033</title></circle><circle cx="692.0" cy="240.0" r="3.5" class="dot"><title>06:33 — 20,663</title></circle><circle cx="696.0" cy="217.3" r="5" class="dot dot-last"><title>12:34 — 50,033</title></circle>
  <text x="696.0" y="203.3" class="end-label" text-anchor="end">50,033</text>
  <line x1="68" y1="256" x2="696" y2="256" class="axis"/>
  
    <text x="68.0" y="278" class="tick" text-anchor="start">14:00</text>
    <text x="137.7" y="278" class="tick" text-anchor="middle">21:45</text>
    <text x="261.7" y="278" class="tick" text-anchor="middle">14:11</text>
    <text x="363.9" y="278" class="tick" text-anchor="middle">22:18</text>
    <text x="469.2" y="278" class="tick" text-anchor="middle">11:00</text>
    <text x="586.2" y="278" class="tick" text-anchor="middle">17:11</text>
    <text x="696.0" y="278" class="tick" text-anchor="end">12:34</text>
</svg>