<svg xmlns="http://www.w3.org/2000/svg" viewBox="0 0 720 300" role="img" aria-label="Rooms against the 300,000 cap">
  <title>Rooms against the 300,000 cap</title>
  <desc>55,742 of 300,000 — 19% full, up 31% over the last quarter of the window. The tightest cap measured here is notes, at 20%.</desc>
  <style>
    .grid      { stroke: var(--chart-grid, #d8dce4); stroke-width: 1; }
    .cap       { stroke: var(--chart-cap, #9a2b22); stroke-width: 1.5; stroke-dasharray: 5 4; }
    .cap-label { fill: var(--chart-cap, #9a2b22); font: 600 11px Archivo, system-ui, sans-serif; letter-spacing: .04em; }
    .tick      { fill: var(--chart-muted, #737c8c); font: 500 11px "IBM Plex Mono", ui-monospace, monospace; }
    .tick-y    { text-anchor: end; }
    .tick-x    { text-anchor: middle; }
    .series    { fill: none; stroke: var(--chart-line, #a25c00); stroke-width: 2.5; stroke-linejoin: round; stroke-linecap: round; }
    .fill      { fill: var(--chart-fill, rgba(162,92,0,.10)); stroke: none; }
    .dot       { fill: var(--chart-line, #a25c00); }
    .dot-last  { stroke: var(--chart-bg, #fff); stroke-width: 2.5; }
    .end-label { fill: var(--chart-line, #a25c00); font: 700 13px Archivo, system-ui, sans-serif; }
    .axis      { stroke: var(--chart-axis, #b9bfca); stroke-width: 1; }
  </style>
  
    <line x1="68" y1="256.0" x2="696" y2="256.0" class="grid"/>
    <text x="58" y="260.0" class="tick tick-y">0</text>
    <line x1="68" y1="198.0" x2="696" y2="198.0" class="grid"/>
    <text x="58" y="202.0" class="tick tick-y">75k</text>
    <line x1="68" y1="140.0" x2="696" y2="140.0" class="grid"/>
    <text x="58" y="144.0" class="tick tick-y">150k</text>
    <line x1="68" y1="82.0" x2="696" y2="82.0" class="grid"/>
    <text x="58" y="86.0" class="tick tick-y">225k</text>
    <line x1="68" y1="24.0" x2="696" y2="24.0" class="grid"/>
    <text x="58" y="28.0" class="tick tick-y">300k</text>
  <path d="M68.0,250.2 L70.7,249.9 L72.0,249.9 L74.7,249.8 L74.8,249.8 L74.9,249.8 L75.1,249.8 L75.8,249.8 L77.7,249.8 L78.8,249.8 L80.1,249.7 L80.8,249.7 L81.9,249.7 L82.6,249.6 L84.9,249.4 L85.7,249.6 L86.9,249.5 L87.6,249.5 L89.0,249.3 L89.9,249.3 L91.8,248.0 L95.2,243.7 L100.8,242.3 L100.8,242.3 L103.6,242.2 L112.2,241.4 L119.4,241.2 L124.5,235.4 L124.6,235.2 L139.9,226.4 L140.0,226.4 L140.1,226.4 L141.9,227.2 L146.3,227.6 L149.6,227.1 L152.2,226.1 L159.4,221.6 L160.2,221.1 L168.2,223.3 L173.1,224.2 L178.0,224.7 L184.7,220.8 L192.9,214.1 L197.2,211.2 L210.6,212.9 L216.3,216.3 L220.3,218.3 L224.2,217.9 L227.6,217.3 L230.2,217.3 L232.1,217.3 L235.7,217.3 L239.9,217.3 L249.5,216.8 L251.5,217.3 L255.1,217.3 L263.1,217.3 L266.3,217.3 L268.8,217.1 L271.0,217.3 L274.5,197.7 L278.2,217.3 L281.2,217.3 L283.9,217.3 L285.7,217.1 L288.1,217.1 L289.5,201.7 L291.1,217.3 L295.2,217.1 L299.2,217.3 L301.9,200.8 L304.2,206.7 L305.9,206.7 L309.8,201.7 L313.6,201.7 L318.2,201.7 L323.2,200.8 L326.5,217.1 L328.9,217.3 L333.1,201.7 L337.2,201.7 L341.1,211.7 L344.5,201.7 L347.0,217.3 L349.0,217.1 L352.7,217.1 L356.7,201.7 L360.6,217.3 L363.9,207.3 L366.4,201.7 L368.5,217.3 L372.2,217.3 L376.2,206.7 L380.0,201.7 L383.3,220.1 L385.8,200.8 L387.9,221.3 L391.5,201.7 L395.6,201.7 L399.4,201.7 L411.9,220.1 L416.0,201.7 L418.7,201.7 L421.2,217.3 L422.9,217.3 L425.3,217.3 L427.5,201.7 L431.7,220.1 L436.3,221.0 L439.9,223.1 L442.5,201.7 L444.9,201.7 L447.0,217.3 L451.3,201.7 L457.6,220.1 L461.9,217.3 L464.9,223.1 L466.8,223.1 L471.9,201.7 L476.6,221.0 L480.4,201.7 L483.0,201.7 L485.4,223.1 L490.0,223.1 L494.5,201.7 L498.9,217.3 L501.5,217.3 L503.7,214.0 L510.8,217.3 L515.5,217.3 L519.4,223.1 L522.0,223.1 L524.3,217.5 L528.9,221.0 L533.2,223.1 L536.3,223.1 L539.1,223.1 L541.7,217.3 L543.8,217.3 L548.3,217.3 L552.5,217.5 L558.2,212.9 L562.3,212.9 L564.0,217.3 L568.1,220.1 L573.1,217.3 L576.7,223.1 L578.8,212.9 L581.2,219.8 L598.3,212.9 L601.4,216.2 L606.0,223.1 L610.0,223.1 L617.3,208.4 L620.0,212.9 L621.9,223.1 L626.3,207.0 L630.9,223.1 L635.2,217.3 L638.0,217.3 L640.7,223.1 L644.9,223.1 L649.1,220.1 L653.2,207.0 L655.8,217.3 L656.5,211.3 L659.1,211.2 L661.6,212.9 L666.7,210.0 L671.6,217.3 L675.5,202.0 L678.5,220.1 L681.1,217.3 L686.1,210.1 L690.5,210.0 L693.8,208.2 L696.0,212.9 L696.0,256.0 L68.0,256.0 Z" class="fill"/>
  
    <line x1="68" y1="24.0" x2="696" y2="24.0" class="cap"/>
    <text x="696" y="17.0" class="cap-label" text-anchor="end">cap 300k</text>
  <path d="M68.0,250.2 L70.7,249.9 L72.0,249.9 L74.7,249.8 L74.8,249.8 L74.9,249.8 L75.1,249.8 L75.8,249.8 L77.7,249.8 L78.8,249.8 L80.1,249.7 L80.8,249.7 L81.9,249.7 L82.6,249.6 L84.9,249.4 L85.7,249.6 L86.9,249.5 L87.6,249.5 L89.0,249.3 L89.9,249.3 L91.8,248.0 L95.2,243.7 L100.8,242.3 L100.8,242.3 L103.6,242.2 L112.2,241.4 L119.4,241.2 L124.5,235.4 L124.6,235.2 L139.9,226.4 L140.0,226.4 L140.1,226.4 L141.9,227.2 L146.3,227.6 L149.6,227.1 L152.2,226.1 L159.4,221.6 L160.2,221.1 L168.2,223.3 L173.1,224.2 L178.0,224.7 L184.7,220.8 L192.9,214.1 L197.2,211.2 L210.6,212.9 L216.3,216.3 L220.3,218.3 L224.2,217.9 L227.6,217.3 L230.2,217.3 L232.1,217.3 L235.7,217.3 L239.9,217.3 L249.5,216.8 L251.5,217.3 L255.1,217.3 L263.1,217.3 L266.3,217.3 L268.8,217.1 L271.0,217.3 L274.5,197.7 L278.2,217.3 L281.2,217.3 L283.9,217.3 L285.7,217.1 L288.1,217.1 L289.5,201.7 L291.1,217.3 L295.2,217.1 L299.2,217.3 L301.9,200.8 L304.2,206.7 L305.9,206.7 L309.8,201.7 L313.6,201.7 L318.2,201.7 L323.2,200.8 L326.5,217.1 L328.9,217.3 L333.1,201.7 L337.2,201.7 L341.1,211.7 L344.5,201.7 L347.0,217.3 L349.0,217.1 L352.7,217.1 L356.7,201.7 L360.6,217.3 L363.9,207.3 L366.4,201.7 L368.5,217.3 L372.2,217.3 L376.2,206.7 L380.0,201.7 L383.3,220.1 L385.8,200.8 L387.9,221.3 L391.5,201.7 L395.6,201.7 L399.4,201.7 L411.9,220.1 L416.0,201.7 L418.7,201.7 L421.2,217.3 L422.9,217.3 L425.3,217.3 L427.5,201.7 L431.7,220.1 L436.3,221.0 L439.9,223.1 L442.5,201.7 L444.9,201.7 L447.0,217.3 L451.3,201.7 L457.6,220.1 L461.9,217.3 L464.9,223.1 L466.8,223.1 L471.9,201.7 L476.6,221.0 L480.4,201.7 L483.0,201.7 L485.4,223.1 L490.0,223.1 L494.5,201.7 L498.9,217.3 L501.5,217.3 L503.7,214.0 L510.8,217.3 L515.5,217.3 L519.4,223.1 L522.0,223.1 L524.3,217.5 L528.9,221.0 L533.2,223.1 L536.3,223.1 L539.1,223.1 L541.7,217.3 L543.8,217.3 L548.3,217.3 L552.5,217.5 L558.2,212.9 L562.3,212.9 L564.0,217.3 L568.1,220.1 L573.1,217.3 L576.7,223.1 L578.8,212.9 L581.2,219.8 L598.3,212.9 L601.4,216.2 L606.0,223.1 L610.0,223.1 L617.3,208.4 L620.0,212.9 L621.9,223.1 L626.3,207.0 L630.9,223.1 L635.2,217.3 L638.0,217.3 L640.7,223.1 L644.9,223.1 L649.1,220.1 L653.2,207.0 L655.8,217.3 L656.5,211.3 L659.1,211.2 L661.6,212.9 L666.7,210.0 L671.6,217.3 L675.5,202.0 L678.5,220.1 L681.1,217.3 L686.1,210.1 L690.5,210.0 L693.8,208.2 L696.0,212.9" class="series"/>
  <circle cx="68.0" cy="250.2" r="3.5" class="dot"><title>14:00 — 7,552</title></circle><circle cx="70.7" cy="249.9" r="3.5" class="dot"><title>17:20 — 7,907</title></circle><circle cx="72.0" cy="249.9" r="3.5" class="dot"><title>18:55 — 7,921</title></circle><circle cx="74.7" cy="249.8" r="3.5" class="dot"><title>22:16 — 7,956</title></circle><circle cx="74.8" cy="249.8" r="3.5" class="dot"><title>22:24 — 7,962</title></circle><circle cx="74.9" cy="249.8" r="3.5" class="dot"><title>22:27 — 7,963</title></circle><circle cx="75.1" cy="249.8" r="3.5" class="dot"><title>22:45 — 7,969</title></circle><circle cx="75.8" cy="249.8" r="3.5" class="dot"><title>23:38 — 7,983</title></circle><circle cx="77.7" cy="249.8" r="3.5" class="dot"><title>01:59 — 7,988</title></circle><circle cx="78.8" cy="249.8" r="3.5" class="dot"><title>03:18 — 8,016</title></circle><circle cx="80.1" cy="249.7" r="3.5" class="dot"><title>04:56 — 8,093</title></circle><circle cx="80.8" cy="249.7" r="3.5" class="dot"><title>05:50 — 8,130</title></circle><circle cx="81.9" cy="249.7" r="3.5" class="dot"><title>07:09 — 8,179</title></circle><circle cx="82.6" cy="249.6" r="3.5" class="dot"><title>08:00 — 8,318</title></circle><circle cx="84.9" cy="249.4" r="3.5" class="dot"><title>10:52 — 8,492</title></circle><circle cx="85.7" cy="249.6" r="3.5" class="dot"><title>11:45 — 8,324</title></circle><circle cx="86.9" cy="249.5" r="3.5" class="dot"><title>13:17 — 8,363</title></circle><circle cx="87.6" cy="249.5" r="3.5" class="dot"><title>14:08 — 8,417</title></circle><circle cx="89.0" cy="249.3" r="3.5" class="dot"><title>15:53 — 8,617</title></circle><circle cx="89.9" cy="249.3" r="3.5" class="dot"><title>17:00 — 8,629</title></circle><circle cx="91.8" cy="248.0" r="3.5" class="dot"><title>19:19 — 10,351</title></circle><circle cx="95.2" cy="243.7" r="3.5" class="dot"><title>23:33 — 15,969</title></circle><circle cx="100.8" cy="242.3" r="3.5" class="dot"><title>06:22 — 17,764</title></circle><circle cx="100.8" cy="242.3" r="3.5" class="dot"><title>06:25 — 17,764</title></circle><circle cx="103.6" cy="242.2" r="3.5" class="dot"><title>09:49 — 17,865</title></circle><circle cx="112.2" cy="241.4" r="3.5" class="dot"><title>20:30 — 18,845</title></circle><circle cx="119.4" cy="241.2" r="3.5" class="dot"><title>05:24 — 19,135</title></circle><circle cx="124.5" cy="235.4" r="3.5" class="dot"><title>11:36 — 26,592</title></circle><circle cx="124.6" cy="235.2" r="3.5" class="dot"><title>11:48 — 26,914</title></circle><circle cx="139.9" cy="226.4" r="3.5" class="dot"><title>06:33 — 38,212</title></circle><circle cx="140.0" cy="226.4" r="3.5" class="dot"><title>06:43 — 38,212</title></circle><circle cx="140.1" cy="226.4" r="3.5" class="dot"><title>06:51 — 38,212</title></circle><circle cx="141.9" cy="227.2" r="3.5" class="dot"><title>09:04 — 37,256</title></circle><circle cx="146.3" cy="227.6" r="3.5" class="dot"><title>14:29 — 36,763</title></circle><circle cx="149.6" cy="227.1" r="3.5" class="dot"><title>18:30 — 37,406</title></circle><circle cx="152.2" cy="226.1" r="3.5" class="dot"><title>21:45 — 38,625</title></circle><circle cx="159.4" cy="221.6" r="3.5" class="dot"><title>06:40 — 44,506</title></circle><circle cx="160.2" cy="221.1" r="3.5" class="dot"><title>07:40 — 45,145</title></circle><circle cx="168.2" cy="223.3" r="3.5" class="dot"><title>17:30 — 42,234</title></circle><circle cx="173.1" cy="224.2" r="3.5" class="dot"><title>23:30 — 41,080</title></circle><circle cx="178.0" cy="224.7" r="3.5" class="dot"><title>05:36 — 40,425</title></circle><circle cx="184.7" cy="220.8" r="3.5" class="dot"><title>13:52 — 45,509</title></circle><circle cx="192.9" cy="214.1" r="3.5" class="dot"><title>23:51 — 54,123</title></circle><circle cx="197.2" cy="211.2" r="3.5" class="dot"><title>05:09 — 57,872</title></circle><circle cx="210.6" cy="212.9" r="3.5" class="dot"><title>21:47 — 55,738</title></circle><circle cx="216.3" cy="216.3" r="3.5" class="dot"><title>04:42 — 51,398</title></circle><circle cx="220.3" cy="218.3" r="3.5" class="dot"><title>09:38 — 48,702</title></circle><circle cx="224.2" cy="217.9" r="3.5" class="dot"><title>14:32 — 49,270</title></circle><circle cx="227.6" cy="217.3" r="3.5" class="dot"><title>18:43 — 50,042</title></circle><circle cx="230.2" cy="217.3" r="3.5" class="dot"><title>21:50 — 50,042</title></circle><circle cx="232.1" cy="217.3" r="3.5" class="dot"><title>00:16 — 50,033</title></circle><circle cx="235.7" cy="217.3" r="3.5" class="dot"><title>04:39 — 50,038</title></circle><circle cx="239.9" cy="217.3" r="3.5" class="dot"><title>09:51 — 50,038</title></circle><circle cx="249.5" cy="216.8" r="3.5" class="dot"><title>21:43 — 50,746</title></circle><circle cx="251.5" cy="217.3" r="3.5" class="dot"><title>00:06 — 50,042</title></circle><circle cx="255.1" cy="217.3" r="3.5" class="dot"><title>04:34 — 50,033</title></circle><circle cx="263.1" cy="217.3" r="3.5" class="dot"><title>14:22 — 50,038</title></circle><circle cx="266.3" cy="217.3" r="3.5" class="dot"><title>18:24 — 50,038</title></circle><circle cx="268.8" cy="217.1" r="3.5" class="dot"><title>21:29 — 50,320</title></circle><circle cx="271.0" cy="217.3" r="3.5" class="dot"><title>00:07 — 50,038</title></circle><circle cx="274.5" cy="197.7" r="3.5" class="dot"><title>04:30 — 75,356</title></circle><circle cx="278.2" cy="217.3" r="3.5" class="dot"><title>09:05 — 50,042</title></circle><circle cx="281.2" cy="217.3" r="3.5" class="dot"><title>12:43 — 50,042</title></circle><circle cx="283.9" cy="217.3" r="3.5" class="dot"><title>16:05 — 50,042</title></circle><circle cx="285.7" cy="217.1" r="3.5" class="dot"><title>18:19 — 50,320</title></circle><circle cx="288.1" cy="217.1" r="3.5" class="dot"><title>21:15 — 50,320</title></circle><circle cx="289.5" cy="201.7" r="3.5" class="dot"><title>22:57 — 70,180</title></circle><circle cx="291.1" cy="217.3" r="3.5" class="dot"><title>00:58 — 50,033</title></circle><circle cx="295.2" cy="217.1" r="3.5" class="dot"><title>05:58 — 50,320</title></circle><circle cx="299.2" cy="217.3" r="3.5" class="dot"><title>10:57 — 50,042</title></circle><circle cx="301.9" cy="200.8" r="3.5" class="dot"><title>14:11 — 71,436</title></circle><circle cx="304.2" cy="206.7" r="3.5" class="dot"><title>17:03 — 63,797</title></circle><circle cx="305.9" cy="206.7" r="3.5" class="dot"><title>19:11 — 63,797</title></circle><circle cx="309.8" cy="201.7" r="3.5" class="dot"><title>23:55 — 70,180</title></circle><circle cx="313.6" cy="201.7" r="3.5" class="dot"><title>04:42 — 70,180</title></circle><circle cx="318.2" cy="201.7" r="3.5" class="dot"><title>10:19 — 70,180</title></circle><circle cx="323.2" cy="200.8" r="3.5" class="dot"><title>16:27 — 71,436</title></circle><circle cx="326.5" cy="217.1" r="3.5" class="dot"><title>20:34 — 50,320</title></circle><circle cx="328.9" cy="217.3" r="3.5" class="dot"><title>23:30 — 50,033</title></circle><circle cx="333.1" cy="201.7" r="3.5" class="dot"><title>04:37 — 70,180</title></circle><circle cx="337.2" cy="201.7" r="3.5" class="dot"><title>09:41 — 70,180</title></circle><circle cx="341.1" cy="211.7" r="3.5" class="dot"><title>14:33 — 57,349</title></circle><circle cx="344.5" cy="201.7" r="3.5" class="dot"><title>18:41 — 70,180</title></circle><circle cx="347.0" cy="217.3" r="3.5" class="dot"><title>21:51 — 50,033</title></circle><circle cx="349.0" cy="217.1" r="3.5" class="dot"><title>00:15 — 50,320</title></circle><circle cx="352.7" cy="217.1" r="3.5" class="dot"><title>04:48 — 50,320</title></circle><circle cx="356.7" cy="201.7" r="3.5" class="dot"><title>09:46 — 70,180</title></circle><circle cx="360.6" cy="217.3" r="3.5" class="dot"><title>14:36 — 50,041</title></circle><circle cx="363.9" cy="207.3" r="3.5" class="dot"><title>18:37 — 62,962</title></circle><circle cx="366.4" cy="201.7" r="3.5" class="dot"><title>21:42 — 70,180</title></circle><circle cx="368.5" cy="217.3" r="3.5" class="dot"><title>00:15 — 50,033</title></circle><circle cx="372.2" cy="217.3" r="3.5" class="dot"><title>04:50 — 50,033</title></circle><circle cx="376.2" cy="206.7" r="3.5" class="dot"><title>09:45 — 63,797</title></circle><circle cx="380.0" cy="201.7" r="3.5" class="dot"><title>14:27 — 70,180</title></circle><circle cx="383.3" cy="220.1" r="3.5" class="dot"><title>18:29 — 46,477</title></circle><circle cx="385.8" cy="200.8" r="3.5" class="dot"><title>21:38 — 71,436</title></circle><circle cx="387.9" cy="221.3" r="3.5" class="dot"><title>00:11 — 44,819</title></circle><circle cx="391.5" cy="201.7" r="3.5" class="dot"><title>04:41 — 70,180</title></circle><circle cx="395.6" cy="201.7" r="3.5" class="dot"><title>09:42 — 70,180</title></circle><circle cx="399.4" cy="201.7" r="3.5" class="dot"><title>14:26 — 70,180</title></circle><circle cx="411.9" cy="220.1" r="3.5" class="dot"><title>05:48 — 46,453</title></circle><circle cx="416.0" cy="201.7" r="3.5" class="dot"><title>10:47 — 70,180</title></circle><circle cx="418.7" cy="201.7" r="3.5" class="dot"><title>14:08 — 70,180</title></circle><circle cx="421.2" cy="217.3" r="3.5" class="dot"><title>17:11 — 50,033</title></circle><circle cx="422.9" cy="217.3" r="3.5" class="dot"><title>19:22 — 50,033</title></circle><circle cx="425.3" cy="217.3" r="3.5" class="dot"><title>22:18 — 50,033</title></circle><circle cx="427.5" cy="201.7" r="3.5" class="dot"><title>01:01 — 70,180</title></circle><circle cx="431.7" cy="220.1" r="3.5" class="dot"><title>06:10 — 46,477</title></circle><circle cx="436.3" cy="221.0" r="3.5" class="dot"><title>11:53 — 45,266</title></circle><circle cx="439.9" cy="223.1" r="3.5" class="dot"><title>16:18 — 42,588</title></circle><circle cx="442.5" cy="201.7" r="3.5" class="dot"><title>19:27 — 70,180</title></circle><circle cx="444.9" cy="201.7" r="3.5" class="dot"><title>22:25 — 70,180</title></circle><circle cx="447.0" cy="217.3" r="3.5" class="dot"><title>01:05 — 50,033</title></circle><circle cx="451.3" cy="201.7" r="3.5" class="dot"><title>06:18 — 70,180</title></circle><circle cx="457.6" cy="220.1" r="3.5" class="dot"><title>14:03 — 46,477</title></circle><circle cx="461.9" cy="217.3" r="3.5" class="dot"><title>19:22 — 50,091</title></circle><circle cx="464.9" cy="223.1" r="3.5" class="dot"><title>23:08 — 42,588</title></circle><circle cx="466.8" cy="223.1" r="3.5" class="dot"><title>01:28 — 42,550</title></circle><circle cx="471.9" cy="201.7" r="3.5" class="dot"><title>07:45 — 70,180</title></circle><circle cx="476.6" cy="221.0" r="3.5" class="dot"><title>13:34 — 45,266</title></circle><circle cx="480.4" cy="201.7" r="3.5" class="dot"><title>18:12 — 70,180</title></circle><circle cx="483.0" cy="201.7" r="3.5" class="dot"><title>21:22 — 70,180</title></circle><circle cx="485.4" cy="223.1" r="3.5" class="dot"><title>00:21 — 42,588</title></circle><circle cx="490.0" cy="223.1" r="3.5" class="dot"><title>06:02 — 42,588</title></circle><circle cx="494.5" cy="201.7" r="3.5" class="dot"><title>11:35 — 70,180</title></circle><circle cx="498.9" cy="217.3" r="3.5" class="dot"><title>16:56 — 50,091</title></circle><circle cx="501.5" cy="217.3" r="3.5" class="dot"><title>20:08 — 50,091</title></circle><circle cx="503.7" cy="214.0" r="3.5" class="dot"><title>22:56 — 54,265</title></circle><circle cx="510.8" cy="217.3" r="3.5" class="dot"><title>07:40 — 50,033</title></circle><circle cx="515.5" cy="217.3" r="3.5" class="dot"><title>13:28 — 50,033</title></circle><circle cx="519.4" cy="223.1" r="3.5" class="dot"><title>18:14 — 42,588</title></circle><circle cx="522.0" cy="223.1" r="3.5" class="dot"><title>21:25 — 42,550</title></circle><circle cx="524.3" cy="217.5" r="3.5" class="dot"><title>00:20 — 49,730</title></circle><circle cx="528.9" cy="221.0" r="3.5" class="dot"><title>05:55 — 45,266</title></circle><circle cx="533.2" cy="223.1" r="3.5" class="dot"><title>11:15 — 42,550</title></circle><circle cx="536.3" cy="223.1" r="3.5" class="dot"><title>15:01 — 42,588</title></circle><circle cx="539.1" cy="223.1" r="3.5" class="dot"><title>18:29 — 42,588</title></circle><circle cx="541.7" cy="217.3" r="3.5" class="dot"><title>21:41 — 50,033</title></circle><circle cx="543.8" cy="217.3" r="3.5" class="dot"><title>00:21 — 50,033</title></circle><circle cx="548.3" cy="217.3" r="3.5" class="dot"><title>05:54 — 50,033</title></circle><circle cx="552.5" cy="217.5" r="3.5" class="dot"><title>11:00 — 49,730</title></circle><circle cx="558.2" cy="212.9" r="3.5" class="dot"><title>18:02 — 55,742</title></circle><circle cx="562.3" cy="212.9" r="3.5" class="dot"><title>23:06 — 55,742</title></circle><circle cx="564.0" cy="217.3" r="3.5" class="dot"><title>01:10 — 50,033</title></circle><circle cx="568.1" cy="220.1" r="3.5" class="dot"><title>06:18 — 46,477</title></circle><circle cx="573.1" cy="217.3" r="3.5" class="dot"><title>12:22 — 50,033</title></circle><circle cx="576.7" cy="223.1" r="3.5" class="dot"><title>16:48 — 42,550</title></circle><circle cx="578.8" cy="212.9" r="3.5" class="dot"><title>19:27 — 55,742</title></circle><circle cx="581.2" cy="219.8" r="3.5" class="dot"><title>22:26 — 46,857</title></circle><circle cx="598.3" cy="212.9" r="3.5" class="dot"><title>19:28 — 55,742</title></circle><circle cx="601.4" cy="216.2" r="3.5" class="dot"><title>23:17 — 51,485</title></circle><circle cx="606.0" cy="223.1" r="3.5" class="dot"><title>04:57 — 42,588</title></circle><circle cx="610.0" cy="223.1" r="3.5" class="dot"><title>09:57 — 42,550</title></circle><circle cx="617.3" cy="208.4" r="3.5" class="dot"><title>18:55 — 61,615</title></circle><circle cx="620.0" cy="212.9" r="3.5" class="dot"><title>22:11 — 55,742</title></circle><circle cx="621.9" cy="223.1" r="3.5" class="dot"><title>00:33 — 42,588</title></circle><circle cx="626.3" cy="207.0" r="3.5" class="dot"><title>05:59 — 63,311</title></circle><circle cx="630.9" cy="223.1" r="3.5" class="dot"><title>11:37 — 42,588</title></circle><circle cx="635.2" cy="217.3" r="3.5" class="dot"><title>16:59 — 50,033</title></circle><circle cx="638.0" cy="217.3" r="3.5" class="dot"><title>20:22 — 50,033</title></circle><circle cx="640.7" cy="223.1" r="3.5" class="dot"><title>23:42 — 42,550</title></circle><circle cx="644.9" cy="223.1" r="3.5" class="dot"><title>04:51 — 42,550</title></circle><circle cx="649.1" cy="220.1" r="3.5" class="dot"><title>10:01 — 46,477</title></circle><circle cx="653.2" cy="207.0" r="3.5" class="dot"><title>15:07 — 63,311</title></circle><circle cx="655.8" cy="217.3" r="3.5" class="dot"><title>18:21 — 50,033</title></circle><circle cx="656.5" cy="211.3" r="3.5" class="dot"><title>19:10 — 57,866</title></circle><circle cx="659.1" cy="211.2" r="3.5" class="dot"><title>22:24 — 57,872</title></circle><circle cx="661.6" cy="212.9" r="3.5" class="dot"><title>01:31 — 55,742</title></circle><circle cx="666.7" cy="210.0" r="3.5" class="dot"><title>07:49 — 59,444</title></circle><circle cx="671.6" cy="217.3" r="3.5" class="dot"><title>13:48 — 50,033</title></circle><circle cx="675.5" cy="202.0" r="3.5" class="dot"><title>18:37 — 69,773</title></circle><circle cx="678.5" cy="220.1" r="3.5" class="dot"><title>22:21 — 46,477</title></circle><circle cx="681.1" cy="217.3" r="3.5" class="dot"><title>01:34 — 50,033</title></circle><circle cx="686.1" cy="210.1" r="3.5" class="dot"><title>07:42 — 59,373</title></circle><circle cx="690.5" cy="210.0" r="3.5" class="dot"><title>13:06 — 59,444</title></circle><circle cx="693.8" cy="208.2" r="3.5" class="dot"><title>17:11 — 61,810</title></circle><circle cx="696.0" cy="212.9" r="5" class="dot dot-last"><title>19:52 — 55,742</title></circle>
  <text x="696.0" y="198.9" class="end-label" text-anchor="end">55,742</text>
  <line x1="68" y1="256" x2="696" y2="256" class="axis"/>
  
    <text x="68.0" y="278" class="tick" text-anchor="start">14:00</text>
    <text x="140.0" y="278" class="tick" text-anchor="middle">06:43</text>
    <text x="274.5" y="278" class="tick" text-anchor="middle">04:30</text>
    <text x="368.5" y="278" class="tick" text-anchor="middle">00:15</text>
    <text x="480.4" y="278" class="tick" text-anchor="middle">18:12</text>
    <text x="601.4" y="278" class="tick" text-anchor="middle">23:17</text>
    <text x="696.0" y="278" class="tick" text-anchor="end">19:52</text>
</svg>