<svg xmlns="http://www.w3.org/2000/svg" viewBox="0 0 720 300" role="img" aria-label="Rooms against the 10,240 cap">
  <title>Rooms against the 10,240 cap</title>
  <desc>The tightest cap on the service: 78% full and still climbing.</desc>
  <style>
    .grid      { stroke: var(--chart-grid, #d8dce4); stroke-width: 1; }
    .cap       { stroke: var(--chart-cap, #9a2b22); stroke-width: 1.5; stroke-dasharray: 5 4; }
    .cap-label { fill: var(--chart-cap, #9a2b22); font: 600 11px Archivo, system-ui, sans-serif; letter-spacing: .04em; }
    .tick      { fill: var(--chart-muted, #737c8c); font: 500 11px "IBM Plex Mono", ui-monospace, monospace; }
    .tick-y    { text-anchor: end; }
    .tick-x    { text-anchor: middle; }
    .series    { fill: none; stroke: var(--chart-line, #a25c00); stroke-width: 2.5; stroke-linejoin: round; stroke-linecap: round; }
    .fill      { fill: var(--chart-fill, rgba(162,92,0,.10)); stroke: none; }
    .dot       { fill: var(--chart-line, #a25c00); }
    .dot-last  { stroke: var(--chart-bg, #fff); stroke-width: 2.5; }
    .end-label { fill: var(--chart-line, #a25c00); font: 700 13px Archivo, system-ui, sans-serif; }
    .axis      { stroke: var(--chart-axis, #b9bfca); stroke-width: 1; }
  </style>
  
    <line x1="68" y1="256.0" x2="696" y2="256.0" class="grid"/>
    <text x="58" y="260.0" class="tick tick-y">0</text>
    <line x1="68" y1="198.0" x2="696" y2="198.0" class="grid"/>
    <text x="58" y="202.0" class="tick tick-y">23k</text>
    <line x1="68" y1="140.0" x2="696" y2="140.0" class="grid"/>
    <text x="58" y="144.0" class="tick tick-y">45k</text>
    <line x1="68" y1="82.0" x2="696" y2="82.0" class="grid"/>
    <text x="58" y="86.0" class="tick tick-y">68k</text>
    <line x1="68" y1="24.0" x2="696" y2="24.0" class="grid"/>
    <text x="58" y="28.0" class="tick tick-y">90k</text>
  <path d="M68.0,236.5 L78.5,235.6 L83.5,235.6 L94.0,235.5 L94.4,235.5 L94.6,235.5 L95.5,235.5 L98.3,235.4 L105.7,235.4 L109.8,235.3 L114.9,235.1 L117.8,235.0 L121.9,234.9 L124.6,234.6 L133.6,234.1 L136.4,234.5 L141.2,234.4 L143.8,234.3 L149.3,233.8 L152.9,233.8 L160.1,229.3 L173.4,214.8 L194.9,210.2 L195.0,210.2 L205.7,209.9 L239.3,207.4 L267.2,206.7 L286.7,187.5 L287.4,186.6 L346.3,157.5 L346.8,157.5 L347.2,157.5 L354.2,160.0 L371.2,161.2 L383.8,159.6 L394.0,156.4 L422.1,141.3 L425.2,139.6 L456.1,147.1 L475.0,150.1 L494.1,151.8 L520.1,138.7 L551.5,116.5 L568.1,106.8 L620.4,112.3 L642.2,123.5 L657.7,130.5 L673.1,129.0 L686.2,127.0 L696.0,127.0 L696.0,256.0 L68.0,256.0 Z" class="fill"/>
  
    <line x1="68" y1="44.8" x2="696" y2="44.8" class="cap"/>
    <text x="696" y="37.8" class="cap-label" text-anchor="end">cap 82k</text>
  <path d="M68.0,236.5 L78.5,235.6 L83.5,235.6 L94.0,235.5 L94.4,235.5 L94.6,235.5 L95.5,235.5 L98.3,235.4 L105.7,235.4 L109.8,235.3 L114.9,235.1 L117.8,235.0 L121.9,234.9 L124.6,234.6 L133.6,234.1 L136.4,234.5 L141.2,234.4 L143.8,234.3 L149.3,233.8 L152.9,233.8 L160.1,229.3 L173.4,214.8 L194.9,210.2 L195.0,210.2 L205.7,209.9 L239.3,207.4 L267.2,206.7 L286.7,187.5 L287.4,186.6 L346.3,157.5 L346.8,157.5 L347.2,157.5 L354.2,160.0 L371.2,161.2 L383.8,159.6 L394.0,156.4 L422.1,141.3 L425.2,139.6 L456.1,147.1 L475.0,150.1 L494.1,151.8 L520.1,138.7 L551.5,116.5 L568.1,106.8 L620.4,112.3 L642.2,123.5 L657.7,130.5 L673.1,129.0 L686.2,127.0 L696.0,127.0" class="series"/>
  <circle cx="68.0" cy="236.5" r="3.5" class="dot"><title>14:00 — 7,552</title></circle><circle cx="78.5" cy="235.6" r="3.5" class="dot"><title>17:20 — 7,907</title></circle><circle cx="83.5" cy="235.6" r="3.5" class="dot"><title>18:55 — 7,921</title></circle><circle cx="94.0" cy="235.5" r="3.5" class="dot"><title>22:16 — 7,956</title></circle><circle cx="94.4" cy="235.5" r="3.5" class="dot"><title>22:24 — 7,962</title></circle><circle cx="94.6" cy="235.5" r="3.5" class="dot"><title>22:27 — 7,963</title></circle><circle cx="95.5" cy="235.5" r="3.5" class="dot"><title>22:45 — 7,969</title></circle><circle cx="98.3" cy="235.4" r="3.5" class="dot"><title>23:38 — 7,983</title></circle><circle cx="105.7" cy="235.4" r="3.5" class="dot"><title>01:59 — 7,988</title></circle><circle cx="109.8" cy="235.3" r="3.5" class="dot"><title>03:18 — 8,016</title></circle><circle cx="114.9" cy="235.1" r="3.5" class="dot"><title>04:56 — 8,093</title></circle><circle cx="117.8" cy="235.0" r="3.5" class="dot"><title>05:50 — 8,130</title></circle><circle cx="121.9" cy="234.9" r="3.5" class="dot"><title>07:09 — 8,179</title></circle><circle cx="124.6" cy="234.6" r="3.5" class="dot"><title>08:00 — 8,318</title></circle><circle cx="133.6" cy="234.1" r="3.5" class="dot"><title>10:52 — 8,492</title></circle><circle cx="136.4" cy="234.5" r="3.5" class="dot"><title>11:45 — 8,324</title></circle><circle cx="141.2" cy="234.4" r="3.5" class="dot"><title>13:17 — 8,363</title></circle><circle cx="143.8" cy="234.3" r="3.5" class="dot"><title>14:08 — 8,417</title></circle><circle cx="149.3" cy="233.8" r="3.5" class="dot"><title>15:53 — 8,617</title></circle><circle cx="152.9" cy="233.8" r="3.5" class="dot"><title>17:00 — 8,629</title></circle><circle cx="160.1" cy="229.3" r="3.5" class="dot"><title>19:19 — 10,351</title></circle><circle cx="173.4" cy="214.8" r="3.5" class="dot"><title>23:33 — 15,969</title></circle><circle cx="194.9" cy="210.2" r="3.5" class="dot"><title>06:22 — 17,764</title></circle><circle cx="195.0" cy="210.2" r="3.5" class="dot"><title>06:25 — 17,764</title></circle><circle cx="205.7" cy="209.9" r="3.5" class="dot"><title>09:49 — 17,865</title></circle><circle cx="239.3" cy="207.4" r="3.5" class="dot"><title>20:30 — 18,845</title></circle><circle cx="267.2" cy="206.7" r="3.5" class="dot"><title>05:24 — 19,135</title></circle><circle cx="286.7" cy="187.5" r="3.5" class="dot"><title>11:36 — 26,592</title></circle><circle cx="287.4" cy="186.6" r="3.5" class="dot"><title>11:48 — 26,914</title></circle><circle cx="346.3" cy="157.5" r="3.5" class="dot"><title>06:33 — 38,212</title></circle><circle cx="346.8" cy="157.5" r="3.5" class="dot"><title>06:43 — 38,212</title></circle><circle cx="347.2" cy="157.5" r="3.5" class="dot"><title>06:51 — 38,212</title></circle><circle cx="354.2" cy="160.0" r="3.5" class="dot"><title>09:04 — 37,256</title></circle><circle cx="371.2" cy="161.2" r="3.5" class="dot"><title>14:29 — 36,763</title></circle><circle cx="383.8" cy="159.6" r="3.5" class="dot"><title>18:30 — 37,406</title></circle><circle cx="394.0" cy="156.4" r="3.5" class="dot"><title>21:45 — 38,625</title></circle><circle cx="422.1" cy="141.3" r="3.5" class="dot"><title>06:40 — 44,506</title></circle><circle cx="425.2" cy="139.6" r="3.5" class="dot"><title>07:40 — 45,145</title></circle><circle cx="456.1" cy="147.1" r="3.5" class="dot"><title>17:30 — 42,234</title></circle><circle cx="475.0" cy="150.1" r="3.5" class="dot"><title>23:30 — 41,080</title></circle><circle cx="494.1" cy="151.8" r="3.5" class="dot"><title>05:36 — 40,425</title></circle><circle cx="520.1" cy="138.7" r="3.5" class="dot"><title>13:52 — 45,509</title></circle><circle cx="551.5" cy="116.5" r="3.5" class="dot"><title>23:51 — 54,123</title></circle><circle cx="568.1" cy="106.8" r="3.5" class="dot"><title>05:09 — 57,872</title></circle><circle cx="620.4" cy="112.3" r="3.5" class="dot"><title>21:47 — 55,738</title></circle><circle cx="642.2" cy="123.5" r="3.5" class="dot"><title>04:42 — 51,398</title></circle><circle cx="657.7" cy="130.5" r="3.5" class="dot"><title>09:38 — 48,702</title></circle><circle cx="673.1" cy="129.0" r="3.5" class="dot"><title>14:32 — 49,270</title></circle><circle cx="686.2" cy="127.0" r="3.5" class="dot"><title>18:43 — 50,042</title></circle><circle cx="696.0" cy="127.0" r="5" class="dot dot-last"><title>21:50 — 50,042</title></circle>
  <text x="696.0" y="113.0" class="end-label" text-anchor="end">50,042</text>
  <line x1="68" y1="256" x2="696" y2="256" class="axis"/>
  
    <text x="68.0" y="278" class="tick" text-anchor="start">14:00</text>
    <text x="109.8" y="278" class="tick" text-anchor="middle">03:18</text>
    <text x="149.3" y="278" class="tick" text-anchor="middle">15:53</text>
    <text x="286.7" y="278" class="tick" text-anchor="middle">11:36</text>
    <text x="422.1" y="278" class="tick" text-anchor="middle">06:40</text>
    <text x="642.2" y="278" class="tick" text-anchor="middle">04:42</text>
    <text x="696.0" y="278" class="tick" text-anchor="end">21:50</text>
</svg>